<?xml version="1.0" standalone="no"?>
<!DOCTYPE svg PUBLIC "-//W3C//DTD SVG 1.1//EN" "http://www.w3.org/Graphics/SVG/1.1/DTD/svg11.dtd" >
<svg>
<metadata>
Created by FontForge 20090914 at Tue Oct  6 23:21:15 2020
 By www-data
Copyright &#194;&#169; 2011 ParaType Inc., ParaType Ltd. All rights reserved.
</metadata>
<defs>
<font id="PragmaticaSlab-Medium" horiz-adv-x="600" >
  <font-face 
    font-family="Pragmatica Slabserif"
    font-weight="500"
    font-stretch="normal"
    units-per-em="1000"
    panose-1="2 6 6 3 2 2 6 2 4 4"
    ascent="800"
    descent="-200"
    x-height="508"
    cap-height="700"
    bbox="-588 -282.004 1296 920"
    underline-thickness="50"
    underline-position="-150"
    unicode-range="U+0020-U+FB02"
  />
<missing-glyph horiz-adv-x="500" 
d="M58 8h384v496h-384v-496zM50 0v512h400v-512h-400z" />
    <glyph glyph-name="afii10017.var.accented" unicode="&#x410;`" horiz-adv-x="726" 
d="M207 599v101h225l224 -594h70v-106h-269v96h65l-21 61h-274l-21 -61h57v-96h-263v106h80l187 493h-60zM363 574l-106 -314h210zM375 900h136l-118 -140h-96z" />
    <glyph glyph-name="afii10022.var.accented" unicode="&#x415;`" horiz-adv-x="690" 
d="M55 594v106h594v-225h-106v119h-291v-182h245v-106h-245v-200h302v136h106v-242h-605v106h69v488h-69zM355 900h136l-118 -140h-96z" />
    <glyph glyph-name="afii10026.var.accented" unicode="&#x418;`" horiz-adv-x="834" 
d="M55 594v106h264v-106h-67v-406l333 512h194v-106h-69v-488h69v-106h-264v106h67v406l-333 -512h-194v106h69v488h-69zM444 900h136l-118 -140h-96z" />
    <glyph glyph-name="afii10032.var.accented" unicode="&#x41e;`" horiz-adv-x="776" 
d="M45 350c0 49.333 5.5 94.166 16.5 134.499s24.5 73 40.5 98s35.833 46.833 59.5 65.5s45.5 32.5 65.5 41.5s42.333 16 67 21s43.167 8 55.5 9s25.166 1.5 38.499 1.5s26.166 -0.5 38.499 -1.5s30.833 -4 55.5 -9s47 -12 67 -21s41.833 -22.833 65.5 -41.5
s43.5 -40.5 59.5 -65.5s29.5 -57.667 40.5 -98s16.5 -85.166 16.5 -134.499s-5.5 -94.166 -16.5 -134.499s-24.5 -73 -40.5 -98s-35.833 -46.833 -59.5 -65.5s-45.5 -32.5 -65.5 -41.5s-42.333 -16 -67 -21s-43.167 -8 -55.5 -9s-25.166 -1.5 -38.499 -1.5
s-26.166 0.5 -38.499 1.5s-30.833 4 -55.5 9s-47 12 -67 21s-41.833 22.833 -65.5 41.5s-43.5 40.5 -59.5 65.5s-29.5 57.667 -40.5 98s-16.5 85.166 -16.5 134.499zM182 350c0 -30.667 2.83301 -60 8.5 -88s15.5 -56 29.5 -84s35.333 -50.5 64 -67.5
s63.334 -25.5 104.001 -25.5s75.334 8.5 104.001 25.5s50 39.5 64 67.5s23.833 56 29.5 84s8.5 57.333 8.5 88s-2.83301 60 -8.5 88s-15.5 56 -29.5 84s-35.333 50.5 -64 67.5s-63.334 25.5 -104.001 25.5s-75.334 -8.5 -104.001 -25.5s-50 -39.5 -64 -67.5
s-23.833 -56 -29.5 -84s-8.5 -57.333 -8.5 -88zM385 900h136l-118 -140h-96z" />
    <glyph glyph-name="afii10037.var.accented" unicode="&#x423;`" horiz-adv-x="658" 
d="M5 594v106h266v-106h-54l135 -272l100 272h-65v106h266v-106h-69l-257 -594h-176v106h104l28 78l-218 410h-60zM339 900h136l-118 -140h-96z" />
    <glyph glyph-name="afii10045.var.accented" unicode="&#x42b;`" horiz-adv-x="1024" 
d="M703 594v106h266v-106h-69v-488h69v-106h-253v106h56v488h-69zM55 594v106.001h266v-106h-69v-164h161c172.667 0 259 -71 259 -213c0 -24 -4.33301 -47.833 -13 -71.5s-22.5 -46.834 -41.5 -69.501s-46.667 -41 -83 -55s-78.5 -21 -126.5 -21h-353v106h69v488h-69z
M252 324.001v-218h137c100.667 0 151 37 151 111c0 71.333 -49.333 107 -148 107h-140zM520 900.001h136l-118 -140h-96z" />
    <glyph glyph-name="afii10047.var.accented" unicode="&#x42d;`" horiz-adv-x="748" 
d="M65 700l105.995 -0.000976562v-59c53.333 53.333 123 80 209 80c50.667 0 95.334 -7 134.001 -21s69.834 -32.667 93.501 -56s42.834 -52 57.501 -86s24.667 -68.5 30 -103.5s8 -73.833 8 -116.5c0 -116.667 -31.667 -205.667 -95 -267s-148.666 -92 -255.999 -92
c-44 0 -83.833 5.83301 -119.5 17.5s-64.5 26.334 -86.5 44.001s-40.667 38.5 -56 62.5s-26.166 47 -32.499 69s-10.5 44.333 -12.5 67h127c2.66699 -42 20 -78.167 52 -108.5s76.667 -45.5 134 -45.5c37.333 0 69.833 7.16699 97.5 21.5s48.834 33.166 63.501 56.499
s25.667 46.833 33 70.5s11.666 47.834 12.999 72.501h-306v106h306c-1.33301 24.667 -5.33301 48 -12 70s-16.834 43.5 -30.501 64.5s-33.667 37.667 -60 50s-57.166 18.5 -92.499 18.5c-53.333 0 -97.833 -13.167 -133.5 -39.5s-57.5 -59.833 -65.5 -100.5h-106v225z
M390.995 899.999h136l-118 -140h-96z" />
    <glyph glyph-name="afii10048.var.accented" unicode="&#x42e;`" horiz-adv-x="1079" 
d="M55 594l-0.000976562 105.997h266v-106h-69v-174h104c2.66699 26.667 7.66699 52.834 15 78.501s19.333 52.334 36 80.001s37 51.667 61 72s55.333 37.166 94 50.499s82.334 20 131.001 20c13.333 0 26.166 -0.5 38.499 -1.5s30.666 -4 54.999 -9s46.5 -12 66.5 -21
s41.833 -22.833 65.5 -41.5s43.5 -40.5 59.5 -65.5s29.333 -57.667 40 -98s16 -85.166 16 -134.499s-5.33301 -94.166 -16 -134.499s-24 -73 -40 -98s-35.833 -46.833 -59.5 -65.5s-45.5 -32.5 -65.5 -41.5s-42.167 -16 -66.5 -21s-42.666 -8 -54.999 -9
s-25.166 -1.5 -38.499 -1.5c-50.667 0 -96 7.16699 -136 21.5s-72 32.5 -96 54.5s-44.167 48.333 -60.5 79s-27.833 60.5 -34.5 89.5s-11 59.167 -13 90.5h-101v-208h69v-106h-266v106h69v488h-69zM692.999 84.9971c33.333 0 62.5 5.83301 87.5 17.5
s44.667 26.334 59 44.001s26 39 35 64s15 48.5 18 70.5s4.5 45 4.5 69s-1.5 47 -4.5 69s-9 45.5 -18 70.5s-20.667 46.333 -35 64s-34 32.334 -59 44.001s-54.167 17.5 -87.5 17.5s-62.5 -5.83301 -87.5 -17.5s-44.667 -26.334 -59 -44.001s-26 -39 -35 -64
s-15 -48.5 -18 -70.5s-4.5 -45 -4.5 -69s1.5 -47 4.5 -69s9 -45.5 18 -70.5s20.667 -46.333 35 -64s34 -32.334 59 -44.001s54.167 -17.5 87.5 -17.5zM550.999 899.997h136l-118 -140h-96z" />
    <glyph glyph-name="afii10049.var.accented" unicode="&#x42f;`" horiz-adv-x="755" 
d="M434 0l-0.000976562 106h69v155h-121l-169 -261h-170v106h84l122 169c-14.667 2 -28.834 4.83301 -42.501 8.5s-29.667 10.5 -48 20.5s-34.166 22 -47.499 36s-24.666 33 -33.999 57s-14 51.333 -14 82c0 38 7.16699 71 21.5 99s31.5 49.667 51.5 65
s44.167 27.5 72.5 36.5s53.5 14.667 75.5 17s45 3.5 69 3.5h347v-106h-69v-488h69v-106h-266zM502.999 594l-155 -0.000976562c-102 0 -153 -38 -153 -114c0 -23.333 5.5 -43.166 16.5 -59.499s25.667 -28 44 -35s35.5 -11.833 51.5 -14.5s32.667 -4 50 -4h146v227z
M406.999 899.999h136l-118 -140h-96z" />
    <glyph glyph-name="afii10023.var.accented" unicode="&#x401;`" horiz-adv-x="690" 
d="M55 594v106h594v-225h-106v119h-291v-182h245v-106h-245v-200h302v136h106v-242h-605v106h69v488h-69zM120 772v88h128v-88h-128zM478 772v88h128v-88h-128zM349 900h136l-118 -140h-96z" />
    <glyph glyph-name="afii10065.var.accented" unicode="&#x430;`" horiz-adv-x="585" 
d="M393 0l-0.00878906 62.9971c-39.333 -50 -95.666 -75 -168.999 -75c-33.333 0 -62.333 3.83301 -87 11.5s-43.167 16.834 -55.5 27.501s-22 23.5 -29 38.5s-11.333 27.5 -13 37.5s-2.5 20.667 -2.5 32c0 24.667 4.83301 46.5 14.5 65.5s21.667 33.5 36 43.5
s26.833 17.5 37.5 22.5s20.334 8.5 29.001 10.5c11.333 3.33301 23.333 6 36 8s27 4 43 6l39 5l49 7l28 4c4.66699 0.666992 10.334 2.83398 17.001 6.50098s10.834 9 12.501 16s2.5 16.5 2.5 28.5c0 58.667 -33 88 -99 88c-41.333 0 -71.666 -9.16699 -90.999 -27.5
s-28.333 -40.833 -27 -67.5h-114c-1.33301 50.667 17.334 92.834 56.001 126.501s97.334 50.5 176.001 50.5c38.667 0 72.334 -4.5 101.001 -13.5s50.334 -19.667 65.001 -32s26.167 -27.5 34.5 -45.5s13.5 -33.5 15.5 -46.5s3 -27.167 3 -42.5v-266h64v-82h-172z
M380.991 225.997l0.000976562 18c-12 -8.66699 -40.667 -15.667 -86 -21c-21.333 -2.66699 -36.833 -4.83398 -46.5 -6.50098s-21.334 -4.5 -35.001 -8.5s-23.5 -8.66699 -29.5 -14s-11.333 -12.666 -16 -21.999s-7 -20.333 -7 -33c0 -20.667 6.5 -37.334 19.5 -50.001
s32.833 -19 59.5 -19c17.333 0 33.333 2 48 6s29.5 11.333 44.5 22s26.833 26.834 35.5 48.501s13 48.167 13 79.5zM283.992 699.997h130l-110 -132h-90z" />
    <glyph glyph-name="afii10070.var.accented" unicode="&#x435;`" horiz-adv-x="594" 
d="M429 147h114.001c-4 -19.333 -10.167 -37.5 -18.5 -54.5s-21 -34.667 -38 -53s-41.5 -32.833 -73.5 -43.5s-69.333 -16 -112 -16c-16 0 -31.833 0.833008 -47.5 2.5s-37.167 7.5 -64.5 17.5s-50.833 23.5 -70.5 40.5s-37.167 43.333 -52.5 79s-23 77.5 -23 125.5
c0 88.667 21.833 158 65.5 208s108.167 75 193.5 75c158 0 240.667 -92 248 -276c0 -4 0.166992 -9 0.5 -15s0.5 -10.667 0.5 -14h-380c0 -18 2.33301 -35.667 7 -53s12 -34.5 22 -51.5s24.667 -30.667 44 -41s41.666 -15.5 66.999 -15.5c28.667 0 54.5 7.5 77.5 22.5
s36.5 35.833 40.5 62.5zM171.001 305l253 0.000976562c0 14 -1.5 28 -4.5 42s-8.5 29 -16.5 45s-20.5 29 -37.5 39s-37.833 15 -62.5 15c-43.333 0 -76.5 -14.333 -99.5 -43s-33.833 -61.334 -32.5 -98.001zM293.001 700.001h130l-110 -132h-90z" />
    <glyph glyph-name="afii10074.var.accented" unicode="&#x438;`" horiz-adv-x="676" 
d="M40 82h64v344h-64v82h248v-82h-64v-284l216 366h196v-82h-64v-344h64v-82h-248v82h64v284l-216 -366h-196v82zM347 700h130l-110 -132h-90z" />
    <glyph glyph-name="afii10080.var.accented" unicode="&#x43e;`" horiz-adv-x="610" 
d="M43 254c0 22 2 44 6 66s12 46 24 72s27.333 48.667 46 68s44 35.5 76 48.5s68.667 19.5 110 19.5s78 -6.5 110 -19.5s57.333 -29.167 76 -48.5s34 -42 46 -68s20 -50 24 -72s6 -44 6 -66s-2 -44 -6 -66s-12 -46 -24 -72s-27.333 -48.667 -46 -68s-44 -35.5 -76 -48.5
s-68.667 -19.5 -110 -19.5s-78 6.5 -110 19.5s-57.333 29.167 -76 48.5s-34 41.833 -46 67.5s-20 49.667 -24 72s-6 44.5 -6 66.5zM171 254c0 -40.667 4.66699 -74.834 14 -102.501s21.833 -47.5 37.5 -59.5s29.834 -20 42.501 -24s26 -6 40 -6s27.333 2 40 6
s26.834 12 42.501 24s28.167 31.833 37.5 59.5s14 61.834 14 102.501s-4.66699 74.834 -14 102.501s-21.833 47.5 -37.5 59.5s-29.834 20 -42.501 24s-26 6 -40 6s-27.333 -2 -40 -6s-26.834 -12 -42.501 -24s-28.167 -31.833 -37.5 -59.5s-14 -61.834 -14 -102.501z
M301 700h130l-110 -132h-90z" />
    <glyph glyph-name="afii10085.var.accented" unicode="&#x443;`" horiz-adv-x="567" 
d="M-5 426v82h243v-82h-52l118 -296l94 296h-52v82h226v-82h-61l-216 -611h-171v82h92l35 94l-201 435h-55zM315 700h130l-110 -132h-90z" />
    <glyph glyph-name="afii10093.var.accented" unicode="&#x44b;`" horiz-adv-x="838" 
d="M550 426v82h248v-82h-64v-344h60v-82h-180v426h-64zM40 426l0.000976562 82h248v-82h-64v-114h109c20.667 0 38.667 -0.5 54 -1.5s34 -4.5 56 -10.5s39.833 -14 53.5 -24s25.667 -25.167 36 -45.5s15.5 -44.5 15.5 -72.5c0 -25.333 -4.83301 -47.833 -14.5 -67.5
s-21.834 -35 -36.501 -46s-31.667 -20 -51 -27s-37 -11.667 -53 -14s-31.667 -3.5 -47 -3.5h-306v82h64v344h-64zM224.001 230v-148h108c24.667 0 46.167 6.5 64.5 19.5s27.5 31.833 27.5 56.5c0 48 -30.667 72 -92 72h-108zM414.001 700h130l-110 -132h-90z" />
    <glyph glyph-name="afii10095.var.accented" unicode="&#x44d;`" horiz-adv-x="588" 
d="M220 220l0.000976562 82.002h197c-1.33301 39.333 -14.666 73.166 -39.999 101.499s-59.666 42.5 -102.999 42.5c-35.333 0 -66 -10.5 -92 -31.5s-42 -46.167 -48 -75.5h-87v169h82v-46c41.333 44 98.666 66 171.999 66c17.333 0 34.166 -1 50.499 -3
s37.166 -8.33301 62.499 -19s46.833 -25.167 64.5 -43.5s33.167 -45.5 46.5 -81.5s20 -78.667 20 -128c0 -10 -0.333008 -19.667 -1 -29s-2.83398 -23.833 -6.50098 -43.5s-8.66699 -37.5 -15 -53.5s-16.166 -33.5 -29.499 -52.5s-29.166 -35 -47.499 -48s-42 -24 -71 -33
s-61.5 -13.5 -97.5 -13.5c-78 0 -136.333 19 -175 57s-60.334 83 -65.001 135h114c1.33301 -30.667 13 -56.667 35 -78s51.667 -32 89 -32c32.667 0 60.167 9.33301 82.5 28s37.5 39.167 45.5 61.5s12.667 45.166 14 68.499h-197zM290.001 700.002h130l-110 -132h-90z" />
    <glyph glyph-name="afii10096.var.accented" unicode="&#x44e;`" horiz-adv-x="863" 
d="M40 426l0.00195312 82h244v-79h-60v-120h84c4 61.333 28.5 113.166 73.5 155.499s104.833 63.5 179.5 63.5c41.333 0 77.833 -6.5 109.5 -19.5s56.667 -29.167 75 -48.5s33.333 -42 45 -68s19.5 -50 23.5 -72s6 -44 6 -66s-2 -44 -6 -66s-11.833 -46 -23.5 -72
s-26.667 -48.667 -45 -68s-43.333 -35.5 -75 -48.5s-68.167 -19.5 -109.5 -19.5c-56.667 0 -104.834 12.667 -144.501 38s-67.834 55.833 -84.501 91.5s-25.667 74.834 -27 117.501h-81v-148h60v-79h-244v82h64v344h-64zM430.002 254c0 -40.667 4.5 -74.834 13.5 -102.501
s21.167 -47.5 36.5 -59.5s29.166 -20 41.499 -24s25.5 -6 39.5 -6s27.167 2 39.5 6s26.166 12 41.499 24s27.5 31.833 36.5 59.5s13.5 61.834 13.5 102.501s-4.5 74.834 -13.5 102.501s-21.167 47.5 -36.5 59.5s-29.166 20 -41.499 24s-25.5 6 -39.5 6s-27.167 -2 -39.5 -6
s-26.166 -12 -41.499 -24s-27.5 -31.833 -36.5 -59.5s-13.5 -61.834 -13.5 -102.501zM442.002 700h130l-110 -132h-90z" />
    <glyph glyph-name="afii10097.var.accented" unicode="&#x44f;`" horiz-adv-x="609" 
d="M321 0v82.001h64v107h-78l-133 -189h-138v82h67l85 110c-12.667 1.33301 -25.834 4.5 -39.501 9.5s-28.667 12.667 -45 23s-29.666 25.666 -39.999 45.999s-15.5 43.833 -15.5 70.5c0 30.667 5.83301 57.167 17.5 79.5s25 39 40 50s32.833 19.5 53.5 25.5
s36.5 9.5 47.5 10.5s22.167 1.5 33.5 1.5h329v-82h-64v-344h64v-82h-248zM385 426.001h-96c-78 0 -117 -26.667 -117 -80c0 -50 39 -75 117 -75h96v155zM314 700.001h130l-110 -132h-90z" />
    <glyph glyph-name="afii10071.var.accented" unicode="&#x451;`" horiz-adv-x="594" 
d="M429 147h114.001c-4 -19.333 -10.167 -37.5 -18.5 -54.5s-21 -34.667 -38 -53s-41.5 -32.833 -73.5 -43.5s-69.333 -16 -112 -16c-16 0 -31.833 0.833008 -47.5 2.5s-37.167 7.5 -64.5 17.5s-50.833 23.5 -70.5 40.5s-37.167 43.333 -52.5 79s-23 77.5 -23 125.5
c0 88.667 21.833 158 65.5 208s108.167 75 193.5 75c158 0 240.667 -92 248 -276c0 -4 0.166992 -9 0.5 -15s0.5 -10.667 0.5 -14h-380c0 -18 2.33301 -35.667 7 -53s12 -34.5 22 -51.5s24.667 -30.667 44 -41s41.666 -15.5 66.999 -15.5c28.667 0 54.5 7.5 77.5 22.5
s36.5 35.833 40.5 62.5zM171.001 305l253 0.000976562c0 14 -1.5 28 -4.5 42s-8.5 29 -16.5 45s-20.5 29 -37.5 39s-37.833 15 -62.5 15c-43.333 0 -76.5 -14.333 -99.5 -43s-33.833 -61.334 -32.5 -98.001zM74.001 584.001v106h111v-106h-111zM419.001 584.001v106h111
v-106h-111zM273.001 700.001h130l-110 -132h-90z" />
    <glyph glyph-name="fi" unicode="fi" horiz-adv-x="596" 
d="M326 0v81.999h40v344h-112v-344h40v-82h-230v82h70v344h-94v82h94v64c0 27.333 4 50.333 12 69s19 32.334 33 41.001s28.167 14.667 42.5 18s30.5 5 48.5 5c23.333 0 46 -1.66699 68 -5v-82c-1.33301 0 -5.83301 0.333008 -13.5 1s-13.167 1 -16.5 1
c-36 0 -54 -21.333 -54 -64v-48h232v-426h70v-82h-230zM366 593.999v106h120v-106h-120z" />
    <glyph glyph-name="fl" unicode="fl" horiz-adv-x="596" 
d="M64 0v81.999h70v344h-94v82h94v64c0 27.333 4 50.333 12 69s19 32.334 33 41.001s28.167 14.667 42.5 18s30.5 5 48.5 5c23.333 0 46 -1.66699 68 -5h148v-618h70v-82h-230v82h40v344h-112v-344h40v-82h-230zM366 617.999h-28c-1.33301 0 -5.83301 0.333008 -13.5 1
s-13.167 1 -16.5 1c-36 0 -54 -21.333 -54 -64v-48h112v110z" />
    <glyph glyph-name=".notdef" horiz-adv-x="500" 
d="M58 8h384v496h-384v-496zM50 0v512h400v-512h-400z" />
    <glyph glyph-name="space" unicode=" " horiz-adv-x="233" 
 />
    <glyph glyph-name="exclam" unicode="!" horiz-adv-x="344" 
d="M106 700h132v-241l-34 -240h-64l-34 240v241zM106 0v135h132v-135h-132z" />
    <glyph glyph-name="quotedbl" unicode="&#x22;" horiz-adv-x="500" 
d="M220 700l-51 -192h-68l-51 192h170zM450 700l-51 -192h-68l-51 192h170z" />
    <glyph glyph-name="numbersign" unicode="#" 
d="M558 170h-140l-25 -160h-78l25 160h-134l-25 -160h-78l25 160h-142l15 86h140l29 187h-142l15 86h140l26 165h78l-26 -165h134l26 165h78l-26 -165h142l-15 -86h-140l-29 -187h142zM248 443l-29 -187h134l29 187h-134z" />
    <glyph glyph-name="dollar" unicode="$" 
d="M32 205l110.001 -0.00195312c1.33301 -36.667 11.333 -67.667 30 -93c21.333 -28 50.666 -43.333 87.999 -46v250c-28 6.66699 -50.333 12.5 -67 17.5s-35.334 12.667 -56.001 23s-36.5 22 -47.5 35s-20.5 30.167 -28.5 51.5s-12 46 -12 74
c0 66.667 24.667 119.334 74 158.001c38 28 83.667 42.667 137 44v58h82v-58c44.667 0 83 -16.333 115 -49v30h101v-185h-107c2.66699 30 -8.33301 58 -33 84c-18.667 18.667 -44 30 -76 34v-217c66.667 -10.667 117.667 -28.667 153 -54
c27.333 -19.333 46.333 -41.5 57 -66.5s16 -55.833 16 -92.5c0 -75.333 -24.333 -132.333 -73 -171c-39.333 -31.333 -90.333 -48.666 -153 -51.999v-73h-82v73c-55.333 0 -97.666 18.333 -126.999 55v-35h-101v205zM342.001 299.998v-233.999
c31.333 0 55.5 12.167 72.5 36.5s25.5 52.833 25.5 85.5c0 26.667 -8.33301 50.167 -25 70.5s-41 34.166 -73 41.499zM260.001 431.999v201c-55.333 -8.66699 -83 -44 -83 -106c0 -31.333 9 -54.5 27 -69.5s36.667 -23.5 56 -25.5z" />
    <glyph glyph-name="percent" unicode="%" horiz-adv-x="950" 
d="M54 513c0 59.333 15 107.5 45 144.5s71.667 55.5 125 55.5s95 -18.5 125 -55.5s45 -85.167 45 -144.5s-15 -107.5 -45 -144.5s-71.667 -55.5 -125 -55.5s-95 18.5 -125 55.5s-45 85.167 -45 144.5zM134 513c0 -89.333 30 -134 90 -134s90 44.667 90 134s-30 134 -90 134
s-90 -44.667 -90 -134zM556 192c0 59.333 15 107.5 45 144.5s71.667 55.5 125 55.5s95 -18.5 125 -55.5s45 -85.167 45 -144.5s-15 -107.5 -45 -144.5s-71.667 -55.5 -125 -55.5s-95 18.5 -125 55.5s-45 85.167 -45 144.5zM636 192c0 -89.333 30 -134 90 -134
s90 44.667 90 134s-30 134 -90 134s-90 -44.667 -90 -134zM225 0l428 700h72l-428 -700h-72z" />
    <glyph glyph-name="ampersand" unicode="&#x26;" horiz-adv-x="720" 
d="M457 394h223.001v-92h-63c-12.667 -59.333 -33.334 -111.333 -62.001 -156l33 -40h87v-106h-137l-55 67c-54.667 -58.667 -127.334 -88 -218.001 -88c-71.333 0 -126.333 20.833 -165 62.5s-58 91.5 -58 149.5c0 100 55.333 175.333 166 226
c-19.333 20 -34.5 42.833 -45.5 68.5s-16.5 49.834 -16.5 72.501c0 46.667 16.333 85.5 49 116.5s75.334 46.5 128.001 46.5c30.667 0 57.5 -5.33301 80.5 -16s40.167 -24.5 51.5 -41.5s19.666 -33.833 24.999 -50.5s8 -33.334 8 -50.001c0 -70.667 -42 -128.667 -126 -174
l125 -159c10.667 16 19.334 40 26.001 72h-56v92zM422.001 143l-153 198c-66 -27.333 -99 -76 -99 -146c0 -35.333 10.5 -64.5 31.5 -87.5s49.167 -34.5 84.5 -34.5c52 0 97.333 23.333 136 70zM305.001 459c51.333 23.333 77 56.667 77 100c0 53.333 -20 80 -60 80
c-18.667 0 -35 -6.33301 -49 -19s-21 -31 -21 -55c0 -30.667 17.667 -66 53 -106z" />
    <glyph glyph-name="quotesingle" unicode="'" horiz-adv-x="270" 
d="M220 700l-51 -192h-68l-51 192h170z" />
    <glyph glyph-name="parenleft" unicode="(" horiz-adv-x="394" 
d="M218 700l92 -0.00488281c-81.333 -157.333 -122 -304.666 -122 -441.999c0 -66 11 -138.833 33 -218.5s51.667 -154.167 89 -223.5h-92c-53.333 90.667 -91.333 169.334 -114 236.001s-34 135.334 -34 206.001s11.333 139.334 34 206.001s60.667 145.334 114 236.001z
" />
    <glyph glyph-name="parenright" unicode=")" horiz-adv-x="394" 
d="M176 -184l-92 0.00488281c81.333 157.333 122 304.666 122 441.999c0 66 -11 138.333 -33 217s-51.667 153.667 -89 225h92c53.333 -90.667 91.333 -169.334 114 -236.001s34 -135.334 34 -206.001s-11.333 -139.334 -34 -206.001s-60.667 -145.334 -114 -236.001z" />
    <glyph glyph-name="asterisk" unicode="*" horiz-adv-x="468" 
d="M234 515l-75 -101l-51 37l73 102l-115 38l19 58l117 -38v124h64v-124l117 38l19 -58l-115 -38l73 -102l-51 -37z" />
    <glyph glyph-name="plus" unicode="+" 
d="M50 398h207v207h86v-207h207v-86h-207v-207h-86v207h-207v86z" />
    <glyph glyph-name="comma" unicode="," horiz-adv-x="344" 
d="M106 135l132.001 0.000976562v-139c0 -52 -12.833 -89.833 -38.5 -113.5s-56.834 -37.167 -93.501 -40.5v69c20 1.33301 36.167 9.16602 48.5 23.499s18.5 32.5 18.5 54.5v11h-67v135z" />
    <glyph glyph-name="hyphen" unicode="-" horiz-adv-x="420" 
d="M70 216v106h280v-106h-280z" />
    <glyph glyph-name="period" unicode="." horiz-adv-x="344" 
d="M106 0v135h132v-135h-132z" />
    <glyph glyph-name="slash" unicode="/" horiz-adv-x="440" 
d="M0 -185l358 885h82l-358 -885h-82z" />
    <glyph glyph-name="zero" unicode="0" 
d="M300 -21c-42 0 -78.833 8.5 -110.5 25.5s-56.5 38 -74.5 63s-32.5 55 -43.5 90s-18.167 67.5 -21.5 97.5s-5 61.667 -5 95s1.66699 65 5 95s10.5 62.5 21.5 97.5s25.5 65 43.5 90s42.833 46 74.5 63s68.5 25.5 110.5 25.5s78.833 -8.5 110.5 -25.5s56.5 -38 74.5 -63
s32.5 -55 43.5 -90s18.167 -67.5 21.5 -97.5s5 -61.667 5 -95s-1.66699 -65 -5 -95s-10.5 -62.5 -21.5 -97.5s-25.5 -65 -43.5 -90s-42.833 -46 -74.5 -63s-68.5 -25.5 -110.5 -25.5zM300 85c10.667 0 20.334 1 29.001 3s19.334 8 32.001 18s23.334 23.833 32.001 41.5
s16.167 43.834 22.5 78.501s9.5 76 9.5 124s-3.16699 89.333 -9.5 124s-13.833 60.834 -22.5 78.501s-19.334 31.5 -32.001 41.5s-23.334 16 -32.001 18s-18.334 3 -29.001 3s-20.334 -1 -29.001 -3s-19.334 -8 -32.001 -18s-23.334 -23.833 -32.001 -41.5
s-16.167 -43.834 -22.5 -78.501s-9.5 -76 -9.5 -124s3.16699 -89.333 9.5 -124s13.833 -60.834 22.5 -78.501s19.334 -31.5 32.001 -41.5s23.334 -16 32.001 -18s18.334 -3 29.001 -3z" />
    <glyph glyph-name="one" unicode="1" 
d="M135 594v106h247v-594h119v-106h-366v106h119v488h-119z" />
    <glyph glyph-name="two" unicode="2" 
d="M567 0l-528.002 -0.00292969c-0.666992 24.667 1.33301 47.834 6 69.501s9.83398 40.334 15.501 56.001s15.334 32 29.001 49s24.5 30 32.5 39s22.167 20.833 42.5 35.5s34.166 24.334 41.499 29.001l47 29c2.66699 2 5 3.5 7 4.5s4.33301 2.33301 7 4l7 4.5
c24 14.667 42.667 26.5 56 35.5s28.166 21.167 44.499 36.5s28.166 32 35.499 50s11 38 11 60c0 10 -1.16699 20.167 -3.5 30.5s-7.33301 22.333 -15 36s-20.667 24.834 -39 33.501s-41.166 13 -68.499 13c-88.667 0 -133 -43.667 -133 -131v-17h-123v18
c0 32 4.33301 60.833 13 86.5s19.334 46.5 32.001 62.5s28.167 29.833 46.5 41.5s35.166 20.334 50.499 26.001s32.166 10.167 50.499 13.5s31.833 5.16602 40.5 5.49902s17.334 0.5 26.001 0.5c75.333 0 136.333 -18.333 183 -55s70 -91.334 70 -164.001
c0 -23.333 -2.16699 -44.833 -6.5 -64.5s-12 -38 -23 -55s-21 -31.167 -30 -42.5s-23.167 -24 -42.5 -38s-34.166 -24.333 -44.499 -31s-27.166 -17 -50.499 -31l-15 -9c-57.333 -35.333 -95.333 -60.5 -114 -75.5s-32 -31.5 -40 -49.5h276v118h106v-224z" />
    <glyph glyph-name="three" unicode="3" 
d="M36 226l123 -0.000976562c0 -11.333 0.333008 -20 1 -26c1.33301 -14.667 4.33301 -28.334 9 -41.001s11.667 -25.5 21 -38.5s22.5 -23.333 39.5 -31s36.833 -11.5 59.5 -11.5c16 0 30.333 1.66699 43 5c18.667 4.66699 34.334 12.334 47.001 23.001s21.667 22.667 27 36
s9 25 11 35s3 19.667 3 29c0 70 -40.667 105 -122 105h-51v106h27c12 0 22.333 0.333008 31 1s19.834 2.83398 33.501 6.50098s25 8.66699 34 15s16.833 16.333 23.5 30s10 29.834 10 48.501c0 26 -7.5 48.667 -22.5 68s-42.167 29 -81.5 29
c-42.667 0 -73.167 -11.167 -91.5 -33.5s-27.833 -56.5 -28.5 -102.5h-123c-0.666992 28.667 2.16602 55.834 8.49902 81.501s17.666 51.167 33.999 76.5s41.5 45.666 75.5 60.999s75 23 123 23c81.333 0 141 -18 179 -54s57 -83 57 -141c0 -38 -10.833 -71 -32.5 -99
s-50.834 -45.667 -87.501 -53v-2c38 -4.66699 69.833 -21.834 95.5 -51.501s38.5 -71.5 38.5 -125.5c0 -68 -23.167 -121 -69.5 -159s-109.166 -57 -188.499 -57c-45.333 0 -84.833 6.5 -118.5 19.5s-59 28.333 -76 46s-30.5 39.167 -40.5 64.5s-16 46.333 -18 63
s-3 34.667 -3 54z" />
    <glyph glyph-name="four" unicode="4" 
d="M352 158h-329v101l330 441h127v-441h97v-101h-97v-57h69v-101h-266v101h69v57zM152 259h200v278z" />
    <glyph glyph-name="five" unicode="5" 
d="M542 700v-180.998h-102v75h-226l-23 -162c34.667 34.667 86 52 154 52c68.667 0 123.667 -21.667 165 -65s62 -104.666 62 -183.999c0 -46 -8 -86 -24 -120s-34.5 -59.333 -55.5 -76s-46 -30 -75 -40s-52 -15.833 -69 -17.5s-33.833 -2.5 -50.5 -2.5
c-144 0 -224.667 70 -242 210h123c2.66699 -30 14.5 -56 35.5 -78s51.5 -33 91.5 -33c16 0 31.167 2.16699 45.5 6.5s28.833 11.666 43.5 21.999s26.167 26.333 34.5 48s12.5 48.167 12.5 79.5c0 26 -3.66699 48.667 -11 68s-15.833 33.666 -25.5 42.999
s-21.334 16.666 -35.001 21.999s-24.667 8.5 -33 9.5s-17.166 1.5 -26.499 1.5c-56.667 0 -96 -19.333 -118 -58h-121l48 380h422z" />
    <glyph glyph-name="six" unicode="6" 
d="M555 541l-123.001 0.000976562c-11.333 49.333 -48.333 74 -111 74c-96 0 -147 -67.667 -153 -203h2c30.667 42 83.334 63 158.001 63c72 0 128.667 -21 170 -63s62 -101.667 62 -179c0 -79.333 -23.167 -141.5 -69.5 -186.5s-109.5 -67.5 -189.5 -67.5
c-38 0 -71.667 5 -101 15s-53 24.167 -71 42.5s-33.167 38 -45.5 59s-21.333 45 -27 72s-9.5 51.333 -11.5 73s-3 45.167 -3 70.5c0 68.667 6 128.667 18 180s27 91.333 45 120s40.167 51.667 66.5 69s51 28.5 74 33.5s48.167 7.5 75.5 7.5
c70.667 0 125.5 -17.333 164.5 -52s62.167 -77.334 69.5 -128.001zM171.999 227.001c0 -17.333 1.83203 -33.5 5.49902 -48.5s9.83398 -30 18.501 -45s22 -26.833 40 -35.5s39.667 -13 65 -13c43.333 0 75.666 13.167 96.999 39.5s32 60.5 32 102.5
s-10.667 76.167 -32 102.5s-53.666 39.5 -96.999 39.5c-48 0 -81.5 -14.167 -100.5 -42.5s-28.5 -61.5 -28.5 -99.5z" />
    <glyph glyph-name="seven" unicode="7" 
d="M117 106l67.999 -0.000976562c18.667 74.667 38.667 137.667 60 189c48 114.667 114.333 214.334 199 299.001h-300v-99h-104v205h530v-88c-83.333 -86 -148.666 -185.667 -195.999 -299c-29.333 -68 -50 -137 -62 -207h76v-106h-271v106z" />
    <glyph glyph-name="eight" unicode="8" 
d="M169 375c-62 27.333 -92.9941 78.666 -92.9941 153.999c0 24 3.16699 46.167 9.5 66.5s17.166 40.5 32.499 60.5s38.5 35.833 69.5 47.5s68.5 17.5 112.5 17.5s81.5 -5.83301 112.5 -17.5s54.167 -27.5 69.5 -47.5s26.166 -40.167 32.499 -60.5s9.5 -42.5 9.5 -66.5
c0 -75.333 -31 -126.666 -93 -153.999c29.333 -8.66699 55.666 -27.167 78.999 -55.5s35 -69.5 35 -123.5c0 -36 -5.66699 -67.5 -17 -94.5s-25.5 -48 -42.5 -63s-37.167 -27.167 -60.5 -36.5s-44.833 -15.5 -64.5 -18.5s-39.834 -4.5 -60.501 -4.5s-40.834 1.5 -60.501 4.5
s-41.167 9.16699 -64.5 18.5s-43.5 21.5 -60.5 36.5s-31.167 36 -42.5 63s-17 58.5 -17 94.5c0 54 11.667 95.167 35 123.5s49.666 46.833 78.999 55.5zM300.006 424c37.333 0 63.998 9.83301 79.998 29.5s24 42.167 24 67.5c0 8.66699 -1.16699 17.5 -3.5 26.5
s-6.66602 19 -12.999 30s-17 20 -32 27s-33.5 10.5 -55.5 10.5s-40.5 -3.5 -55.5 -10.5s-25.667 -16 -32 -27s-10.666 -21 -12.999 -30s-3.5 -17.833 -3.5 -26.5c0 -25.333 8 -47.833 24 -67.5s42.667 -29.5 80 -29.5zM300.004 85c38.667 0 67.5 11.5 86.5 34.5
s28.5 50.5 28.5 82.5c0 30 -8.83301 56.833 -26.5 80.5s-47.167 35.5 -88.5 35.5s-70.833 -11.833 -88.5 -35.5s-26.5 -50.5 -26.5 -80.5c0 -32 9.5 -59.5 28.5 -82.5s47.833 -34.5 86.5 -34.5z" />
    <glyph glyph-name="nine" unicode="9" 
d="M45 159l123.001 -0.000976562c11.333 -49.333 48.333 -74 111 -74c96 0 147 67.667 153 203h-2c-30.667 -42 -83.334 -63 -158.001 -63c-72 0 -128.667 21 -170 63s-62 101.667 -62 179c0 79.333 23.167 141.5 69.5 186.5s109.5 67.5 189.5 67.5c38 0 71.667 -5 101 -15
s53 -24.167 71 -42.5s33.167 -38 45.5 -59s21.333 -45 27 -72s9.5 -51.333 11.5 -73s3 -45.167 3 -70.5c0 -69.333 -6 -129.5 -18 -180.5s-26.833 -90.833 -44.5 -119.5s-39.5 -51.667 -65.5 -69s-50.667 -28.5 -74 -33.5s-49 -7.5 -77 -7.5
c-70.667 0 -125.5 17.333 -164.5 52s-62.167 77.334 -69.5 128.001zM428.001 472.999c0 38 -9.50098 71.167 -28.501 99.5s-52.5 42.5 -100.5 42.5c-43.333 0 -75.666 -13.167 -96.999 -39.5s-32 -60.5 -32 -102.5s10.667 -76.167 32 -102.5s53.666 -39.5 96.999 -39.5
c25.333 0 47 4.33301 65 13s31.333 20.5 40 35.5s14.834 30 18.501 45s5.5 31.167 5.5 48.5z" />
    <glyph glyph-name="colon" unicode=":" horiz-adv-x="344" 
d="M106 373v135h132v-135h-132zM106 0v135h132v-135h-132z" />
    <glyph glyph-name="semicolon" unicode=";" horiz-adv-x="344" 
d="M106 373v135h132v-135h-132zM106 135l132.001 0.000976562v-139c0 -52 -12.833 -89.833 -38.5 -113.5s-56.834 -37.167 -93.501 -40.5v69c20 1.33301 36.167 9.16602 48.5 23.499s18.5 32.5 18.5 54.5v11h-67v135z" />
    <glyph glyph-name="less" unicode="&#x3c;" 
d="M122 342l433 -237l-40 -72l-494 278v62l494 278l40 -72z" />
    <glyph glyph-name="equal" unicode="=" 
d="M50 488h500v-86h-500v86zM50 288h500v-86h-500v86z" />
    <glyph glyph-name="greater" unicode="&#x3e;" 
d="M478 342l-433 237l40 72l494 -278v-62l-494 -278l-40 72z" />
    <glyph glyph-name="question" unicode="?" horiz-adv-x="576" 
d="M215 0v135h132v-135h-132zM176 484h-122.998c-0.666992 26 2 51.5 8 76.5s17 50.167 33 75.5s41 45.833 75 61.5s75 23.5 123 23.5c79.333 0 137.666 -19 174.999 -57s56 -84.333 56 -139c0 -37.333 -8.16699 -67.666 -24.5 -90.999s-39.833 -47 -70.5 -71
c-39.333 -30 -65 -52.667 -77 -68s-18 -36 -18 -62v-18h-100c0 36.667 2.16699 64 6.5 82s16.166 38.333 35.499 61c8 9.33301 23.333 23.166 46 41.499s40.334 36.5 53.001 54.5s19 39 19 63c0 28.667 -8.33301 52.167 -25 70.5s-42.667 27.5 -78 27.5
c-34.667 0 -62.834 -10 -84.501 -30s-31.5 -53.667 -29.5 -101z" />
    <glyph glyph-name="at" unicode="@" horiz-adv-x="860" 
d="M581 94l35.0029 -62.999c-57.333 -34.667 -119 -52 -185 -52c-106 0 -194.333 33.167 -265 99.5s-106 157.166 -106 272.499c0 110 35 199.167 105 267.5s158.667 102.5 266 102.5c61.333 0 116 -9.5 164 -28.5s86.667 -45 116 -78s51.5 -70.167 66.5 -111.5
s22.5 -85.333 22.5 -132c0 -63.333 -17.333 -116.5 -52 -159.5s-79.334 -64.5 -134.001 -64.5c-50.667 0 -83 14.333 -97 43c-20.667 -32.667 -56.334 -49 -107.001 -49c-48 0 -88.833 16.333 -122.5 49s-50.5 82 -50.5 148c0 56 14.167 102.833 42.5 140.5
s69.5 56.5 123.5 56.5c43.333 0 76 -14 98 -42h2v28h100v-237c0 -36.667 9.33301 -55 28 -55c21.333 0 41.5 11.333 60.5 34s28.5 58.667 28.5 108c0 27.333 -3.16699 53.833 -9.5 79.5s-16.833 50.667 -31.5 75s-32.834 45.833 -54.501 64.5s-49.167 33.5 -82.5 44.5
s-70.333 16.5 -111 16.5c-86 0 -156 -28.5 -210 -85.5s-81 -128.5 -81 -214.5c0 -88 27 -160.333 81 -217s124 -85 210 -85c56.667 0 106.667 15 150 45zM491.003 337.001c0 77.333 -23.333 116 -70 116c-27.333 0 -47.333 -11.167 -60 -33.5s-19 -49.833 -19 -82.5
c0 -76 26 -114 78 -114c47.333 0 71 38 71 114z" />
    <glyph glyph-name="A" unicode="A" horiz-adv-x="726" 
d="M207 599v101h225l224 -594h70v-106h-269v96h65l-21 61h-274l-21 -61h57v-96h-263v106h80l187 493h-60zM363 574l-106 -314h210z" />
    <glyph glyph-name="B" unicode="B" horiz-adv-x="736" 
d="M55 594v106.002h394c42.667 0 79 -5.5 109 -16.5s52.5 -25.667 67.5 -44s25.667 -37 32 -56s9.5 -39.167 9.5 -60.5c0 -38.667 -10.833 -71.834 -32.5 -99.501s-49.5 -44.5 -83.5 -50.5v-2c16.667 -2.66699 32.5 -7.5 47.5 -14.5s30.333 -16.833 46 -29.5
s28.167 -30.334 37.5 -53.001s14 -48.667 14 -78c0 -130.667 -87 -196 -261 -196h-380v106h69v488h-69zM252 310.002v-204h175c43.333 0 77 7.5 101 22.5s36 42.167 36 81.5c0 22 -4.16699 40.167 -12.5 54.5s-20.166 24.5 -35.499 30.5s-29.333 10 -42 12
s-27.334 3 -44.001 3h-178zM252 594.002v-178h169c76 0 114 27.667 114 83c0 63.333 -39 95 -117 95h-166z" />
    <glyph glyph-name="C" unicode="C" horiz-adv-x="733" 
d="M569 700l105.992 -0.000976562v-225h-106c-4.66699 36.667 -21.667 69.167 -51 97.5s-73.666 42.5 -132.999 42.5c-37.333 0 -69.666 -7.16699 -96.999 -21.5s-48.5 -34.5 -63.5 -60.5s-25.833 -54.5 -32.5 -85.5s-10 -65.833 -10 -104.5
c0 -80.667 19.833 -143.834 59.5 -189.501s91.834 -68.5 156.501 -68.5c54 0 95.167 15.167 123.5 45.5s43.833 66.5 46.5 108.5h127c-2.66699 -24 -7 -46.833 -13 -68.5s-16.167 -44.667 -30.5 -69s-32.166 -45.166 -53.499 -62.499s-49.666 -31.666 -84.999 -42.999
s-75.666 -17 -120.999 -17c-12.667 0 -25 0.333008 -37 1s-30.333 3.5 -55 8.5s-47.167 11.667 -67.5 20s-42.666 21.5 -66.999 39.5s-44.833 39.167 -61.5 63.5s-30.667 56 -42 95s-17 82.833 -17 131.5c0 69.333 8.83301 129.5 26.5 180.5s42.334 90.833 74.001 119.5
s66.5 49.667 104.5 63s80 20 126 20c84 0 148.333 -26.667 193 -80v59z" />
    <glyph glyph-name="D" unicode="D" horiz-adv-x="785" 
d="M55 594v105.999h343c54.667 0 103.167 -7.66699 145.5 -23s75.666 -34.5 99.999 -57.5s44.166 -50.667 59.499 -83s25.5 -63.166 30.5 -92.499s7.5 -60 7.5 -92c0 -59.333 -8.66699 -111.333 -26 -156s-38.666 -79 -63.999 -103s-55.666 -43.5 -90.999 -58.5
s-67.333 -24.5 -96 -28.5s-59 -6 -91 -6h-318v106h69v488h-69zM252 593.999v-487.999h115c17.333 0 33.666 0.833008 48.999 2.5s35.5 7.16699 60.5 16.5s46 22 63 38s32 40.167 45 72.5s19.5 70.5 19.5 114.5c0 40 -5.16699 75.333 -15.5 106s-23.166 54.5 -38.499 71.5
s-33.333 30.667 -54 41s-39.5 17.166 -56.5 20.499s-34.5 5 -52.5 5h-135z" />
    <glyph glyph-name="E" unicode="E" horiz-adv-x="690" 
d="M55 594v106h594v-225h-106v119h-291v-182h245v-106h-245v-200h302v136h106v-242h-605v106h69v488h-69z" />
    <glyph glyph-name="F" unicode="F" horiz-adv-x="640" 
d="M55 594v106h565v-225h-106v119h-262v-192h224v-106h-224v-190h69v-106h-266v106h69v488h-69z" />
    <glyph glyph-name="G" unicode="G" horiz-adv-x="793" 
d="M412 269l-0.00585938 105.996h365v-106h-79v-269h-92v95h-2c-40 -77.333 -113.333 -116 -220 -116c-43.333 0 -84.166 6.16699 -122.499 18.5s-74.166 31.833 -107.499 58.5s-59.833 64.334 -79.5 113.001s-29.5 106 -29.5 172c0 62.667 7.66699 117.667 23 165
s34.333 84.333 57 111s49.834 48.167 81.501 64.5s60.834 27 87.501 32s54.667 7.5 84 7.5c40.667 0 77.834 -7.66699 111.501 -23s60.834 -35.666 81.501 -60.999v63h106v-225h-106c-5.33301 34.667 -22.666 66.667 -51.999 96s-72.666 44 -129.999 44
c-34 0 -63.833 -6.16699 -89.5 -18.5s-45.834 -27.666 -60.501 -45.999s-26.5 -40.166 -35.5 -65.499s-14.833 -49.166 -17.5 -71.499s-4 -45.833 -4 -70.5c0 -49.333 7.16699 -91.833 21.5 -127.5s33 -62.334 56 -80.001s46 -30.5 69 -38.5s46.167 -12 69.5 -12
c18 0 36.333 2.5 55 7.5s38.167 13.5 58.5 25.5s37.166 31 50.499 57s20.333 57.333 21 94h-171z" />
    <glyph glyph-name="H" unicode="H" horiz-adv-x="819" 
d="M498 0v106h69v208h-315v-208h69v-106h-266v106h69v488h-69v106h266v-106h-69v-174h315v174h-69v106h266v-106h-69v-488h69v-106h-266z" />
    <glyph glyph-name="I" unicode="I" horiz-adv-x="376" 
d="M55 594v106h266v-106h-69v-488h69v-106h-266v106h69v488h-69z" />
    <glyph glyph-name="J" unicode="J" horiz-adv-x="580" 
d="M271 594l-0.000976562 106.003h274v-106h-69v-346c0 -28.667 -1 -53.334 -3 -74.001s-7.33301 -44.167 -16 -70.5s-20.667 -47.833 -36 -64.5s-37.666 -30.834 -66.999 -42.501s-64.333 -17.5 -105 -17.5c-44.667 0 -82.667 6.66699 -114 20s-55 31.5 -71 54.5
s-27.333 46.667 -34 71s-10 50.833 -10 79.5v39h128v-29c0 -86 34 -129 102 -129c32 0 56.333 9.16699 73 27.5s25 58.166 25 119.499v362h-77z" />
    <glyph glyph-name="K" unicode="K" horiz-adv-x="684" 
d="M272 348l186 246h-51v106h262v-106h-68l-192 -237l210 -251h60v-106h-269v106h55zM252 594v-488h69v-106h-266v106h69v488h-69v106h266v-106h-69z" />
    <glyph glyph-name="L" unicode="L" horiz-adv-x="616" 
d="M55 594v106h266v-106h-69v-488h238v158h106v-264h-541v106h69v488h-69z" />
    <glyph glyph-name="M" unicode="M" horiz-adv-x="1040" 
d="M724 0v106h64v421l2 27h-2l-220 -554h-96l-220 554h-2l2 -27v-421h64v-106h-261v106h69v488h-69v106h262l205 -531l205 531h258v-106h-69v-488h69v-106h-261z" />
    <glyph glyph-name="N" unicode="N" horiz-adv-x="848" 
d="M527 594v106h266v-106h-69v-594h-136l-336 497v-391h69v-106h-266v106h69v488h-69v106h205l336 -497v391h-69z" />
    <glyph glyph-name="O" unicode="O" horiz-adv-x="776" 
d="M45 350c0 49.333 5.5 94.166 16.5 134.499s24.5 73 40.5 98s35.833 46.833 59.5 65.5s45.5 32.5 65.5 41.5s42.333 16 67 21s43.167 8 55.5 9s25.166 1.5 38.499 1.5s26.166 -0.5 38.499 -1.5s30.833 -4 55.5 -9s47 -12 67 -21s41.833 -22.833 65.5 -41.5
s43.5 -40.5 59.5 -65.5s29.5 -57.667 40.5 -98s16.5 -85.166 16.5 -134.499s-5.5 -94.166 -16.5 -134.499s-24.5 -73 -40.5 -98s-35.833 -46.833 -59.5 -65.5s-45.5 -32.5 -65.5 -41.5s-42.333 -16 -67 -21s-43.167 -8 -55.5 -9s-25.166 -1.5 -38.499 -1.5
s-26.166 0.5 -38.499 1.5s-30.833 4 -55.5 9s-47 12 -67 21s-41.833 22.833 -65.5 41.5s-43.5 40.5 -59.5 65.5s-29.5 57.667 -40.5 98s-16.5 85.166 -16.5 134.499zM182 350c0 -30.667 2.83301 -60 8.5 -88s15.5 -56 29.5 -84s35.333 -50.5 64 -67.5
s63.334 -25.5 104.001 -25.5s75.334 8.5 104.001 25.5s50 39.5 64 67.5s23.833 56 29.5 84s8.5 57.333 8.5 88s-2.83301 60 -8.5 88s-15.5 56 -29.5 84s-35.333 50.5 -64 67.5s-63.334 25.5 -104.001 25.5s-75.334 -8.5 -104.001 -25.5s-50 -39.5 -64 -67.5
s-23.833 -56 -29.5 -84s-8.5 -57.333 -8.5 -88z" />
    <glyph glyph-name="P" unicode="P" horiz-adv-x="702" 
d="M55 594l-0.000976562 105.998h341c25.333 0 49.333 -1.5 72 -4.5s47.167 -9.16699 73.5 -18.5s48.833 -21.666 67.5 -36.999s34.334 -36.666 47.001 -63.999s19 -59 19 -95c0 -64.667 -23.167 -118 -69.5 -160s-116.5 -63 -210.5 -63h-143v-152h69v-106h-266v106h69v488
h-69zM251.999 593.998l-0.00195312 -230h142c16.667 0 32.834 1.66699 48.501 5s31.5 8.83301 47.5 16.5s28.833 19.5 38.5 35.5s14.5 35.333 14.5 58c0 24.667 -5.16699 45.167 -15.5 61.5s-24 28 -41 35s-32.667 11.833 -47 14.5s-29.166 4 -44.499 4h-143z" />
    <glyph glyph-name="Q" unicode="Q" horiz-adv-x="776" 
d="M630 70l72 -92l-69 -62l-80 101c-38 -25.333 -93 -38 -165 -38c-13.333 0 -26.333 0.5 -39 1.5s-31.167 4 -55.5 9s-46.5 12 -66.5 21s-41.833 22.833 -65.5 41.5s-43.5 40.667 -59.5 66s-29.5 58 -40.5 98s-16.5 84.667 -16.5 134s5.5 94.166 16.5 134.499
s24.5 73 40.5 98s35.833 46.833 59.5 65.5s45.5 32.5 65.5 41.5s42.333 16 67 21s43.167 8 55.5 9s25.166 1.5 38.499 1.5c12.667 0 25 -0.5 37 -1.5s30.167 -4 54.5 -9s46.833 -12 67.5 -21s42.834 -22.833 66.501 -41.5s43.667 -40.5 60 -65.5s30 -57.667 41 -98
s16.5 -85.166 16.5 -134.499c0 -126 -33.667 -219.333 -101 -280zM479 264l72.001 -91.999c28.667 44 43 103.333 43 178c0 30.667 -2.83301 60 -8.5 88s-15.5 56 -29.5 84s-35.333 50.5 -64 67.5s-63.334 25.5 -104.001 25.5s-75.334 -8.5 -104.001 -25.5
s-50 -39.5 -64 -67.5s-23.833 -56 -29.5 -84s-8.5 -57.333 -8.5 -88s2.83301 -59.834 8.5 -87.501s15.5 -55.667 29.5 -84s35.333 -51 64 -68s63.334 -25.5 104.001 -25.5s72 8 94 24l-77 97z" />
    <glyph glyph-name="R" unicode="R" horiz-adv-x="760" 
d="M540 0l-140.998 278.002h-147v-172h69v-106h-266v106h69v488h-69v106h373c20 0 40.167 -1.33301 60.5 -4s43.166 -8.33398 68.499 -17.001s47.333 -20 66 -34s34.5 -33.5 47.5 -58.5s19.5 -54.167 19.5 -87.5c0 -47.333 -11.833 -89.833 -35.5 -127.5
s-63.834 -63.834 -120.501 -78.501l92 -187h84v-106h-170zM252.002 594.002l-0.000976562 -210.001h157c40 0 74.833 8 104.5 24s44.5 43 44.5 81c0 21.333 -5 39.5 -15 54.5s-23.167 25.833 -39.5 32.5s-31.666 11.334 -45.999 14.001s-29.5 4 -45.5 4h-160z" />
    <glyph glyph-name="S" unicode="S" horiz-adv-x="684" 
d="M501 700l105.997 0.00195312v-195h-106c-3.33301 22 -11.166 41 -23.499 57s-27 27.5 -44 34.5s-32.333 11.833 -46 14.5s-26.5 4 -38.5 4c-90 0 -135 -30.333 -135 -91c0 -17.333 4.16699 -32 12.5 -44s21 -21.667 38 -29s32.833 -12.833 47.5 -16.5s34 -7.5 58 -11.5
c46 -8 83.333 -16.333 112 -25s56 -21 82 -37s45 -37 57 -63s18 -57.667 18 -95c0 -149.333 -93 -224 -279 -224c-40 0 -77.833 6.66699 -113.5 20s-62.834 30.666 -81.501 51.999v-51h-106v229h106c0.666992 -15.333 4.16699 -30.5 10.5 -45.5s16.166 -30.333 29.499 -46
s32.833 -28.334 58.5 -38.001s55.834 -14.5 90.501 -14.5c98.667 0 148 35 148 105c0 20 -4.16699 37 -12.5 51s-20.166 24.667 -35.499 32s-28.166 12.666 -38.499 15.999s-23.5 6.33301 -39.5 9c-35.333 6 -62.666 11.667 -81.999 17
c-32.667 6.66699 -60.667 14.334 -84 23.001s-45.833 20.5 -67.5 35.5s-38 34.833 -49 59.5s-16.5 54 -16.5 88c0 30.667 4.83301 58 14.5 82s23 42.833 40 56.5s34.167 25 51.5 34s37 15.333 59 19s39.167 6 51.5 7s25.5 1.5 39.5 1.5c32.667 0 65 -6 97 -18
s55.667 -27 71 -45v42z" />
    <glyph glyph-name="T" unicode="T" horiz-adv-x="690" 
d="M212 0v106h69v488h-160v-150h-106v256h660v-256h-106v150h-160v-488h69v-106h-266z" />
    <glyph glyph-name="U" unicode="U" horiz-adv-x="786" 
d="M485 594l-0.00195312 106h266v-106h-69v-325c0 -19.333 -0.666992 -36.666 -2 -51.999s-4.16602 -33.5 -8.49902 -54.5s-10.5 -39.5 -18.5 -55.5s-19.167 -32.333 -33.5 -49s-31.5 -30.5 -51.5 -41.5s-44.833 -20 -74.5 -27s-63.167 -10.5 -100.5 -10.5
s-70.833 3.5 -100.5 10.5s-54.5 16 -74.5 27s-37.167 24.833 -51.5 41.5s-25.5 33 -33.5 49s-14.167 34.5 -18.5 55.5s-7.16602 39.167 -8.49902 54.5s-2 32.666 -2 51.999v325h-69v106h266v-106h-69v-305c0 -71.333 12.167 -123.166 36.5 -155.499
s65.833 -48.5 124.5 -48.5s100.167 16.167 124.5 48.5s36.5 84.166 36.5 155.499v305h-69z" />
    <glyph glyph-name="V" unicode="V" horiz-adv-x="699" 
d="M0 594v106h271v-106h-64l145 -463l147 463h-61v106h261v-106h-70l-207 -594h-148l-208 594h-66z" />
    <glyph glyph-name="W" unicode="W" horiz-adv-x="1019" 
d="M755 594v106h264v-106h-63l-161 -594h-162l-124 549l-124 -549h-162l-161 594h-62v106h268v-106h-63l111 -446l123 552h144l123 -552l110 446h-61z" />
    <glyph glyph-name="X" unicode="X" horiz-adv-x="697" 
d="M32 594v106h272v-106h-53l102 -150l106 150h-47v106h257v-106h-62l-177 -236l196 -252h61v-106h-267v106h43l-120 169l-120 -169h46v-106h-259v106h62l198 252l-177 236h-61z" />
    <glyph glyph-name="Y" unicode="Y" horiz-adv-x="643" 
d="M0 594v106h269v-106h-56l112 -201l111 201h-56v106h263v-106h-65l-192 -315v-173h69v-106h-266v106h69v173l-193 315h-65z" />
    <glyph glyph-name="Z" unicode="Z" horiz-adv-x="635" 
d="M492 246h106v-246h-561v114l378 480h-253v-119h-106v225h520v-98l-378 -496h294v140z" />
    <glyph glyph-name="bracketleft" unicode="[" horiz-adv-x="389" 
d="M106 700h230v-82h-112v-721h112v-82h-230v885z" />
    <glyph glyph-name="backslash" unicode="\" horiz-adv-x="440" 
d="M440 -185h-82l-358 885h82z" />
    <glyph glyph-name="bracketright" unicode="]" horiz-adv-x="389" 
d="M53 700h230v-885h-230v82h112v721h-112v82z" />
    <glyph glyph-name="asciicircum" unicode="^" horiz-adv-x="482" 
d="M177 700h128l127 -218h-96l-95 168l-95 -168h-96z" />
    <glyph glyph-name="underscore" unicode="_" horiz-adv-x="494" 
d="M0 -185v82h494v-82h-494z" />
    <glyph glyph-name="grave" unicode="`" horiz-adv-x="340" 
d="M174 700l70 -132h-90l-110 132h130z" />
    <glyph glyph-name="a" unicode="a" horiz-adv-x="585" 
d="M393 0l-0.00878906 62.9971c-39.333 -50 -95.666 -75 -168.999 -75c-33.333 0 -62.333 3.83301 -87 11.5s-43.167 16.834 -55.5 27.501s-22 23.5 -29 38.5s-11.333 27.5 -13 37.5s-2.5 20.667 -2.5 32c0 24.667 4.83301 46.5 14.5 65.5s21.667 33.5 36 43.5
s26.833 17.5 37.5 22.5s20.334 8.5 29.001 10.5c11.333 3.33301 23.333 6 36 8s27 4 43 6l39 5l49 7l28 4c4.66699 0.666992 10.334 2.83398 17.001 6.50098s10.834 9 12.501 16s2.5 16.5 2.5 28.5c0 58.667 -33 88 -99 88c-41.333 0 -71.666 -9.16699 -90.999 -27.5
s-28.333 -40.833 -27 -67.5h-114c-1.33301 50.667 17.334 92.834 56.001 126.501s97.334 50.5 176.001 50.5c38.667 0 72.334 -4.5 101.001 -13.5s50.334 -19.667 65.001 -32s26.167 -27.5 34.5 -45.5s13.5 -33.5 15.5 -46.5s3 -27.167 3 -42.5v-266h64v-82h-172z
M380.991 225.997l0.000976562 18c-12 -8.66699 -40.667 -15.667 -86 -21c-21.333 -2.66699 -36.833 -4.83398 -46.5 -6.50098s-21.334 -4.5 -35.001 -8.5s-23.5 -8.66699 -29.5 -14s-11.333 -12.666 -16 -21.999s-7 -20.333 -7 -33c0 -20.667 6.5 -37.334 19.5 -50.001
s32.833 -19 59.5 -19c17.333 0 33.333 2 48 6s29.5 11.333 44.5 22s26.833 26.834 35.5 48.501s13 48.167 13 79.5z" />
    <glyph glyph-name="b" unicode="b" horiz-adv-x="668" 
d="M40 618l0.000976562 82h184v-244c9.33301 16.667 22.166 30.5 38.499 41.5s34 18.333 53 22s33.167 6 42.5 7s18 1.5 26 1.5c38 0 71.833 -6.33301 101.5 -19s53 -28.5 70 -47.5s31 -41.333 42 -67s18.333 -50 22 -73s5.5 -46.5 5.5 -70.5
c0 -47.333 -7.16699 -89 -21.5 -125s-33.666 -64.333 -57.999 -85s-50.333 -36 -78 -46s-56.834 -15 -87.501 -15c-72 0 -126.667 23.333 -164 70h-2v-50h-174v82h64v536h-64zM215.001 253c0 -58.667 11.665 -105.167 34.998 -139.5s56.666 -51.5 99.999 -51.5
c16 0 31.333 2.33301 46 7s30.167 13 46.5 25s29.5 31.5 39.5 58.5s15 59.5 15 97.5c0 67.333 -13.5 116.833 -40.5 148.5s-60.833 47.5 -101.5 47.5c-15.333 0 -30.166 -2.5 -44.499 -7.5s-29.166 -13.833 -44.499 -26.5s-27.666 -32.667 -36.999 -60s-14 -60.333 -14 -99z
" />
    <glyph glyph-name="c" unicode="c" horiz-adv-x="578" 
d="M519 339l-83.998 0.00390625c-2.66699 28.667 -15.167 53.667 -37.5 75s-52.833 32 -91.5 32c-90 0 -135 -64.333 -135 -193c0 -37.333 4.33301 -69.333 13 -96s20.167 -46.5 34.5 -59.5s28.833 -22.167 43.5 -27.5s30 -8 46 -8c39.333 0 68 12.833 86 38.5
s28 54.167 30 85.5h114c-2 -16.667 -5.33301 -33.334 -10 -50.001s-12.834 -34.667 -24.501 -54s-25.834 -36.333 -42.501 -51s-39.167 -26.834 -67.5 -36.501s-60.166 -14.5 -95.499 -14.5c-84 0 -147.5 24.667 -190.5 74s-64.5 115.666 -64.5 198.999
c0 41.333 4.33301 78.166 13 110.499s20.667 58 36 77s31.166 34.833 47.499 47.5s34.833 21.667 55.5 27s37.667 8.83301 51 10.5s27.333 2.5 42 2.5c66 0 115.667 -20.333 149 -61v41h82v-169z" />
    <glyph glyph-name="d" unicode="d" horiz-adv-x="668" 
d="M628 82l0.00195312 -82h-174v50h-2c-36.667 -46.667 -91.334 -70 -164.001 -70c-31.333 0 -61 5 -89 15s-54 25.333 -78 46s-43 49 -57 85s-21 77.667 -21 125c0 50.667 7.83301 96.167 23.5 136.5s42.167 73.833 79.5 100.5s83.333 40 138 40c8 0 16.667 -0.5 26 -1.5
s23.5 -3.33301 42.5 -7s36.667 -11 53 -22s29.166 -24.833 38.499 -41.5v162h-64v82h184v-618h64zM171.002 250c0 -40 5.32812 -73.5 15.9951 -100.5s24.334 -46.333 41.001 -58s31.834 -19.5 45.501 -23.5s27.167 -6 40.5 -6c42.667 0 76.5 17.667 101.5 53
s37.5 81.333 37.5 138c0 38.667 -4.66699 71.667 -14 99s-21.666 47.333 -36.999 60s-30.166 21.5 -44.499 26.5s-29.166 7.5 -44.499 7.5c-40.667 0 -74.5 -15.833 -101.5 -47.5s-40.5 -81.167 -40.5 -148.5z" />
    <glyph glyph-name="e" unicode="e" horiz-adv-x="594" 
d="M429 147h114.001c-4 -19.333 -10.167 -37.5 -18.5 -54.5s-21 -34.667 -38 -53s-41.5 -32.833 -73.5 -43.5s-69.333 -16 -112 -16c-16 0 -31.833 0.833008 -47.5 2.5s-37.167 7.5 -64.5 17.5s-50.833 23.5 -70.5 40.5s-37.167 43.333 -52.5 79s-23 77.5 -23 125.5
c0 88.667 21.833 158 65.5 208s108.167 75 193.5 75c158 0 240.667 -92 248 -276c0 -4 0.166992 -9 0.5 -15s0.5 -10.667 0.5 -14h-380c0 -18 2.33301 -35.667 7 -53s12 -34.5 22 -51.5s24.667 -30.667 44 -41s41.666 -15.5 66.999 -15.5c28.667 0 54.5 7.5 77.5 22.5
s36.5 35.833 40.5 62.5zM171.001 305l253 0.000976562c0 14 -1.5 28 -4.5 42s-8.5 29 -16.5 45s-20.5 29 -37.5 39s-37.833 15 -62.5 15c-43.333 0 -76.5 -14.333 -99.5 -43s-33.833 -61.334 -32.5 -98.001z" />
    <glyph glyph-name="f" unicode="f" horiz-adv-x="364" 
d="M44 0l0.000976562 82.001h70v344h-74v82h74v64c0 18 1.66699 33.667 5 47s10 27.166 20 41.499s26 25.333 48 33s50 11.5 84 11.5c30 0 57.667 -1.66699 83 -5v-82c-14.667 1.33301 -32 2 -52 2c-16 0 -29.167 -2.33301 -39.5 -7s-17.333 -11.167 -21 -19.5
s-5.83398 -14.833 -6.50098 -19.5s-1 -10.667 -1 -18v-48h84v-82h-84v-344h70v-82h-260z" />
    <glyph glyph-name="g" unicode="g" horiz-adv-x="672" 
d="M458 508l173.999 -0.00195312v-82h-64v-403c0 -70 -22.5 -123.5 -67.5 -160.5s-108.167 -55.5 -189.5 -55.5c-134 0 -208 48 -222 144h110c4.66699 -21.333 18.5 -36.666 41.5 -45.999s48.167 -14 75.5 -14c29.333 0 53.5 4.33301 72.5 13s32.5 20.667 40.5 36
s13.167 29.333 15.5 42s3.5 27 3.5 43v39c-9.33301 -16.667 -22.166 -30.5 -38.499 -41.5s-34 -18.333 -53 -22s-33.167 -6 -42.5 -7s-18 -1.5 -26 -1.5c-54.667 0 -100.667 12.667 -138 38s-63.833 57.333 -79.5 96s-23.5 82.334 -23.5 131.001c0 47.333 7 89 21 125
s33 64.333 57 85s50 36 78 46s57.667 15 89 15c71.333 0 126 -23.333 164 -70h2v50zM174.999 255.998c0 -31.333 3.66992 -58.832 11.0029 -82.499s16.166 -41.5 26.499 -53.5s22.666 -21.833 36.999 -29.5s26.666 -12.334 36.999 -14.001s20.833 -2.5 31.5 -2.5
c38 0 70.667 15.833 98 47.5s41 77.5 41 137.5c0 64.667 -13.333 112 -40 142s-60 45 -100 45c-44.667 0 -79.5 -16.667 -104.5 -50s-37.5 -80 -37.5 -140z" />
    <glyph glyph-name="h" unicode="h" horiz-adv-x="670" 
d="M382 0l-0.00195312 82h64v220c0 16.667 -0.166992 29.834 -0.5 39.501s-2.16602 22 -5.49902 37s-8.16602 26.667 -14.499 35s-15.833 15.833 -28.5 22.5s-28 10 -46 10c-8.66699 0 -17.334 -0.833008 -26.001 -2.5s-19.5 -5.66699 -32.5 -12s-24.167 -15 -33.5 -26
s-17.5 -27 -24.5 -48s-10.5 -45.5 -10.5 -73.5v-202h64v-82h-248v82h64v536h-64v82h184v-259c16.667 28 40.667 49.5 72 64.5s63 22.5 95 22.5c32.667 0 60.834 -5.66699 84.501 -17s41 -24 52 -38s19.667 -31.167 26 -51.5s10 -35.833 11 -46.5s1.5 -22.334 1.5 -35.001
v-258h64v-82h-248z" />
    <glyph glyph-name="i" unicode="i" horiz-adv-x="328" 
d="M40 426v82h184v-426h64v-82h-248v82h64v344h-64zM104 594v106h120v-106h-120z" />
    <glyph glyph-name="j" unicode="j" horiz-adv-x="278" 
d="M34 426v82h184v-535c0 -52.667 -9.33301 -92.834 -28 -120.501s-57 -41.5 -115 -41.5c-27.333 0 -50 1.33301 -68 4v82c33.333 0.666992 56.833 6.83398 70.5 18.501s20.5 33.167 20.5 64.5v446h-64zM98 594v106h120v-106h-120z" />
    <glyph glyph-name="k" unicode="k" horiz-adv-x="578" 
d="M40 618v82h184v-618h60v-82h-244v82h64v536h-64zM239 257l146 169h-39v82h214v-82h-49l-151 -158l162 -186h56v-82h-138z" />
    <glyph glyph-name="l" unicode="l" horiz-adv-x="328" 
d="M40 618v82h184v-618h64v-82h-248v82h64v536h-64z" />
    <glyph glyph-name="m" unicode="m" horiz-adv-x="980" 
d="M369 0l0.000976562 82.002h61v230c0 18.667 -0.833008 34.667 -2.5 48s-5.33398 27.166 -11.001 41.499s-14.667 25.333 -27 33s-28.166 11.5 -47.499 11.5c-30.667 0 -58 -12 -82 -36s-36 -61 -36 -111v-217h61v-82h-245v82h64v344h-64v82h184v-63
c15.333 26.667 37.833 47.167 67.5 61.5s59.834 21.5 90.501 21.5c37.333 0 67.166 -7 89.499 -21s40.166 -37.667 53.499 -71c38 61.333 98.333 92 181 92c113.333 0 170 -69.667 170 -209v-237h64v-82h-245v82h61v230c0 18.667 -0.833008 34.667 -2.5 48
s-5.33398 27.166 -11.001 41.499s-14.667 25.333 -27 33s-28.166 11.5 -47.499 11.5c-30.667 0 -58 -12 -82 -36s-36 -61 -36 -111v-217h61v-82h-242z" />
    <glyph glyph-name="n" unicode="n" horiz-adv-x="670" 
d="M382 0l-0.00195312 82h64v220c0 16.667 -0.166992 29.834 -0.5 39.501s-2.16602 22 -5.49902 37s-8.16602 26.667 -14.499 35s-15.833 15.833 -28.5 22.5s-28 10 -46 10c-8.66699 0 -17.334 -0.833008 -26.001 -2.5s-19.5 -5.66699 -32.5 -12s-24.167 -15 -33.5 -26
s-17.5 -27 -24.5 -48s-10.5 -45.5 -10.5 -73.5v-202h64v-82h-248v82h64v344h-64v82h184v-67c16.667 28 40.667 49.5 72 64.5s63 22.5 95 22.5c32.667 0 60.834 -5.66699 84.501 -17s41 -24 52 -38s19.667 -31.167 26 -51.5s10 -35.833 11 -46.5s1.5 -22.334 1.5 -35.001
v-258h64v-82h-248z" />
    <glyph glyph-name="o" unicode="o" horiz-adv-x="610" 
d="M43 254c0 22 2 44 6 66s12 46 24 72s27.333 48.667 46 68s44 35.5 76 48.5s68.667 19.5 110 19.5s78 -6.5 110 -19.5s57.333 -29.167 76 -48.5s34 -42 46 -68s20 -50 24 -72s6 -44 6 -66s-2 -44 -6 -66s-12 -46 -24 -72s-27.333 -48.667 -46 -68s-44 -35.5 -76 -48.5
s-68.667 -19.5 -110 -19.5s-78 6.5 -110 19.5s-57.333 29.167 -76 48.5s-34 41.833 -46 67.5s-20 49.667 -24 72s-6 44.5 -6 66.5zM171 254c0 -40.667 4.66699 -74.834 14 -102.501s21.833 -47.5 37.5 -59.5s29.834 -20 42.501 -24s26 -6 40 -6s27.333 2 40 6
s26.834 12 42.501 24s28.167 31.833 37.5 59.5s14 61.834 14 102.501s-4.66699 74.834 -14 102.501s-21.833 47.5 -37.5 59.5s-29.834 20 -42.501 24s-26 6 -40 6s-27.333 -2 -40 -6s-26.834 -12 -42.501 -24s-28.167 -31.833 -37.5 -59.5s-14 -61.834 -14 -102.501z" />
    <glyph glyph-name="p" unicode="p" horiz-adv-x="668" 
d="M40 426l-0.000976562 82h174v-50h2c37.333 46.667 92 70 164 70c30.667 0 59.834 -5 87.501 -15s53.667 -25.333 78 -46s43.666 -49 57.999 -85s21.5 -77.667 21.5 -125c0 -24 -1.83301 -47.5 -5.5 -70.5s-11 -47.333 -22 -73s-25 -48 -42 -67s-40.333 -34.833 -70 -47.5
s-63.5 -19 -101.5 -19c-8 0 -16.667 0.5 -26 1.5s-23.5 3.33301 -42.5 7s-36.667 11 -53 22s-29.166 24.833 -38.499 41.5v-155h64v-82h-248v82h64v529h-64zM214.999 253c0 -58.667 11.665 -105.167 34.998 -139.5s56.666 -51.5 99.999 -51.5c16 0 31.333 2.33301 46 7
s30.167 13 46.5 25s29.5 31.5 39.5 58.5s15 59.5 15 97.5c0 67.333 -13.5 116.833 -40.5 148.5s-60.833 47.5 -101.5 47.5c-15.333 0 -30.166 -2.5 -44.499 -7.5s-29.166 -13.833 -44.499 -26.5s-27.666 -32.667 -36.999 -60s-14 -60.333 -14 -99z" />
    <glyph glyph-name="q" unicode="q" horiz-adv-x="668" 
d="M628 -103l-0.000976562 -82h-248v82h64v155c-9.33301 -16.667 -22.166 -30.5 -38.499 -41.5s-34 -18.333 -53 -22s-33.167 -6 -42.5 -7s-18 -1.5 -26 -1.5c-54.667 0 -100.667 13.333 -138 40s-63.833 60.167 -79.5 100.5s-23.5 85.833 -23.5 136.5c0 47.333 7 89 21 125
s33 64.333 57 85s50 36 78 46s57.667 15 89 15c71.333 0 126 -23.333 164 -70h2v50h174v-82h-64v-529h64zM170.999 250c0 -40 5.32812 -73.5 15.9951 -100.5s24.334 -46.333 41.001 -58s31.834 -19.5 45.501 -23.5s27.167 -6 40.5 -6c42.667 0 76.5 17.667 101.5 53
s37.5 81.333 37.5 138c0 38.667 -4.66699 71.667 -14 99s-21.666 47.333 -36.999 60s-30.166 21.5 -44.499 26.5s-29.166 7.5 -44.499 7.5c-40.667 0 -74.5 -15.833 -101.5 -47.5s-40.5 -81.167 -40.5 -148.5z" />
    <glyph glyph-name="r" unicode="r" horiz-adv-x="434" 
d="M40 426l0.000976562 81.999h184v-93h2c16 38 40.167 64.667 72.5 80s66.166 23 101.499 23h20v-78c-122.667 2 -187.667 -51.667 -195 -161c-0.666992 -11.333 -1 -28.666 -1 -51.999v-145h64v-82h-248v82h64v344h-64z" />
    <glyph glyph-name="s" unicode="s" horiz-adv-x="550" 
d="M486 365l-86.001 0.00390625c-6 21.333 -19.333 40.166 -40 56.499s-44.667 24.5 -72 24.5c-63.333 0 -95 -21 -95 -63c0 -18.667 6.83301 -33.834 20.5 -45.501s26.334 -19 38.001 -22s32.5 -6.83301 62.5 -11.5c4.66699 -0.666992 8 -1.33398 10 -2.00098l40.5 -8
c9.66699 -2 23.167 -5.5 40.5 -10.5s31 -11 41 -18s20.5 -15.833 31.5 -26.5s19.167 -23.834 24.5 -39.501s8 -33.5 8 -53.5c0 -110.667 -69 -166 -207 -166c-75.333 0 -128 18 -158 54v-34h-87v186h87c0 -36 13 -65.667 39 -89s56 -35 90 -35c33.333 0 60 5.33301 80 16
s30 31.667 30 63c0 22 -7 38.5 -21 49.5s-38.333 19.5 -73 25.5l-55 9c-57.333 10.667 -99.333 27.834 -126 51.501s-40 58.5 -40 104.5c0 47.333 20.333 85.666 61 114.999c31.333 21.333 75.333 32 132 32c64.667 0 110.667 -17.333 138 -52v32h86v-143z" />
    <glyph glyph-name="t" unicode="t" horiz-adv-x="342" 
d="M14 508l82 -0.000976562v152h120v-152h106v-82h-106v-287c0 -15.333 0.666992 -26.5 2 -33.5s6.5 -13.667 15.5 -20s22.833 -9.5 41.5 -9.5c18 0 33.667 2 47 6v-82c-30 -8 -62.667 -12 -98 -12c-29.333 0 -53.5 3.83301 -72.5 11.5s-32 18.167 -39 31.5
s-11.5 24.833 -13.5 34.5s-3 20.834 -3 33.501v327h-82v82z" />
    <glyph glyph-name="u" unicode="u" horiz-adv-x="670" 
d="M630 82l0.00292969 -81.999h-184v67h-2c-15.333 -28.667 -38.666 -50.334 -69.999 -65.001s-64.333 -22 -99 -22c-26.667 0 -50.334 3.5 -71.001 10.5s-36.834 17 -48.501 30s-21.334 25.833 -29.001 38.5s-13 27.167 -16 43.5s-4.83301 28.833 -5.5 37.5s-1 18 -1 28
v258h-64v82h184v-302c0 -15.333 0.333008 -28 1 -38s2.66699 -22.333 6 -37s8.16602 -26.5 14.499 -35.5s15.833 -16.833 28.5 -23.5s27.667 -10 45 -10c23.333 0 43.666 5 60.999 15s30 21.333 38 34s14.333 28 19 46s7.33398 31.333 8.00098 40s1 17.667 1 27v202h-64v82
h184v-426h64z" />
    <glyph glyph-name="v" unicode="v" horiz-adv-x="578" 
d="M-5 426v82h250v-82h-54l105 -312l101 312h-56v82h242v-82h-67l-156 -426h-140l-156 426h-69z" />
    <glyph glyph-name="w" unicode="w" horiz-adv-x="840" 
d="M597 426v82h248v-82h-64l-148 -426h-122l-90 371l-91 -371h-122l-149 426h-64v82h248v-82h-61l93 -290l90 372h112l89 -372l93 290h-62z" />
    <glyph glyph-name="x" unicode="x" horiz-adv-x="558" 
d="M322 0v82h37l-77 107l-85 -107h37v-82h-227v82h64l144 183l-131 161h-58v82h230v-82h-40l66 -89l71 89h-38v82h222v-82h-58l-131 -161l144 -183h59v-82h-229z" />
    <glyph glyph-name="y" unicode="y" horiz-adv-x="567" 
d="M-5 426v82h243v-82h-52l118 -296l94 296h-52v82h226v-82h-61l-216 -611h-171v82h92l35 94l-201 435h-55z" />
    <glyph glyph-name="z" unicode="z" horiz-adv-x="509" 
d="M476 0h-443v82l281 344h-181v-87h-82v169h403v-82l-281 -344h221v100h82v-182z" />
    <glyph glyph-name="braceleft" unicode="{" horiz-adv-x="366" 
d="M75 215l-0.000976562 84.001c59.333 8 89 50 89 126c0 12 -0.666992 26.5 -2 43.5s-2 38.167 -2 63.5c0 34.667 5.83301 64.167 17.5 88.5s26.667 41.666 45 51.999s35 17.5 50 21.5s29.5 6 43.5 6v-66c-27.333 -12.667 -41 -40.334 -41 -83.001c0 -16.667 1 -34 3 -52
c2.66699 -16.667 4 -35.667 4 -57c0 -93.333 -43.667 -154.666 -131 -183.999v-2c86.667 -29.333 130 -91.333 130 -186c0 -20 -1 -38.333 -3 -55c-2 -18 -3 -35.333 -3 -52c0 -42.667 13.667 -70.334 41 -83.001v-66c-10.667 0 -21.667 0.833008 -33 2.5
s-24.666 6 -39.999 13s-28.833 16.167 -40.5 27.5s-21.667 27.833 -30 49.5s-12.5 46.834 -12.5 75.501c0 25.333 0.666992 46.5 2 63.5s2 31.5 2 43.5c0 76 -29.667 118 -89 126z" />
    <glyph glyph-name="bar" unicode="|" horiz-adv-x="498" 
d="M208 -224v1053h82v-1053h-82z" />
    <glyph glyph-name="braceright" unicode="}" horiz-adv-x="366" 
d="M291 299l-0.000976562 -84.001c-59.333 -8 -89 -50 -89 -126c0 -12 0.666992 -26.5 2 -43.5s2 -38.167 2 -63.5c0 -28.667 -4.16699 -53.834 -12.5 -75.501s-18.333 -38.167 -30 -49.5s-25.167 -20.5 -40.5 -27.5s-28.666 -11.333 -39.999 -13s-22.333 -2.5 -33 -2.5v66
c27.333 12.667 41 40.334 41 83.001c0 16.667 -1 34 -3 52c-2.66699 16.667 -4 35.667 -4 57c0 93.333 43.667 154.666 131 183.999v2c-86.667 29.333 -130 91.333 -130 186c0 20 1 38.333 3 55c2 18 3 35.333 3 52c0 42.667 -13.667 70.334 -41 83.001v66
c14 0 28.5 -2 43.5 -6s31.667 -11.167 50 -21.5s33.333 -27.666 45 -51.999s17.5 -53.833 17.5 -88.5c0 -25.333 -0.666992 -46.5 -2 -63.5s-2 -31.5 -2 -43.5c0 -76 29.667 -118 89 -126z" />
    <glyph glyph-name="asciitilde" unicode="~" horiz-adv-x="614" 
d="M96 278l-46 19c32.667 94.667 79.334 142 140.001 142c34.667 0 64.667 -7.66699 90 -23l103 -55c16.667 -8.66699 33.334 -13 50.001 -13c37.333 0 65.666 28 84.999 84l46 -19c-32.667 -94.667 -79.334 -142 -140.001 -142c-34.667 0 -64.667 7.66699 -90 23l-103 55
c-14.667 8.66699 -32 13 -52 13s-37 -8 -51 -24s-24.667 -36 -32 -60z" />
    <glyph glyph-name="Zcaron" horiz-adv-x="635" 
d="M492 246h106v-246h-561v114l378 480h-253v-119h-106v225h520v-98l-378 -496h294v140zM317 806l100 94h120l-134 -140h-172l-134 140h120z" />
    <glyph glyph-name="Zcaron" unicode="&#x17d;" horiz-adv-x="635" 
d="M492 246h106v-246h-561v114l378 480h-253v-119h-106v225h520v-98l-378 -496h294v140zM317 806l100 94h120l-134 -140h-172l-134 140h120z" />
    <glyph glyph-name="zcaron" horiz-adv-x="509" 
d="M476 0h-443v82l281 344h-181v-87h-82v169h403v-82l-281 -344h221v100h82v-182zM252 611l90 89h110l-120 -132h-160l-120 132h110z" />
    <glyph glyph-name="zcaron" unicode="&#x17e;" horiz-adv-x="509" 
d="M476 0h-443v82l281 344h-181v-87h-82v169h403v-82l-281 -344h221v100h82v-182zM252 611l90 89h110l-120 -132h-160l-120 132h110z" />
    <glyph glyph-name="uni00A0" unicode="&#xa0;" horiz-adv-x="233" 
 />
    <glyph glyph-name="exclamdown" unicode="&#xa1;" horiz-adv-x="344" 
d="M238 -192h-132v241l34 240h64l34 -240v-241zM238 508v-135h-132v135h132z" />
    <glyph glyph-name="cent" unicode="&#xa2;" 
d="M531 339l-84.001 -0.000976562c-2.66699 24.667 -12.334 46.834 -29.001 66.501s-39.334 32.167 -68.001 37.5v-378c29.333 7.33301 50.5 22.666 63.5 45.999s20.5 48.333 22.5 75h114c-2 -20 -6.66699 -39.667 -14 -59s-18 -39.666 -32 -60.999s-34.333 -39.5 -61 -54.5
s-57.667 -24.833 -93 -29.5v-74h-67v73c-75.333 5.33301 -132.166 32.166 -170.499 80.499s-57.5 112.166 -57.5 191.499c0 46 5.66699 86.167 17 120.5s24.833 60.833 40.5 79.5s34.834 33.834 57.501 45.501s42.334 19.334 59.001 23.001s34.667 5.83398 54 6.50098v66h67
v-71c41.333 -8.66699 74.333 -27.334 99 -56.001v41h82v-169zM182.999 252.999c0 -107.333 33.333 -169.333 100 -186v375c-66.667 -13.333 -100 -76.333 -100 -189z" />
    <glyph glyph-name="sterling" unicode="&#xa3;" 
d="M476 700h95.9971v-226h-122v16c0 45.333 -11.667 81.5 -35 108.5s-53.333 40.5 -90 40.5c-42.667 0 -74.334 -13 -95.001 -39s-31 -57.333 -31 -94c0 -8.66699 0.5 -17 1.5 -25s3.33301 -16.833 7 -26.5l8.5 -22.5c2 -5.33301 6 -14.833 12 -28.5
s10.333 -23.167 13 -28.5h130v-82h-98c2 -7.33301 3 -21 3 -41c0 -46.667 -22.333 -89.667 -67 -129l2 -4c14.667 7.33301 36.334 11 65.001 11c19.333 0 45.333 -7.16699 78 -21.5s59.334 -21.5 80.001 -21.5c31.333 0 59.666 17.667 84.999 53l61 -84
c-48 -51.333 -97.667 -77 -149 -77c-32 0 -68 9 -108 27s-73.667 27 -101 27c-38 0 -75.667 -12.667 -113 -38l-59 87c30.667 20 54.334 41 71.001 63s26.334 39.5 29.001 52.5s4 27.833 4 44.5c0 20.667 -4 37.667 -12 51h-109v82h75c-24.667 35.333 -37 77 -37 125
c0 64.667 19.833 117.667 59.5 159s102.167 62 187.5 62c76.667 0 129.334 -24.667 158.001 -74v53z" />
    <glyph glyph-name="currency" unicode="&#xa4;" 
d="M15 327c0 58 16.668 112.333 50.001 163l-106 107l72 72l105 -106c49.333 34.667 104 52 164 52s114.667 -17.333 164 -52l106 106l72 -72l-107 -107c34 -50 51 -104.333 51 -163c0 -60 -17 -115 -51 -165l107 -107l-72 -72l-107 107c-50 -34 -104.333 -51 -163 -51
c-60.667 0 -114.334 16.667 -161.001 50l-108 -106l-72 72l107 107c-34 50 -51 105 -51 165zM101.001 327c0 -54.667 19.667 -102 59 -142s86.333 -60 141 -60c54 0 100.667 20 140 60s59 87.333 59 142s-19.667 102 -59 142s-86 60 -140 60
c-54.667 0 -101.667 -20 -141 -60s-59 -87.333 -59 -142z" />
    <glyph glyph-name="yen" unicode="&#xa5;" 
d="M475 222h-110v-39h110v-58h-110v-39h69v-86h-266v86h69v39h-110v58h110v39h-110v58h109l-182 314h-65v106h269v-106h-56l102 -211l101 211h-56v106h263v-106h-65l-182 -314h110v-58z" />
    <glyph glyph-name="brokenbar" unicode="&#xa6;" horiz-adv-x="498" 
d="M208 176h82v-400h-82v400zM290 429h-82v400h82v-400z" />
    <glyph glyph-name="section" unicode="&#xa7;" horiz-adv-x="584" 
d="M80 29l121.001 0.000976562c-2 -29.333 2.83301 -53.166 14.5 -71.499s30.5 -27.5 56.5 -27.5c18 0 34.5 5.33301 49.5 16s22.5 26 22.5 46c0 6 -0.666992 11.667 -2 17s-2.66602 10 -3.99902 14s-3.66602 8.33301 -6.99902 13l-8 11
c-2 2.66699 -5.83301 5.83398 -11.5 9.50098s-9.5 6.33398 -11.5 8.00098s-6.5 4.16699 -13.5 7.5s-11.667 5.5 -14 6.5s-7.33301 3.33301 -15 7s-12.5 5.83398 -14.5 6.50098c-58 25.333 -102.333 53.833 -133 85.5s-46 75.5 -46 131.5c0 36 10 68.333 30 97
s45 47.667 75 57c-27.333 27.333 -41 61.666 -41 102.999c0 44.667 13.333 81.667 40 111s69.667 44 129 44c14.667 0 33.334 -3.83301 56.001 -11.5s38.667 -19.834 48 -36.501v27h96v-146h-121c1.33301 32 -5.33398 54.167 -20.001 66.5s-31.334 18.5 -50.001 18.5
c-20.667 0 -35.5 -6.33301 -44.5 -19s-13.5 -26.334 -13.5 -41.001c0 -13.333 2.66699 -25.333 8 -36s14.5 -20.5 27.5 -29.5s23.167 -15.333 30.5 -19s20.333 -9.83398 39 -18.501c3.33301 -1.33301 11.666 -5.33301 24.999 -12s22.166 -11.167 26.499 -13.5l24 -13.5
c11.667 -6.66699 20 -12.334 25 -17.001l21 -19c9 -8 15.5 -15.833 19.5 -23.5s8.33301 -16.667 13 -27s8 -21.666 10 -33.999s3 -25.5 3 -39.5c0 -80.667 -37.667 -135.334 -113 -164.001c38 -25.333 57 -62.333 57 -111c0 -44 -14.667 -80.667 -44 -110
s-75.333 -44 -138 -44c-52.667 0 -88 16.333 -106 49v-34h-96v166zM252.001 219.001l85 -49c36.667 22 55 51 55 87c0 43.333 -20.333 75 -61 95l-87 49c-34.667 -16.667 -52 -44.667 -52 -84c0 -45.333 20 -78 60 -98z" />
    <glyph glyph-name="dieresis" unicode="&#xa8;" horiz-adv-x="406" 
d="M50 594v106h116v-106h-116zM240 594v106h116v-106h-116z" />
    <glyph glyph-name="copyright" unicode="&#xa9;" horiz-adv-x="800" 
d="M50 350c0 96.667 34 179.167 102 247.5s150.667 102.5 248 102.5c96 0 178.333 -34.167 247 -102.5s103 -150.833 103 -247.5s-34.333 -179.167 -103 -247.5s-151 -102.5 -247 -102.5c-97.333 0 -180 34.167 -248 102.5s-102 150.833 -102 247.5zM130 350
c0 -76.667 26.167 -142.5 78.5 -197.5s116.166 -82.5 191.499 -82.5c73.333 0 136.5 27.333 189.5 82s79.5 120.667 79.5 198s-26.5 143.333 -79.5 198s-116.167 82 -189.5 82c-75.333 0 -139.166 -27.5 -191.499 -82.5s-78.5 -120.833 -78.5 -197.5zM473 531h63.001v-107
h-76c0 14.667 -5.33301 27.167 -16 37.5s-25.334 15.5 -44.001 15.5c-52 0 -78 -42 -78 -126c0 -78 27.667 -117 83 -117c38 0 58 21 60 63h80c-3.33301 -33.333 -15.833 -62.5 -37.5 -87.5s-56.167 -37.5 -103.5 -37.5c-55.333 0 -97.5 16.333 -126.5 49
s-43.5 76 -43.5 130c0 68.667 15.667 117.167 47 145.5s69 42.5 113 42.5c36 0 62.333 -10.667 79 -32v24z" />
    <glyph glyph-name="ordfeminine" unicode="&#xaa;" horiz-adv-x="400" 
d="M123 615l-62 0.00195312c0 28 10.167 52.667 30.5 74s55.5 32 105.5 32c28.667 0 52.5 -3.5 71.5 -10.5s32 -16.833 39 -29.5s11.5 -23.334 13.5 -32.001s3 -19 3 -31v-160h31v-54h-87v38c-22 -28 -58 -42 -108 -42c-72.667 0 -109 30 -109 90
c0 32.667 10.5 55.334 31.5 68.001s55.5 22 103.5 28c2.66699 0 6.5 0.166992 11.5 0.5s9 0.666016 12 0.999023s6.66699 0.666016 11 0.999023s7.83301 0.833008 10.5 1.5s5.66699 1.5 9 2.5s6 2.16699 8 3.5s3.83301 2.83301 5.5 4.5s3.16699 3.66699 4.5 6
s2 4.83301 2 7.5v8c0 30 -21.333 45 -64 45c-26 0 -44.833 -5 -56.5 -15s-17.167 -22.333 -16.5 -37zM260 533.002v19c-8 -5.33301 -29 -9.66602 -63 -12.999c-2 0 -7.5 -0.666992 -16.5 -2s-15.333 -2.33301 -19 -3s-9 -2.16699 -16 -4.5s-12.167 -5 -15.5 -8
s-6.33301 -7 -9 -12s-4 -10.833 -4 -17.5c0 -25.333 19 -38 57 -38c5.33301 0 11.5 0.666992 18.5 2s16.333 4.16602 28 8.49902s21.167 12.5 28.5 24.5s11 26.667 11 44zM45 300.002v54h310v-54h-310z" />
    <glyph glyph-name="guillemotleft" unicode="&#xab;" horiz-adv-x="462" 
d="M116 270l95 -81v-106l-149 132v110l149 132v-106zM292 270l95 -81v-106l-149 132v110l149 132v-106z" />
    <glyph glyph-name="logicalnot" unicode="&#xac;" 
d="M50 405h500v-225h-86v139h-414v86z" />
    <glyph glyph-name="uni00AD" unicode="&#xad;" horiz-adv-x="420" 
d="M70 216v106h280v-106h-280z" />
    <glyph glyph-name="registered" unicode="&#xae;" horiz-adv-x="634" 
d="M50 433c0 73.333 26.167 136.166 78.5 188.499s115.166 78.5 188.499 78.5s136.166 -26.167 188.499 -78.5s78.5 -115.166 78.5 -188.499s-26.167 -136.166 -78.5 -188.499s-115.166 -78.5 -188.499 -78.5s-136.166 26.167 -188.499 78.5s-78.5 115.166 -78.5 188.499z
M363 314l-54 95.998h-30v-52h21v-44h-107v44h26v161h-26v44h159c20.667 0 39.667 -6.5 57 -19.5s26 -31.5 26 -55.5c0 -15.333 -5.33301 -29.666 -16 -42.999s-25.667 -22.666 -45 -27.999l38 -59h27v-44h-76zM279 518.998v-67h34c32.667 0 49 11.667 49 35
c0 21.333 -18 32 -54 32h-29zM119 431.998c0 -56 18.833 -103.333 56.5 -142s84.5 -58 140.5 -58c55.333 0 102.166 19.333 140.499 58s57.5 86 57.5 142s-19.167 103.667 -57.5 143s-85.166 59 -140.499 59s-102 -19.667 -140 -59s-57 -87 -57 -143z" />
    <glyph glyph-name="overscore" unicode="&#xaf;" horiz-adv-x="430" 
d="M50 602v82h330v-82h-330z" />
    <glyph glyph-name="degree" unicode="&#xb0;" horiz-adv-x="300" 
d="M50 600c0 28 9.66699 51.667 29 71s43 29 71 29c27.333 0 50.833 -9.83301 70.5 -29.5s29.5 -43.167 29.5 -70.5c0 -28 -9.66699 -51.667 -29 -71s-43 -29 -71 -29c-28.667 0 -52.5 9.5 -71.5 28.5s-28.5 42.833 -28.5 71.5zM104 600c0 -13.333 4.33301 -24.333 13 -33
s19.667 -13 33 -13s24.333 4.33301 33 13s13 19.667 13 33s-4.33301 24.333 -13 33s-19.667 13 -33 13s-24.333 -4.33301 -33 -13s-13 -19.667 -13 -33z" />
    <glyph glyph-name="plusminus" unicode="&#xb1;" 
d="M50 463h207v187h86v-187h207v-86h-207v-167h-86v167h-207v86zM50 166h500v-86h-500v86z" />
    <glyph glyph-name="twosuperior" unicode="&#xb2;" horiz-adv-x="372" 
d="M204 420l-10.9951 -6.99512l-10.5 -6.5c-1.66699 -1 -4.83398 -3 -9.50098 -6l-10 -6.5c-2 -1.33301 -4.83301 -3.5 -8.5 -6.5s-6.5 -5.5 -8.5 -7.5s-4.5 -4.66699 -7.5 -8s-5.5 -6.33301 -7.5 -9s-4.16699 -5.83398 -6.5 -9.50098s-4.5 -7.5 -6.5 -11.5h162v69h62v-131
h-307c0.666992 24.667 4 46 10 64s16.5 34.667 31.5 50s27.5 26.666 37.5 33.999s27.333 18.666 52 33.999c6 4 10.667 7 14 9c1.33301 0.666992 5 3 11 7s9.83301 6.66699 11.5 8l10.5 8c5.33301 4 9.16602 7 11.499 9s5.66602 5.16699 9.99902 9.5s7.5 8 9.5 11l7.5 11.5
c3 4.66699 5.16699 9 6.5 13s2.5 8.66699 3.5 14s1.5 10.666 1.5 15.999c0 18 -5.83301 34.667 -17.5 50s-31.5 23 -59.5 23c-54 0 -81 -26.667 -81 -80v-12h-70v13c0 37.333 11.833 70.166 35.5 98.499s62.5 42.5 116.5 42.5c48.667 0 85.834 -12.667 111.501 -38
s38.5 -56.333 38.5 -93c0 -12 -1 -23.167 -3 -33.5s-6.16699 -20.333 -12.5 -30l-15 -23c-3.66699 -5.66699 -11.334 -13 -23.001 -22l-23 -17.5c-3.66699 -2.66699 -13.334 -9 -29.001 -19s-24.834 -15.667 -27.501 -17z" />
    <glyph glyph-name="threesuperior" unicode="&#xb3;" horiz-adv-x="372" 
d="M34 415l70 0.000976562c0 -20.667 5.83301 -40.167 17.5 -58.5s32.5 -27.5 62.5 -27.5c28 0 48.333 6.66699 61 20s19 30.666 19 51.999c0 14.667 -3 27 -9 37s-14 16.667 -24 20s-17.833 5.5 -23.5 6.5s-11.5 1.5 -17.5 1.5h-31v64h27c46.667 0 70 21.667 70 65
c0 19.333 -6.83301 33.5 -20.5 42.5s-30.5 13.5 -50.5 13.5c-21.333 0 -38 -6.33301 -50 -19s-18.667 -35 -20 -67h-70c0 42 10.833 77.167 32.5 105.5s58.167 42.5 109.5 42.5c39.333 0 72.333 -9.66699 99 -29s40 -48.333 40 -87c0 -46.667 -24 -77.667 -72 -93v-4
c56 -8 84 -42.333 84 -103c0 -44 -14.833 -76.667 -44.5 -98s-66.5 -32 -110.5 -32c-28 0 -52.333 4.83301 -73 14.5s-36.167 22.5 -46.5 38.5s-17.833 31.833 -22.5 47.5s-7 31.5 -7 47.5z" />
    <glyph glyph-name="acute" unicode="&#xb4;" horiz-adv-x="340" 
d="M166 700h130l-110 -132h-90z" />
    <glyph glyph-name="mu" unicode="&#xb5;" horiz-adv-x="670" 
d="M331 71c26 0 47.668 6.50098 65.001 19.501s29.166 30.167 35.499 51.5s10.333 38.666 12 51.999s2.5 27.333 2.5 42v190h-64v82h184v-426h64v-82h-184v67h-2c-25.333 -58 -66 -87 -122 -87c-47.333 0 -80 21.667 -98 65v-230h-120v611h-64v82h184v-284
c0 -102 35.667 -153 107 -153z" />
    <glyph glyph-name="mu" unicode="&#x3bc;" horiz-adv-x="670" 
d="M331 71c26 0 47.668 6.50098 65.001 19.501s29.166 30.167 35.499 51.5s10.333 38.666 12 51.999s2.5 27.333 2.5 42v190h-64v82h184v-426h64v-82h-184v67h-2c-25.333 -58 -66 -87 -122 -87c-47.333 0 -80 21.667 -98 65v-230h-120v611h-64v82h184v-284
c0 -102 35.667 -153 107 -153z" />
    <glyph glyph-name="paragraph" unicode="&#xb6;" horiz-adv-x="561" 
d="M388 -185v803h-107v-803h-82v525c-54 0 -97.333 16.833 -130 50.5s-49 76.834 -49 129.501c0 57.333 16.167 101.666 48.5 132.999s75.833 47 130.5 47h352v-82h-81v-803h-82z" />
    <glyph glyph-name="middot" unicode="&#xb7;" horiz-adv-x="250" 
d="M59 200v135h132v-135h-132z" />
    <glyph glyph-name="cedilla" unicode="&#xb8;" horiz-adv-x="320" 
d="M50 -232l19 61c18.667 -6 38 -9 58 -9c35.333 0 53 11.333 53 34c0 18.667 -17.333 28 -52 28h-43l18 60h46c80.667 0 121 -30 121 -90c0 -61.333 -47 -92 -141 -92c-26 0 -52.333 2.66699 -79 8z" />
    <glyph glyph-name="onesuperior" unicode="&#xb9;" horiz-adv-x="372" 
d="M85 638v62h157v-358h83v-62h-240v62h83v296h-83z" />
    <glyph glyph-name="ordmasculine" unicode="&#xba;" horiz-adv-x="390" 
d="M45 557c0 17.333 2 34.333 6 51s10.833 34 20.5 52s25.167 32.667 46.5 44s47 17 77 17s55.667 -5.66699 77 -17s36.833 -26 46.5 -44s16.5 -35.333 20.5 -52s6 -33.667 6 -51s-2 -34.333 -6 -51s-10.833 -34 -20.5 -52s-25.167 -32.667 -46.5 -44s-47 -17 -77 -17
s-55.667 5.66699 -77 17s-36.833 26 -46.5 44s-16.5 35.333 -20.5 52s-6 33.667 -6 51zM113 557c0 -73.333 27.333 -110 82 -110s82 36.667 82 110s-27.333 110 -82 110s-82 -36.667 -82 -110zM45 300v54h300v-54h-300z" />
    <glyph glyph-name="guillemotright" unicode="&#xbb;" horiz-adv-x="462" 
d="M345 270l-94 81v106l149 -132v-110l-149 -132v106zM169 270l-94 81v106l149 -132v-110l-149 -132v106z" />
    <glyph glyph-name="onequarter" unicode="&#xbc;" horiz-adv-x="851" 
d="M599 0v57h58v42h-202v57l202 264h74v-264h60v-57h-60v-42h58v-57h-190zM528 156h129v171zM167 0l428 700h72l-428 -700h-72zM55 638v62h157v-358h83v-62h-240v62h83v296h-83z" />
    <glyph glyph-name="onehalf" unicode="&#xbd;" horiz-adv-x="840" 
d="M167 0l428 700h72l-428 -700h-72zM55 638v62h157v-358h83v-62h-240v62h83v296h-83zM672 140l-10.9951 -6.99512l-10.5 -6.5c-1.66699 -1 -4.83398 -3 -9.50098 -6l-10 -6.5c-2 -1.33301 -4.83301 -3.5 -8.5 -6.5s-6.5 -5.5 -8.5 -7.5s-4.5 -4.66699 -7.5 -8
s-5.5 -6.33301 -7.5 -9s-4.16699 -5.83398 -6.5 -9.50098s-4.5 -7.5 -6.5 -11.5h162v69h62v-131h-307c0.666992 24.667 4 46 10 64s16.5 34.667 31.5 50s27.5 26.666 37.5 33.999s27.333 18.666 52 33.999c6 4 10.667 7 14 9c1.33301 0.666992 5 3 11 7
s9.83301 6.66699 11.5 8l10.5 8c5.33301 4 9.16602 7 11.499 9s5.66602 5.16699 9.99902 9.5s7.5 8 9.5 11l7.5 11.5c3 4.66699 5.16699 9 6.5 13s2.5 8.66699 3.5 14s1.5 10.666 1.5 15.999c0 18 -5.83301 34.667 -17.5 50s-31.5 23 -59.5 23c-54 0 -81 -26.667 -81 -80
v-12h-70v13c0 37.333 11.833 70.166 35.5 98.499s62.5 42.5 116.5 42.5c48.667 0 85.834 -12.667 111.501 -38s38.5 -56.333 38.5 -93c0 -12 -1 -23.167 -3 -33.5s-6.16699 -20.333 -12.5 -30l-15 -23c-3.66699 -5.66699 -11.334 -13 -23.001 -22l-23 -17.5
c-3.66699 -2.66699 -13.334 -9 -29.001 -19s-24.834 -15.667 -27.501 -17z" />
    <glyph glyph-name="threequarters" unicode="&#xbe;" horiz-adv-x="876" 
d="M624 0v57h58v42h-202v57l202 264h74v-264h60v-57h-60v-42h58v-57h-190zM553 156h129v171zM34 415l70 0.000976562c0 -20.667 5.83301 -40.167 17.5 -58.5s32.5 -27.5 62.5 -27.5c28 0 48.333 6.66699 61 20s19 30.666 19 51.999c0 14.667 -3 27 -9 37s-14 16.667 -24 20
s-17.833 5.5 -23.5 6.5s-11.5 1.5 -17.5 1.5h-31v64h27c46.667 0 70 21.667 70 65c0 19.333 -6.83301 33.5 -20.5 42.5s-30.5 13.5 -50.5 13.5c-21.333 0 -38 -6.33301 -50 -19s-18.667 -35 -20 -67h-70c0 42 10.833 77.167 32.5 105.5s58.167 42.5 109.5 42.5
c39.333 0 72.333 -9.66699 99 -29s40 -48.333 40 -87c0 -46.667 -24 -77.667 -72 -93v-4c56 -8 84 -42.333 84 -103c0 -44 -14.833 -76.667 -44.5 -98s-66.5 -32 -110.5 -32c-28 0 -52.333 4.83301 -73 14.5s-36.167 22.5 -46.5 38.5s-17.833 31.833 -22.5 47.5
s-7 31.5 -7 47.5zM202 0.000976562l428 700h72l-428 -700h-72z" />
    <glyph glyph-name="questiondown" unicode="&#xbf;" horiz-adv-x="576" 
d="M360 508v-135h-132v135h132zM399 24h122.998c0.666992 -26 -2 -51.5 -8 -76.5s-17 -50.167 -33 -75.5s-41 -45.833 -75 -61.5s-75 -23.5 -123 -23.5c-79.333 0 -137.666 19 -174.999 57s-56 84.333 -56 139c0 37.333 8.16699 67.666 24.5 90.999s39.833 47 70.5 71
c39.333 30 65 52.667 77 68s18 36 18 62v18h100c0 -36.667 -2.16699 -64 -6.5 -82s-16.166 -38.333 -35.499 -61c-8 -9.33301 -23.333 -23.166 -46 -41.499s-40.334 -36.5 -53.001 -54.5s-19 -39 -19 -63c0 -28.667 8.33301 -52.167 25 -70.5s42.667 -27.5 78 -27.5
c34.667 0 62.834 10 84.501 30s31.5 53.667 29.5 101z" />
    <glyph glyph-name="Agrave" unicode="&#xc0;" horiz-adv-x="726" 
d="M207 599v101h225l224 -594h70v-106h-269v96h65l-21 61h-274l-21 -61h57v-96h-263v106h80l187 493h-60zM363 574l-106 -314h210zM344 900l78 -140h-96l-118 140h136z" />
    <glyph glyph-name="Aacute" unicode="&#xc1;" horiz-adv-x="726" 
d="M207 599v101h225l224 -594h70v-106h-269v96h65l-21 61h-274l-21 -61h57v-96h-263v106h80l187 493h-60zM363 574l-106 -314h210zM375 900h136l-118 -140h-96z" />
    <glyph glyph-name="Acircumflex" unicode="&#xc2;" horiz-adv-x="726" 
d="M207 599v101h225l224 -594h70v-106h-269v96h65l-21 61h-274l-21 -61h57v-96h-263v106h80l187 493h-60zM363 574l-106 -314h210zM348 854l-100 -94h-120l134 140h172l134 -140h-120z" />
    <glyph glyph-name="Atilde" unicode="&#xc3;" horiz-adv-x="726" 
d="M207 599v101h225l224 -594h70v-106h-269v96h65l-21 61h-274l-21 -61h57v-96h-263v106h80l187 493h-60zM363 574l-106 -314h210zM479 876h80.0029c-16.667 -77.333 -59.667 -116 -129 -116c-22.667 0 -51 7.33301 -85 22c-36 14.667 -61.667 22 -77 22
c-30.667 0 -47.667 -12 -51 -36h-80c4.66699 32 17.667 59.333 39 82s51.333 34 90 34c25.333 0 53.666 -6.66699 84.999 -20l22 -9c8 -3.33301 14.167 -6 18.5 -8s9.66602 -3.66699 15.999 -5s13.166 -2 20.499 -2c30 0 47 12 51 36z" />
    <glyph glyph-name="Adieresis" unicode="&#xc4;" horiz-adv-x="726" 
d="M207 599v101h225l224 -594h70v-106h-269v96h65l-21 61h-274l-21 -61h57v-96h-263v106h80l187 493h-60zM363 574l-106 -314h210zM165 772v96h128v-96h-128zM403 772v96h128v-96h-128z" />
    <glyph glyph-name="Aring" unicode="&#xc5;" horiz-adv-x="726" 
d="M207 599v101h225l224 -594h70v-106h-269v96h65l-21 61h-274l-21 -61h57v-96h-263v106h80l187 493h-60zM363 574l-106 -314h210zM248 820c0 28 9.66699 51.667 29 71s43 29 71 29c27.333 0 50.833 -9.83301 70.5 -29.5s29.5 -43.167 29.5 -70.5
c0 -28 -9.66699 -51.667 -29 -71s-43 -29 -71 -29c-28.667 0 -52.5 9.5 -71.5 28.5s-28.5 42.833 -28.5 71.5zM304 820c0 -12 4.33301 -22.333 13 -31s19 -13 31 -13s22.333 4.33301 31 13s13 19 13 31s-4.33301 22.333 -13 31s-19 13 -31 13s-22.333 -4.33301 -31 -13
s-13 -19 -13 -31z" />
    <glyph glyph-name="AE" unicode="&#xc6;" horiz-adv-x="1088" 
d="M283 594v106h764v-225h-106v119h-291v-182h245v-106h-245v-200h302v136h106v-242h-605v96h69v58h-278l-32 -58h62v-96h-274v106h75l277 488h-69zM522 260v334h-42l-180 -334h222z" />
    <glyph glyph-name="Ccedilla" unicode="&#xc7;" horiz-adv-x="733" 
d="M569 700l105.992 -0.000976562v-225h-106c-4.66699 36.667 -21.667 69.167 -51 97.5s-73.666 42.5 -132.999 42.5c-37.333 0 -69.666 -7.16699 -96.999 -21.5s-48.5 -34.5 -63.5 -60.5s-25.833 -54.5 -32.5 -85.5s-10 -65.833 -10 -104.5
c0 -80.667 19.833 -143.834 59.5 -189.501s91.834 -68.5 156.501 -68.5c54 0 95.167 15.167 123.5 45.5s43.833 66.5 46.5 108.5h127c-2.66699 -24 -7 -46.833 -13 -68.5s-16.167 -44.667 -30.5 -69s-32.166 -45.166 -53.499 -62.499s-49.666 -31.666 -84.999 -42.999
s-75.666 -17 -120.999 -17c-12.667 0 -25 0.333008 -37 1s-30.333 3.5 -55 8.5s-47.167 11.667 -67.5 20s-42.666 21.5 -66.999 39.5s-44.833 39.167 -61.5 63.5s-30.667 56 -42 95s-17 82.833 -17 131.5c0 69.333 8.83301 129.5 26.5 180.5s42.334 90.833 74.001 119.5
s66.5 49.667 104.5 63s80 20 126 20c84 0 148.333 -26.667 193 -80v59zM248.992 -251.001l20.999 68c20.667 -6.66699 42 -10 64 -10c39.333 0 59 12.333 59 37c0 20.667 -18 31 -54 31h-3h-48l20 67h51c89.333 0 134 -33.333 134 -100c0 -68 -52 -102 -156 -102
c-29.333 0 -58.666 3 -87.999 9z" />
    <glyph glyph-name="Egrave" unicode="&#xc8;" horiz-adv-x="690" 
d="M55 594v106h594v-225h-106v119h-291v-182h245v-106h-245v-200h302v136h106v-242h-605v106h69v488h-69zM361 900l78 -140h-96l-118 140h136z" />
    <glyph glyph-name="Eacute" unicode="&#xc9;" horiz-adv-x="690" 
d="M55 594v106h594v-225h-106v119h-291v-182h245v-106h-245v-200h302v136h106v-242h-605v106h69v488h-69zM355 900h136l-118 -140h-96z" />
    <glyph glyph-name="Ecircumflex" unicode="&#xca;" horiz-adv-x="690" 
d="M55 594v106h594v-225h-106v119h-291v-182h245v-106h-245v-200h302v136h106v-242h-605v106h69v488h-69zM358 854l-100 -94h-120l134 140h172l134 -140h-120z" />
    <glyph glyph-name="Edieresis" unicode="&#xcb;" horiz-adv-x="690" 
d="M55 594v106h594v-225h-106v119h-291v-182h245v-106h-245v-200h302v136h106v-242h-605v106h69v488h-69zM175 772v96h128v-96h-128zM413 772v96h128v-96h-128z" />
    <glyph glyph-name="Igrave" unicode="&#xcc;" horiz-adv-x="376" 
d="M55 594v106h266v-106h-69v-488h69v-106h-266v106h69v488h-69zM171 900l78 -140h-96l-118 140h136z" />
    <glyph glyph-name="Iacute" unicode="&#xcd;" horiz-adv-x="376" 
d="M55 594v106h266v-106h-69v-488h69v-106h-266v106h69v488h-69zM198 900h136l-118 -140h-96z" />
    <glyph glyph-name="Icircumflex" unicode="&#xce;" horiz-adv-x="376" 
d="M55 594v106h266v-106h-69v-488h69v-106h-266v106h69v488h-69zM189 854l-100 -94h-120l134 140h172l134 -140h-120z" />
    <glyph glyph-name="Idieresis" unicode="&#xcf;" horiz-adv-x="376" 
d="M55 594v106h266v-106h-69v-488h69v-106h-266v106h69v488h-69zM6 772v96h128v-96h-128zM244 772v96h128v-96h-128z" />
    <glyph glyph-name="Eth" unicode="&#xd0;" horiz-adv-x="785" 
d="M55 594v105.999h343c54.667 0 103.167 -7.66699 145.5 -23s75.666 -34.5 99.999 -57.5s44.166 -50.667 59.499 -83s25.5 -63.166 30.5 -92.499s7.5 -60 7.5 -92c0 -59.333 -8.66699 -111.333 -26 -156s-38.666 -79 -63.999 -103s-55.666 -43.5 -90.999 -58.5
s-67.333 -24.5 -96 -28.5s-59 -6 -91 -6h-318v106h69v225h-94v82h94v181h-69zM252 593.999v-180.999h198v-82h-198v-225h115c17.333 0 33.666 0.833008 48.999 2.5s35.5 7.16699 60.5 16.5s46 22 63 38s32 40.167 45 72.5s19.5 70.5 19.5 114.5
c0 40 -5.16699 75.333 -15.5 106s-23.166 54.5 -38.499 71.5s-33.333 30.667 -54 41s-39.5 17.166 -56.5 20.499s-34.5 5 -52.5 5h-135z" />
    <glyph glyph-name="Ntilde" unicode="&#xd1;" horiz-adv-x="848" 
d="M527 594v106h266v-106h-69v-594h-136l-336 497v-391h69v-106h-266v106h69v488h-69v106h205l336 -497v391h-69zM555 876h80.0029c-16.667 -77.333 -59.667 -116 -129 -116c-22.667 0 -51 7.33301 -85 22c-36 14.667 -61.667 22 -77 22c-30.667 0 -47.667 -12 -51 -36h-80
c4.66699 32 17.667 59.333 39 82s51.333 34 90 34c25.333 0 53.666 -6.66699 84.999 -20l22 -9c8 -3.33301 14.167 -6 18.5 -8s9.66602 -3.66699 15.999 -5s13.166 -2 20.499 -2c30 0 47 12 51 36z" />
    <glyph glyph-name="Ograve" unicode="&#xd2;" horiz-adv-x="776" 
d="M45 350c0 49.333 5.5 94.166 16.5 134.499s24.5 73 40.5 98s35.833 46.833 59.5 65.5s45.5 32.5 65.5 41.5s42.333 16 67 21s43.167 8 55.5 9s25.166 1.5 38.499 1.5s26.166 -0.5 38.499 -1.5s30.833 -4 55.5 -9s47 -12 67 -21s41.833 -22.833 65.5 -41.5
s43.5 -40.5 59.5 -65.5s29.5 -57.667 40.5 -98s16.5 -85.166 16.5 -134.499s-5.5 -94.166 -16.5 -134.499s-24.5 -73 -40.5 -98s-35.833 -46.833 -59.5 -65.5s-45.5 -32.5 -65.5 -41.5s-42.333 -16 -67 -21s-43.167 -8 -55.5 -9s-25.166 -1.5 -38.499 -1.5
s-26.166 0.5 -38.499 1.5s-30.833 4 -55.5 9s-47 12 -67 21s-41.833 22.833 -65.5 41.5s-43.5 40.5 -59.5 65.5s-29.5 57.667 -40.5 98s-16.5 85.166 -16.5 134.499zM182 350c0 -30.667 2.83301 -60 8.5 -88s15.5 -56 29.5 -84s35.333 -50.5 64 -67.5
s63.334 -25.5 104.001 -25.5s75.334 8.5 104.001 25.5s50 39.5 64 67.5s23.833 56 29.5 84s8.5 57.333 8.5 88s-2.83301 60 -8.5 88s-15.5 56 -29.5 84s-35.333 50.5 -64 67.5s-63.334 25.5 -104.001 25.5s-75.334 -8.5 -104.001 -25.5s-50 -39.5 -64 -67.5
s-23.833 -56 -29.5 -84s-8.5 -57.333 -8.5 -88zM391 900l78 -140h-96l-118 140h136z" />
    <glyph glyph-name="Oacute" unicode="&#xd3;" horiz-adv-x="776" 
d="M45 350c0 49.333 5.5 94.166 16.5 134.499s24.5 73 40.5 98s35.833 46.833 59.5 65.5s45.5 32.5 65.5 41.5s42.333 16 67 21s43.167 8 55.5 9s25.166 1.5 38.499 1.5s26.166 -0.5 38.499 -1.5s30.833 -4 55.5 -9s47 -12 67 -21s41.833 -22.833 65.5 -41.5
s43.5 -40.5 59.5 -65.5s29.5 -57.667 40.5 -98s16.5 -85.166 16.5 -134.499s-5.5 -94.166 -16.5 -134.499s-24.5 -73 -40.5 -98s-35.833 -46.833 -59.5 -65.5s-45.5 -32.5 -65.5 -41.5s-42.333 -16 -67 -21s-43.167 -8 -55.5 -9s-25.166 -1.5 -38.499 -1.5
s-26.166 0.5 -38.499 1.5s-30.833 4 -55.5 9s-47 12 -67 21s-41.833 22.833 -65.5 41.5s-43.5 40.5 -59.5 65.5s-29.5 57.667 -40.5 98s-16.5 85.166 -16.5 134.499zM182 350c0 -30.667 2.83301 -60 8.5 -88s15.5 -56 29.5 -84s35.333 -50.5 64 -67.5
s63.334 -25.5 104.001 -25.5s75.334 8.5 104.001 25.5s50 39.5 64 67.5s23.833 56 29.5 84s8.5 57.333 8.5 88s-2.83301 60 -8.5 88s-15.5 56 -29.5 84s-35.333 50.5 -64 67.5s-63.334 25.5 -104.001 25.5s-75.334 -8.5 -104.001 -25.5s-50 -39.5 -64 -67.5
s-23.833 -56 -29.5 -84s-8.5 -57.333 -8.5 -88zM385 900h136l-118 -140h-96z" />
    <glyph glyph-name="Ocircumflex" unicode="&#xd4;" horiz-adv-x="776" 
d="M45 350c0 49.333 5.5 94.166 16.5 134.499s24.5 73 40.5 98s35.833 46.833 59.5 65.5s45.5 32.5 65.5 41.5s42.333 16 67 21s43.167 8 55.5 9s25.166 1.5 38.499 1.5s26.166 -0.5 38.499 -1.5s30.833 -4 55.5 -9s47 -12 67 -21s41.833 -22.833 65.5 -41.5
s43.5 -40.5 59.5 -65.5s29.5 -57.667 40.5 -98s16.5 -85.166 16.5 -134.499s-5.5 -94.166 -16.5 -134.499s-24.5 -73 -40.5 -98s-35.833 -46.833 -59.5 -65.5s-45.5 -32.5 -65.5 -41.5s-42.333 -16 -67 -21s-43.167 -8 -55.5 -9s-25.166 -1.5 -38.499 -1.5
s-26.166 0.5 -38.499 1.5s-30.833 4 -55.5 9s-47 12 -67 21s-41.833 22.833 -65.5 41.5s-43.5 40.5 -59.5 65.5s-29.5 57.667 -40.5 98s-16.5 85.166 -16.5 134.499zM182 350c0 -30.667 2.83301 -60 8.5 -88s15.5 -56 29.5 -84s35.333 -50.5 64 -67.5
s63.334 -25.5 104.001 -25.5s75.334 8.5 104.001 25.5s50 39.5 64 67.5s23.833 56 29.5 84s8.5 57.333 8.5 88s-2.83301 60 -8.5 88s-15.5 56 -29.5 84s-35.333 50.5 -64 67.5s-63.334 25.5 -104.001 25.5s-75.334 -8.5 -104.001 -25.5s-50 -39.5 -64 -67.5
s-23.833 -56 -29.5 -84s-8.5 -57.333 -8.5 -88zM388 854l-100 -94h-120l134 140h172l134 -140h-120z" />
    <glyph glyph-name="Otilde" unicode="&#xd5;" horiz-adv-x="776" 
d="M45 350c0 49.333 5.5 94.166 16.5 134.499s24.5 73 40.5 98s35.833 46.833 59.5 65.5s45.5 32.5 65.5 41.5s42.333 16 67 21s43.167 8 55.5 9s25.166 1.5 38.499 1.5s26.166 -0.5 38.499 -1.5s30.833 -4 55.5 -9s47 -12 67 -21s41.833 -22.833 65.5 -41.5
s43.5 -40.5 59.5 -65.5s29.5 -57.667 40.5 -98s16.5 -85.166 16.5 -134.499s-5.5 -94.166 -16.5 -134.499s-24.5 -73 -40.5 -98s-35.833 -46.833 -59.5 -65.5s-45.5 -32.5 -65.5 -41.5s-42.333 -16 -67 -21s-43.167 -8 -55.5 -9s-25.166 -1.5 -38.499 -1.5
s-26.166 0.5 -38.499 1.5s-30.833 4 -55.5 9s-47 12 -67 21s-41.833 22.833 -65.5 41.5s-43.5 40.5 -59.5 65.5s-29.5 57.667 -40.5 98s-16.5 85.166 -16.5 134.499zM182 350c0 -30.667 2.83301 -60 8.5 -88s15.5 -56 29.5 -84s35.333 -50.5 64 -67.5
s63.334 -25.5 104.001 -25.5s75.334 8.5 104.001 25.5s50 39.5 64 67.5s23.833 56 29.5 84s8.5 57.333 8.5 88s-2.83301 60 -8.5 88s-15.5 56 -29.5 84s-35.333 50.5 -64 67.5s-63.334 25.5 -104.001 25.5s-75.334 -8.5 -104.001 -25.5s-50 -39.5 -64 -67.5
s-23.833 -56 -29.5 -84s-8.5 -57.333 -8.5 -88zM519 876h80.0029c-16.667 -77.333 -59.667 -116 -129 -116c-22.667 0 -51 7.33301 -85 22c-36 14.667 -61.667 22 -77 22c-30.667 0 -47.667 -12 -51 -36h-80c4.66699 32 17.667 59.333 39 82s51.333 34 90 34
c25.333 0 53.666 -6.66699 84.999 -20l22 -9c8 -3.33301 14.167 -6 18.5 -8s9.66602 -3.66699 15.999 -5s13.166 -2 20.499 -2c30 0 47 12 51 36z" />
    <glyph glyph-name="Odieresis" unicode="&#xd6;" horiz-adv-x="776" 
d="M45 350c0 49.333 5.5 94.166 16.5 134.499s24.5 73 40.5 98s35.833 46.833 59.5 65.5s45.5 32.5 65.5 41.5s42.333 16 67 21s43.167 8 55.5 9s25.166 1.5 38.499 1.5s26.166 -0.5 38.499 -1.5s30.833 -4 55.5 -9s47 -12 67 -21s41.833 -22.833 65.5 -41.5
s43.5 -40.5 59.5 -65.5s29.5 -57.667 40.5 -98s16.5 -85.166 16.5 -134.499s-5.5 -94.166 -16.5 -134.499s-24.5 -73 -40.5 -98s-35.833 -46.833 -59.5 -65.5s-45.5 -32.5 -65.5 -41.5s-42.333 -16 -67 -21s-43.167 -8 -55.5 -9s-25.166 -1.5 -38.499 -1.5
s-26.166 0.5 -38.499 1.5s-30.833 4 -55.5 9s-47 12 -67 21s-41.833 22.833 -65.5 41.5s-43.5 40.5 -59.5 65.5s-29.5 57.667 -40.5 98s-16.5 85.166 -16.5 134.499zM182 350c0 -30.667 2.83301 -60 8.5 -88s15.5 -56 29.5 -84s35.333 -50.5 64 -67.5
s63.334 -25.5 104.001 -25.5s75.334 8.5 104.001 25.5s50 39.5 64 67.5s23.833 56 29.5 84s8.5 57.333 8.5 88s-2.83301 60 -8.5 88s-15.5 56 -29.5 84s-35.333 50.5 -64 67.5s-63.334 25.5 -104.001 25.5s-75.334 -8.5 -104.001 -25.5s-50 -39.5 -64 -67.5
s-23.833 -56 -29.5 -84s-8.5 -57.333 -8.5 -88zM205 772v96h128v-96h-128zM443 772v96h128v-96h-128z" />
    <glyph glyph-name="multiply" unicode="&#xd7;" 
d="M56 166l183 183l-183 183l61 61l183 -183l183 183l61 -61l-183 -183l183 -183l-61 -61l-183 183l-183 -183z" />
    <glyph glyph-name="Oslash" unicode="&#xd8;" horiz-adv-x="796" 
d="M751 722l-89.999 -111c53.333 -63.333 80 -150.333 80 -261c0 -142 -43.667 -245.667 -131 -311c-56 -40 -126.667 -60 -212 -60c-86.667 0 -155.334 18.667 -206.001 56l-87 -107l-60 50l90 110c-53.333 68 -80 155.333 -80 262c0 142 43.667 245.667 131 311
c56 40 126.667 60 212 60c93.333 0 162 -18.667 206 -56l87 107zM222.001 195l306.001 376.001c-36 29.333 -79.333 44 -130 44c-40.667 0 -75.334 -8.5 -104.001 -25.5s-50 -39.5 -64 -67.5s-23.833 -56 -29.5 -84s-8.5 -57.333 -8.5 -88
c0 -60.667 10 -112.334 30 -155.001zM574.002 505.001l-306.001 -376.002c34.667 -29.333 78 -44 130 -44c40.667 0 75.334 8.5 104.001 25.5s50 39.667 64 68s23.833 56.333 29.5 84s8.5 56.834 8.5 87.501c0 60.667 -10 112.334 -30 155.001z" />
    <glyph glyph-name="Ugrave" unicode="&#xd9;" horiz-adv-x="786" 
d="M485 594l-0.00195312 106h266v-106h-69v-325c0 -19.333 -0.666992 -36.666 -2 -51.999s-4.16602 -33.5 -8.49902 -54.5s-10.5 -39.5 -18.5 -55.5s-19.167 -32.333 -33.5 -49s-31.5 -30.5 -51.5 -41.5s-44.833 -20 -74.5 -27s-63.167 -10.5 -100.5 -10.5
s-70.833 3.5 -100.5 10.5s-54.5 16 -74.5 27s-37.167 24.833 -51.5 41.5s-25.5 33 -33.5 49s-14.167 34.5 -18.5 55.5s-7.16602 39.167 -8.49902 54.5s-2 32.666 -2 51.999v325h-69v106h266v-106h-69v-305c0 -71.333 12.167 -123.166 36.5 -155.499
s65.833 -48.5 124.5 -48.5s100.167 16.167 124.5 48.5s36.5 84.166 36.5 155.499v305h-69zM395.998 900l78 -140h-96l-118 140h136z" />
    <glyph glyph-name="Uacute" unicode="&#xda;" horiz-adv-x="786" 
d="M485 594l-0.00195312 106h266v-106h-69v-325c0 -19.333 -0.666992 -36.666 -2 -51.999s-4.16602 -33.5 -8.49902 -54.5s-10.5 -39.5 -18.5 -55.5s-19.167 -32.333 -33.5 -49s-31.5 -30.5 -51.5 -41.5s-44.833 -20 -74.5 -27s-63.167 -10.5 -100.5 -10.5
s-70.833 3.5 -100.5 10.5s-54.5 16 -74.5 27s-37.167 24.833 -51.5 41.5s-25.5 33 -33.5 49s-14.167 34.5 -18.5 55.5s-7.16602 39.167 -8.49902 54.5s-2 32.666 -2 51.999v325h-69v106h266v-106h-69v-305c0 -71.333 12.167 -123.166 36.5 -155.499
s65.833 -48.5 124.5 -48.5s100.167 16.167 124.5 48.5s36.5 84.166 36.5 155.499v305h-69zM389.998 900h136l-118 -140h-96z" />
    <glyph glyph-name="Ucircumflex" unicode="&#xdb;" horiz-adv-x="786" 
d="M485 594l-0.00195312 106h266v-106h-69v-325c0 -19.333 -0.666992 -36.666 -2 -51.999s-4.16602 -33.5 -8.49902 -54.5s-10.5 -39.5 -18.5 -55.5s-19.167 -32.333 -33.5 -49s-31.5 -30.5 -51.5 -41.5s-44.833 -20 -74.5 -27s-63.167 -10.5 -100.5 -10.5
s-70.833 3.5 -100.5 10.5s-54.5 16 -74.5 27s-37.167 24.833 -51.5 41.5s-25.5 33 -33.5 49s-14.167 34.5 -18.5 55.5s-7.16602 39.167 -8.49902 54.5s-2 32.666 -2 51.999v325h-69v106h266v-106h-69v-305c0 -71.333 12.167 -123.166 36.5 -155.499
s65.833 -48.5 124.5 -48.5s100.167 16.167 124.5 48.5s36.5 84.166 36.5 155.499v305h-69zM392.998 854l-100 -94h-120l134 140h172l134 -140h-120z" />
    <glyph glyph-name="Udieresis" unicode="&#xdc;" horiz-adv-x="786" 
d="M485 594l-0.00195312 106h266v-106h-69v-325c0 -19.333 -0.666992 -36.666 -2 -51.999s-4.16602 -33.5 -8.49902 -54.5s-10.5 -39.5 -18.5 -55.5s-19.167 -32.333 -33.5 -49s-31.5 -30.5 -51.5 -41.5s-44.833 -20 -74.5 -27s-63.167 -10.5 -100.5 -10.5
s-70.833 3.5 -100.5 10.5s-54.5 16 -74.5 27s-37.167 24.833 -51.5 41.5s-25.5 33 -33.5 49s-14.167 34.5 -18.5 55.5s-7.16602 39.167 -8.49902 54.5s-2 32.666 -2 51.999v325h-69v106h266v-106h-69v-305c0 -71.333 12.167 -123.166 36.5 -155.499
s65.833 -48.5 124.5 -48.5s100.167 16.167 124.5 48.5s36.5 84.166 36.5 155.499v305h-69zM209.998 772v96h128v-96h-128zM447.998 772v96h128v-96h-128z" />
    <glyph glyph-name="Yacute" unicode="&#xdd;" horiz-adv-x="643" 
d="M0 594v106h269v-106h-56l112 -201l111 201h-56v106h263v-106h-65l-192 -315v-173h69v-106h-266v106h69v173l-193 315h-65zM349 900h136l-118 -140h-96z" />
    <glyph glyph-name="Thorn" unicode="&#xde;" horiz-adv-x="692" 
d="M55 604v95.999h266v-96h-69v-39h134c186 0 279 -69.667 279 -209c0 -63.333 -23 -114.666 -69 -153.999s-116.333 -59 -211 -59h-133v-47h69v-96h-266v96h69v508h-69zM252 468.999l-0.00195312 -230h132c16.667 0 32.834 1.66699 48.501 5s31.5 8.83301 47.5 16.5
s28.833 19.5 38.5 35.5s14.5 35.333 14.5 58c0 24.667 -5.16699 45.167 -15.5 61.5s-24 28 -41 35s-32.667 11.833 -47 14.5s-29.166 4 -44.499 4h-133z" />
    <glyph glyph-name="germandbls" unicode="&#xdf;" horiz-adv-x="627" 
d="M104 82l-0.00292969 376.001c0 20 0.333008 36.667 1 50s2.5 30 5.5 50s7.5 36.833 13.5 50.5s14.5 28 25.5 43s24.333 27.167 40 36.5s35.5 17 59.5 23s51.333 9 82 9c64.667 0 114.834 -15.333 150.501 -46s53.5 -76 53.5 -136c0 -66 -30 -111 -90 -135v-2
c17.333 -4 33.5 -9.66699 48.5 -17s30.333 -17.833 46 -31.5s28.167 -32.667 37.5 -57s14 -52.833 14 -85.5c0 -40 -6.16699 -74.667 -18.5 -104s-29.5 -52 -51.5 -68s-46.167 -27.667 -72.5 -35s-55.833 -11 -88.5 -11c-22 0 -41.667 2.66699 -59 8v82
c16 -5.33301 30.333 -8 43 -8c42.667 0 73.667 13.667 93 41s29 60.666 29 99.999c0 24 -3.66699 44.667 -11 62s-16.166 30.333 -26.499 39s-23.166 15.667 -38.499 21s-28.5 8.5 -39.5 9.5s-23.833 1.5 -38.5 1.5h-21v82h25c66 0 99 34.667 99 104s-30.333 104 -91 104
c-17.333 0 -32.333 -3 -45 -9s-22.5 -13.333 -29.5 -22s-12.5 -20.167 -16.5 -34.5s-6.5 -27.833 -7.5 -40.5s-1.5 -27.667 -1.5 -45v-487h-184v82h64z" />
    <glyph glyph-name="agrave" unicode="&#xe0;" horiz-adv-x="585" 
d="M393 0l-0.00878906 62.9971c-39.333 -50 -95.666 -75 -168.999 -75c-33.333 0 -62.333 3.83301 -87 11.5s-43.167 16.834 -55.5 27.501s-22 23.5 -29 38.5s-11.333 27.5 -13 37.5s-2.5 20.667 -2.5 32c0 24.667 4.83301 46.5 14.5 65.5s21.667 33.5 36 43.5
s26.833 17.5 37.5 22.5s20.334 8.5 29.001 10.5c11.333 3.33301 23.333 6 36 8s27 4 43 6l39 5l49 7l28 4c4.66699 0.666992 10.334 2.83398 17.001 6.50098s10.834 9 12.501 16s2.5 16.5 2.5 28.5c0 58.667 -33 88 -99 88c-41.333 0 -71.666 -9.16699 -90.999 -27.5
s-28.333 -40.833 -27 -67.5h-114c-1.33301 50.667 17.334 92.834 56.001 126.501s97.334 50.5 176.001 50.5c38.667 0 72.334 -4.5 101.001 -13.5s50.334 -19.667 65.001 -32s26.167 -27.5 34.5 -45.5s13.5 -33.5 15.5 -46.5s3 -27.167 3 -42.5v-266h64v-82h-172z
M380.991 225.997l0.000976562 18c-12 -8.66699 -40.667 -15.667 -86 -21c-21.333 -2.66699 -36.833 -4.83398 -46.5 -6.50098s-21.334 -4.5 -35.001 -8.5s-23.5 -8.66699 -29.5 -14s-11.333 -12.666 -16 -21.999s-7 -20.333 -7 -33c0 -20.667 6.5 -37.334 19.5 -50.001
s32.833 -19 59.5 -19c17.333 0 33.333 2 48 6s29.5 11.333 44.5 22s26.833 26.834 35.5 48.501s13 48.167 13 79.5zM291.992 699.997l70 -132h-90l-110 132h130z" />
    <glyph glyph-name="aacute" unicode="&#xe1;" horiz-adv-x="585" 
d="M393 0l-0.00878906 62.9971c-39.333 -50 -95.666 -75 -168.999 -75c-33.333 0 -62.333 3.83301 -87 11.5s-43.167 16.834 -55.5 27.501s-22 23.5 -29 38.5s-11.333 27.5 -13 37.5s-2.5 20.667 -2.5 32c0 24.667 4.83301 46.5 14.5 65.5s21.667 33.5 36 43.5
s26.833 17.5 37.5 22.5s20.334 8.5 29.001 10.5c11.333 3.33301 23.333 6 36 8s27 4 43 6l39 5l49 7l28 4c4.66699 0.666992 10.334 2.83398 17.001 6.50098s10.834 9 12.501 16s2.5 16.5 2.5 28.5c0 58.667 -33 88 -99 88c-41.333 0 -71.666 -9.16699 -90.999 -27.5
s-28.333 -40.833 -27 -67.5h-114c-1.33301 50.667 17.334 92.834 56.001 126.501s97.334 50.5 176.001 50.5c38.667 0 72.334 -4.5 101.001 -13.5s50.334 -19.667 65.001 -32s26.167 -27.5 34.5 -45.5s13.5 -33.5 15.5 -46.5s3 -27.167 3 -42.5v-266h64v-82h-172z
M380.991 225.997l0.000976562 18c-12 -8.66699 -40.667 -15.667 -86 -21c-21.333 -2.66699 -36.833 -4.83398 -46.5 -6.50098s-21.334 -4.5 -35.001 -8.5s-23.5 -8.66699 -29.5 -14s-11.333 -12.666 -16 -21.999s-7 -20.333 -7 -33c0 -20.667 6.5 -37.334 19.5 -50.001
s32.833 -19 59.5 -19c17.333 0 33.333 2 48 6s29.5 11.333 44.5 22s26.833 26.834 35.5 48.501s13 48.167 13 79.5zM283.992 699.997h130l-110 -132h-90z" />
    <glyph glyph-name="acircumflex" unicode="&#xe2;" horiz-adv-x="585" 
d="M393 0l-0.00878906 62.9971c-39.333 -50 -95.666 -75 -168.999 -75c-33.333 0 -62.333 3.83301 -87 11.5s-43.167 16.834 -55.5 27.501s-22 23.5 -29 38.5s-11.333 27.5 -13 37.5s-2.5 20.667 -2.5 32c0 24.667 4.83301 46.5 14.5 65.5s21.667 33.5 36 43.5
s26.833 17.5 37.5 22.5s20.334 8.5 29.001 10.5c11.333 3.33301 23.333 6 36 8s27 4 43 6l39 5l49 7l28 4c4.66699 0.666992 10.334 2.83398 17.001 6.50098s10.834 9 12.501 16s2.5 16.5 2.5 28.5c0 58.667 -33 88 -99 88c-41.333 0 -71.666 -9.16699 -90.999 -27.5
s-28.333 -40.833 -27 -67.5h-114c-1.33301 50.667 17.334 92.834 56.001 126.501s97.334 50.5 176.001 50.5c38.667 0 72.334 -4.5 101.001 -13.5s50.334 -19.667 65.001 -32s26.167 -27.5 34.5 -45.5s13.5 -33.5 15.5 -46.5s3 -27.167 3 -42.5v-266h64v-82h-172z
M380.991 225.997l0.000976562 18c-12 -8.66699 -40.667 -15.667 -86 -21c-21.333 -2.66699 -36.833 -4.83398 -46.5 -6.50098s-21.334 -4.5 -35.001 -8.5s-23.5 -8.66699 -29.5 -14s-11.333 -12.666 -16 -21.999s-7 -20.333 -7 -33c0 -20.667 6.5 -37.334 19.5 -50.001
s32.833 -19 59.5 -19c17.333 0 33.333 2 48 6s29.5 11.333 44.5 22s26.833 26.834 35.5 48.501s13 48.167 13 79.5zM287.992 656.997l-90 -89h-110l120 132h160l120 -132h-110z" />
    <glyph glyph-name="atilde" unicode="&#xe3;" horiz-adv-x="585" 
d="M393 0l-0.00878906 62.9971c-39.333 -50 -95.666 -75 -168.999 -75c-33.333 0 -62.333 3.83301 -87 11.5s-43.167 16.834 -55.5 27.501s-22 23.5 -29 38.5s-11.333 27.5 -13 37.5s-2.5 20.667 -2.5 32c0 24.667 4.83301 46.5 14.5 65.5s21.667 33.5 36 43.5
s26.833 17.5 37.5 22.5s20.334 8.5 29.001 10.5c11.333 3.33301 23.333 6 36 8s27 4 43 6l39 5l49 7l28 4c4.66699 0.666992 10.334 2.83398 17.001 6.50098s10.834 9 12.501 16s2.5 16.5 2.5 28.5c0 58.667 -33 88 -99 88c-41.333 0 -71.666 -9.16699 -90.999 -27.5
s-28.333 -40.833 -27 -67.5h-114c-1.33301 50.667 17.334 92.834 56.001 126.501s97.334 50.5 176.001 50.5c38.667 0 72.334 -4.5 101.001 -13.5s50.334 -19.667 65.001 -32s26.167 -27.5 34.5 -45.5s13.5 -33.5 15.5 -46.5s3 -27.167 3 -42.5v-266h64v-82h-172z
M380.991 225.997l0.000976562 18c-12 -8.66699 -40.667 -15.667 -86 -21c-21.333 -2.66699 -36.833 -4.83398 -46.5 -6.50098s-21.334 -4.5 -35.001 -8.5s-23.5 -8.66699 -29.5 -14s-11.333 -12.666 -16 -21.999s-7 -20.333 -7 -33c0 -20.667 6.5 -37.334 19.5 -50.001
s32.833 -19 59.5 -19c17.333 0 33.333 2 48 6s29.5 11.333 44.5 22s26.833 26.834 35.5 48.501s13 48.167 13 79.5zM405.992 699.997l73.9971 -0.000976562c-5.33301 -31.333 -19.166 -56.166 -41.499 -74.499s-47.833 -27.5 -76.5 -27.5c-22 0 -47.667 7.33301 -77 22
c-32 14.667 -55 22 -69 22c-26 0 -41.333 -12 -46 -36h-74c4 28 16.667 52 38 72s48 30 80 30c23.333 0 49 -6.66699 77 -20c4.66699 -2 10.834 -5 18.501 -9s13.334 -6.83301 17.001 -8.5s8.5 -3.16699 14.5 -4.5s12.333 -2 19 -2c26 0 41.333 12 46 36z" />
    <glyph glyph-name="adieresis" unicode="&#xe4;" horiz-adv-x="585" 
d="M393 0l-0.00878906 62.9971c-39.333 -50 -95.666 -75 -168.999 -75c-33.333 0 -62.333 3.83301 -87 11.5s-43.167 16.834 -55.5 27.501s-22 23.5 -29 38.5s-11.333 27.5 -13 37.5s-2.5 20.667 -2.5 32c0 24.667 4.83301 46.5 14.5 65.5s21.667 33.5 36 43.5
s26.833 17.5 37.5 22.5s20.334 8.5 29.001 10.5c11.333 3.33301 23.333 6 36 8s27 4 43 6l39 5l49 7l28 4c4.66699 0.666992 10.334 2.83398 17.001 6.50098s10.834 9 12.501 16s2.5 16.5 2.5 28.5c0 58.667 -33 88 -99 88c-41.333 0 -71.666 -9.16699 -90.999 -27.5
s-28.333 -40.833 -27 -67.5h-114c-1.33301 50.667 17.334 92.834 56.001 126.501s97.334 50.5 176.001 50.5c38.667 0 72.334 -4.5 101.001 -13.5s50.334 -19.667 65.001 -32s26.167 -27.5 34.5 -45.5s13.5 -33.5 15.5 -46.5s3 -27.167 3 -42.5v-266h64v-82h-172z
M380.991 225.997l0.000976562 18c-12 -8.66699 -40.667 -15.667 -86 -21c-21.333 -2.66699 -36.833 -4.83398 -46.5 -6.50098s-21.334 -4.5 -35.001 -8.5s-23.5 -8.66699 -29.5 -14s-11.333 -12.666 -16 -21.999s-7 -20.333 -7 -33c0 -20.667 6.5 -37.334 19.5 -50.001
s32.833 -19 59.5 -19c17.333 0 33.333 2 48 6s29.5 11.333 44.5 22s26.833 26.834 35.5 48.501s13 48.167 13 79.5zM134.992 593.997v106h116v-106h-116zM324.992 593.997v106h116v-106h-116z" />
    <glyph glyph-name="aring" unicode="&#xe5;" horiz-adv-x="585" 
d="M393 0l-0.00878906 62.9971c-39.333 -50 -95.666 -75 -168.999 -75c-33.333 0 -62.333 3.83301 -87 11.5s-43.167 16.834 -55.5 27.501s-22 23.5 -29 38.5s-11.333 27.5 -13 37.5s-2.5 20.667 -2.5 32c0 24.667 4.83301 46.5 14.5 65.5s21.667 33.5 36 43.5
s26.833 17.5 37.5 22.5s20.334 8.5 29.001 10.5c11.333 3.33301 23.333 6 36 8s27 4 43 6l39 5l49 7l28 4c4.66699 0.666992 10.334 2.83398 17.001 6.50098s10.834 9 12.501 16s2.5 16.5 2.5 28.5c0 58.667 -33 88 -99 88c-41.333 0 -71.666 -9.16699 -90.999 -27.5
s-28.333 -40.833 -27 -67.5h-114c-1.33301 50.667 17.334 92.834 56.001 126.501s97.334 50.5 176.001 50.5c38.667 0 72.334 -4.5 101.001 -13.5s50.334 -19.667 65.001 -32s26.167 -27.5 34.5 -45.5s13.5 -33.5 15.5 -46.5s3 -27.167 3 -42.5v-266h64v-82h-172z
M380.991 225.997l0.000976562 18c-12 -8.66699 -40.667 -15.667 -86 -21c-21.333 -2.66699 -36.833 -4.83398 -46.5 -6.50098s-21.334 -4.5 -35.001 -8.5s-23.5 -8.66699 -29.5 -14s-11.333 -12.666 -16 -21.999s-7 -20.333 -7 -33c0 -20.667 6.5 -37.334 19.5 -50.001
s32.833 -19 59.5 -19c17.333 0 33.333 2 48 6s29.5 11.333 44.5 22s26.833 26.834 35.5 48.501s13 48.167 13 79.5zM193.992 633.997c0 25.333 9.33301 47.333 28 66s40.667 28 66 28s47.333 -9.33301 66 -28s28 -40.667 28 -66s-9.33301 -47.333 -28 -66
s-40.667 -28 -66 -28s-47.333 9.33301 -66 28s-28 40.667 -28 66zM243.992 633.997c0 -12 4.33301 -22.333 13 -31s19 -13 31 -13s22.333 4.33301 31 13s13 19 13 31s-4.33301 22.333 -13 31s-19 13 -31 13s-22.333 -4.33301 -31 -13s-13 -19 -13 -31z" />
    <glyph glyph-name="ae" unicode="&#xe6;" horiz-adv-x="930" 
d="M164 351l-114.004 -0.000976562c-1.33301 49.333 17.5 91.166 56.5 125.499s97.5 51.5 175.5 51.5c91.333 0 149 -26.333 173 -79c38 52.667 99 79 183 79c16.667 0 33 -1 49 -3s37 -8.33301 63 -19s48.333 -25 67 -43s35 -45.333 49 -82s21 -79.667 21 -129v-29h-380
c0 -18 2.33301 -35.667 7 -53s12 -34.5 22 -51.5s24.667 -30.667 44 -41s41.666 -15.5 66.999 -15.5c28.667 0 54.5 7.5 77.5 22.5s36.5 35.833 40.5 62.5h114c-4 -19.333 -10.167 -37.5 -18.5 -54.5s-21 -34.667 -38 -53s-41.5 -32.833 -73.5 -43.5s-69.333 -16 -112 -16
c-94 0 -160 30.667 -198 92c-34 -61.333 -105.667 -92 -215 -92c-124.667 0 -187 51.667 -187 155c0 24.667 4.83301 46.5 14.5 65.5s21.667 33.5 36 43.5s26.833 17.5 37.5 22.5s20.334 8.5 29.001 10.5c16.667 4.66699 72.334 13.334 167.001 26.001l28 4
c4.66699 0.666992 10.334 2.83398 17.001 6.50098s10.834 9 12.501 16s2.5 16.5 2.5 28.5c0 58.667 -33 88 -99 88c-41.333 0 -71.666 -9.16699 -90.999 -27.5s-28.333 -40.833 -27 -67.5zM380.996 217.999l0.00195312 25.999c-12 -8.66699 -40.667 -15.667 -86 -21
c-21.333 -2.66699 -37 -4.83398 -47 -6.50098s-21.833 -4.5 -35.5 -8.5s-23.334 -8.66699 -29.001 -14s-10.834 -12.666 -15.501 -21.999s-7 -20.333 -7 -33c0 -22.667 6.5 -41.167 19.5 -55.5s32.833 -21.5 59.5 -21.5c17.333 0 33.333 2 48 6s29.5 11.333 44.5 22
s26.833 26.834 35.5 48.501s13 48.167 13 79.5zM506.998 304.998l253 0.000976562c0 14 -1.5 28 -4.5 42s-8.5 29 -16.5 45s-20.5 29 -37.5 39s-37.833 15 -62.5 15c-43.333 0 -76.5 -14.333 -99.5 -43s-33.833 -61.334 -32.5 -98.001z" />
    <glyph glyph-name="ccedilla" unicode="&#xe7;" horiz-adv-x="578" 
d="M519 339l-83.998 0.00390625c-2.66699 28.667 -15.167 53.667 -37.5 75s-52.833 32 -91.5 32c-90 0 -135 -64.333 -135 -193c0 -37.333 4.33301 -69.333 13 -96s20.167 -46.5 34.5 -59.5s28.833 -22.167 43.5 -27.5s30 -8 46 -8c39.333 0 68 12.833 86 38.5
s28 54.167 30 85.5h114c-2 -16.667 -5.33301 -33.334 -10 -50.001s-12.834 -34.667 -24.501 -54s-25.834 -36.333 -42.501 -51s-39.167 -26.834 -67.5 -36.501s-60.166 -14.5 -95.499 -14.5c-84 0 -147.5 24.667 -190.5 74s-64.5 115.666 -64.5 198.999
c0 41.333 4.33301 78.166 13 110.499s20.667 58 36 77s31.166 34.833 47.499 47.5s34.833 21.667 55.5 27s37.667 8.83301 51 10.5s27.333 2.5 42 2.5c66 0 115.667 -20.333 149 -61v41h82v-169zM182.002 -231.996l19 61c18.667 -6 38 -9 58 -9c35.333 0 53 11.333 53 34
c0 18.667 -17.333 28 -52 28h-43l18 60h46c80.667 0 121 -30 121 -90c0 -61.333 -47 -92 -141 -92c-26 0 -52.333 2.66699 -79 8z" />
    <glyph glyph-name="egrave" unicode="&#xe8;" horiz-adv-x="594" 
d="M429 147h114.001c-4 -19.333 -10.167 -37.5 -18.5 -54.5s-21 -34.667 -38 -53s-41.5 -32.833 -73.5 -43.5s-69.333 -16 -112 -16c-16 0 -31.833 0.833008 -47.5 2.5s-37.167 7.5 -64.5 17.5s-50.833 23.5 -70.5 40.5s-37.167 43.333 -52.5 79s-23 77.5 -23 125.5
c0 88.667 21.833 158 65.5 208s108.167 75 193.5 75c158 0 240.667 -92 248 -276c0 -4 0.166992 -9 0.5 -15s0.5 -10.667 0.5 -14h-380c0 -18 2.33301 -35.667 7 -53s12 -34.5 22 -51.5s24.667 -30.667 44 -41s41.666 -15.5 66.999 -15.5c28.667 0 54.5 7.5 77.5 22.5
s36.5 35.833 40.5 62.5zM171.001 305l253 0.000976562c0 14 -1.5 28 -4.5 42s-8.5 29 -16.5 45s-20.5 29 -37.5 39s-37.833 15 -62.5 15c-43.333 0 -76.5 -14.333 -99.5 -43s-33.833 -61.334 -32.5 -98.001zM301.001 700.001l70 -132h-90l-110 132h130z" />
    <glyph glyph-name="eacute" unicode="&#xe9;" horiz-adv-x="594" 
d="M429 147h114.001c-4 -19.333 -10.167 -37.5 -18.5 -54.5s-21 -34.667 -38 -53s-41.5 -32.833 -73.5 -43.5s-69.333 -16 -112 -16c-16 0 -31.833 0.833008 -47.5 2.5s-37.167 7.5 -64.5 17.5s-50.833 23.5 -70.5 40.5s-37.167 43.333 -52.5 79s-23 77.5 -23 125.5
c0 88.667 21.833 158 65.5 208s108.167 75 193.5 75c158 0 240.667 -92 248 -276c0 -4 0.166992 -9 0.5 -15s0.5 -10.667 0.5 -14h-380c0 -18 2.33301 -35.667 7 -53s12 -34.5 22 -51.5s24.667 -30.667 44 -41s41.666 -15.5 66.999 -15.5c28.667 0 54.5 7.5 77.5 22.5
s36.5 35.833 40.5 62.5zM171.001 305l253 0.000976562c0 14 -1.5 28 -4.5 42s-8.5 29 -16.5 45s-20.5 29 -37.5 39s-37.833 15 -62.5 15c-43.333 0 -76.5 -14.333 -99.5 -43s-33.833 -61.334 -32.5 -98.001zM293.001 700.001h130l-110 -132h-90z" />
    <glyph glyph-name="ecircumflex" unicode="&#xea;" horiz-adv-x="594" 
d="M429 147h114.001c-4 -19.333 -10.167 -37.5 -18.5 -54.5s-21 -34.667 -38 -53s-41.5 -32.833 -73.5 -43.5s-69.333 -16 -112 -16c-16 0 -31.833 0.833008 -47.5 2.5s-37.167 7.5 -64.5 17.5s-50.833 23.5 -70.5 40.5s-37.167 43.333 -52.5 79s-23 77.5 -23 125.5
c0 88.667 21.833 158 65.5 208s108.167 75 193.5 75c158 0 240.667 -92 248 -276c0 -4 0.166992 -9 0.5 -15s0.5 -10.667 0.5 -14h-380c0 -18 2.33301 -35.667 7 -53s12 -34.5 22 -51.5s24.667 -30.667 44 -41s41.666 -15.5 66.999 -15.5c28.667 0 54.5 7.5 77.5 22.5
s36.5 35.833 40.5 62.5zM171.001 305l253 0.000976562c0 14 -1.5 28 -4.5 42s-8.5 29 -16.5 45s-20.5 29 -37.5 39s-37.833 15 -62.5 15c-43.333 0 -76.5 -14.333 -99.5 -43s-33.833 -61.334 -32.5 -98.001zM297.001 657.001l-90 -89h-110l120 132h160l120 -132h-110z" />
    <glyph glyph-name="edieresis" unicode="&#xeb;" horiz-adv-x="594" 
d="M429 147h114.001c-4 -19.333 -10.167 -37.5 -18.5 -54.5s-21 -34.667 -38 -53s-41.5 -32.833 -73.5 -43.5s-69.333 -16 -112 -16c-16 0 -31.833 0.833008 -47.5 2.5s-37.167 7.5 -64.5 17.5s-50.833 23.5 -70.5 40.5s-37.167 43.333 -52.5 79s-23 77.5 -23 125.5
c0 88.667 21.833 158 65.5 208s108.167 75 193.5 75c158 0 240.667 -92 248 -276c0 -4 0.166992 -9 0.5 -15s0.5 -10.667 0.5 -14h-380c0 -18 2.33301 -35.667 7 -53s12 -34.5 22 -51.5s24.667 -30.667 44 -41s41.666 -15.5 66.999 -15.5c28.667 0 54.5 7.5 77.5 22.5
s36.5 35.833 40.5 62.5zM171.001 305l253 0.000976562c0 14 -1.5 28 -4.5 42s-8.5 29 -16.5 45s-20.5 29 -37.5 39s-37.833 15 -62.5 15c-43.333 0 -76.5 -14.333 -99.5 -43s-33.833 -61.334 -32.5 -98.001zM144.001 594.001v106h116v-106h-116zM334.001 594.001v106h116
v-106h-116z" />
    <glyph glyph-name="igrave" unicode="&#xec;" horiz-adv-x="328" 
d="M40 426v82h184v-426h64v-82h-248v82h64v344h-64zM132 700l70 -132h-90l-110 132h130z" />
    <glyph glyph-name="iacute" unicode="&#xed;" horiz-adv-x="328" 
d="M40 426v82h184v-426h64v-82h-248v82h64v344h-64zM155 700h130l-110 -132h-90z" />
    <glyph glyph-name="icircumflex" unicode="&#xee;" horiz-adv-x="328" 
d="M40 426v82h184v-426h64v-82h-248v82h64v344h-64zM141 657l-90 -89h-110l120 132h160l120 -132h-110z" />
    <glyph glyph-name="idieresis" unicode="&#xef;" horiz-adv-x="328" 
d="M40 426v82h184v-426h64v-82h-248v82h64v344h-64zM-6 594v106h116v-106h-116zM184 594v106h116v-106h-116z" />
    <glyph glyph-name="eth" unicode="&#xf0;" horiz-adv-x="625" 
d="M332 594l-14.0029 6.00098l-127 -75l-26 42l94 55c-44 14 -80.667 23.333 -110 28l18 88c58 -4 124.333 -21.667 199 -53l89 53l27 -41l-64 -38c109.333 -66 164 -174.667 164 -326c0 -16.667 -0.5 -33.167 -1.5 -49.5s-3.66699 -36.833 -8 -61.5
s-10.166 -47.334 -17.499 -68.001s-18 -42.167 -32 -64.5s-30.167 -41.166 -48.5 -56.499s-41.666 -28 -69.999 -38s-59.833 -15 -94.5 -15c-42 0 -79.167 6.16699 -111.5 18.5s-58 27.833 -77 46.5s-34.667 40.167 -47 64.5s-20.666 47.5 -24.999 69.5s-6.5 43.667 -6.5 65
c0 73.333 21.5 135.666 64.5 186.999s104.833 77 185.5 77c84.667 0 147.667 -34.667 189 -104h4c-5.33301 31.333 -19.833 64.333 -43.5 99s-60.5 65 -110.5 91zM448.997 244.001c0 66 -13.333 112.833 -40 140.5s-59.667 41.5 -99 41.5s-72.333 -13.833 -99 -41.5
s-40 -74.5 -40 -140.5s13.333 -112.833 40 -140.5s59.667 -41.5 99 -41.5s72.333 13.833 99 41.5s40 74.5 40 140.5z" />
    <glyph glyph-name="ntilde" unicode="&#xf1;" horiz-adv-x="670" 
d="M382 0l-0.00195312 82h64v220c0 16.667 -0.166992 29.834 -0.5 39.501s-2.16602 22 -5.49902 37s-8.16602 26.667 -14.499 35s-15.833 15.833 -28.5 22.5s-28 10 -46 10c-8.66699 0 -17.334 -0.833008 -26.001 -2.5s-19.5 -5.66699 -32.5 -12s-24.167 -15 -33.5 -26
s-17.5 -27 -24.5 -48s-10.5 -45.5 -10.5 -73.5v-202h64v-82h-248v82h64v344h-64v82h184v-67c16.667 28 40.667 49.5 72 64.5s63 22.5 95 22.5c32.667 0 60.834 -5.66699 84.501 -17s41 -24 52 -38s19.667 -31.167 26 -51.5s10 -35.833 11 -46.5s1.5 -22.334 1.5 -35.001
v-258h64v-82h-248zM452.998 700l73.9971 -0.000976562c-5.33301 -31.333 -19.166 -56.166 -41.499 -74.499s-47.833 -27.5 -76.5 -27.5c-22 0 -47.667 7.33301 -77 22c-32 14.667 -55 22 -69 22c-26 0 -41.333 -12 -46 -36h-74c4 28 16.667 52 38 72s48 30 80 30
c23.333 0 49 -6.66699 77 -20c4.66699 -2 10.834 -5 18.501 -9s13.334 -6.83301 17.001 -8.5s8.5 -3.16699 14.5 -4.5s12.333 -2 19 -2c26 0 41.333 12 46 36z" />
    <glyph glyph-name="ograve" unicode="&#xf2;" horiz-adv-x="610" 
d="M43 254c0 22 2 44 6 66s12 46 24 72s27.333 48.667 46 68s44 35.5 76 48.5s68.667 19.5 110 19.5s78 -6.5 110 -19.5s57.333 -29.167 76 -48.5s34 -42 46 -68s20 -50 24 -72s6 -44 6 -66s-2 -44 -6 -66s-12 -46 -24 -72s-27.333 -48.667 -46 -68s-44 -35.5 -76 -48.5
s-68.667 -19.5 -110 -19.5s-78 6.5 -110 19.5s-57.333 29.167 -76 48.5s-34 41.833 -46 67.5s-20 49.667 -24 72s-6 44.5 -6 66.5zM171 254c0 -40.667 4.66699 -74.834 14 -102.501s21.833 -47.5 37.5 -59.5s29.834 -20 42.501 -24s26 -6 40 -6s27.333 2 40 6
s26.834 12 42.501 24s28.167 31.833 37.5 59.5s14 61.834 14 102.501s-4.66699 74.834 -14 102.501s-21.833 47.5 -37.5 59.5s-29.834 20 -42.501 24s-26 6 -40 6s-27.333 -2 -40 -6s-26.834 -12 -42.501 -24s-28.167 -31.833 -37.5 -59.5s-14 -61.834 -14 -102.501z
M309 700l70 -132h-90l-110 132h130z" />
    <glyph glyph-name="oacute" unicode="&#xf3;" horiz-adv-x="610" 
d="M43 254c0 22 2 44 6 66s12 46 24 72s27.333 48.667 46 68s44 35.5 76 48.5s68.667 19.5 110 19.5s78 -6.5 110 -19.5s57.333 -29.167 76 -48.5s34 -42 46 -68s20 -50 24 -72s6 -44 6 -66s-2 -44 -6 -66s-12 -46 -24 -72s-27.333 -48.667 -46 -68s-44 -35.5 -76 -48.5
s-68.667 -19.5 -110 -19.5s-78 6.5 -110 19.5s-57.333 29.167 -76 48.5s-34 41.833 -46 67.5s-20 49.667 -24 72s-6 44.5 -6 66.5zM171 254c0 -40.667 4.66699 -74.834 14 -102.501s21.833 -47.5 37.5 -59.5s29.834 -20 42.501 -24s26 -6 40 -6s27.333 2 40 6
s26.834 12 42.501 24s28.167 31.833 37.5 59.5s14 61.834 14 102.501s-4.66699 74.834 -14 102.501s-21.833 47.5 -37.5 59.5s-29.834 20 -42.501 24s-26 6 -40 6s-27.333 -2 -40 -6s-26.834 -12 -42.501 -24s-28.167 -31.833 -37.5 -59.5s-14 -61.834 -14 -102.501z
M301 700h130l-110 -132h-90z" />
    <glyph glyph-name="ocircumflex" unicode="&#xf4;" horiz-adv-x="610" 
d="M43 254c0 22 2 44 6 66s12 46 24 72s27.333 48.667 46 68s44 35.5 76 48.5s68.667 19.5 110 19.5s78 -6.5 110 -19.5s57.333 -29.167 76 -48.5s34 -42 46 -68s20 -50 24 -72s6 -44 6 -66s-2 -44 -6 -66s-12 -46 -24 -72s-27.333 -48.667 -46 -68s-44 -35.5 -76 -48.5
s-68.667 -19.5 -110 -19.5s-78 6.5 -110 19.5s-57.333 29.167 -76 48.5s-34 41.833 -46 67.5s-20 49.667 -24 72s-6 44.5 -6 66.5zM171 254c0 -40.667 4.66699 -74.834 14 -102.501s21.833 -47.5 37.5 -59.5s29.834 -20 42.501 -24s26 -6 40 -6s27.333 2 40 6
s26.834 12 42.501 24s28.167 31.833 37.5 59.5s14 61.834 14 102.501s-4.66699 74.834 -14 102.501s-21.833 47.5 -37.5 59.5s-29.834 20 -42.501 24s-26 6 -40 6s-27.333 -2 -40 -6s-26.834 -12 -42.501 -24s-28.167 -31.833 -37.5 -59.5s-14 -61.834 -14 -102.501z
M305 657l-90 -89h-110l120 132h160l120 -132h-110z" />
    <glyph glyph-name="otilde" unicode="&#xf5;" horiz-adv-x="610" 
d="M43 254c0 22 2 44 6 66s12 46 24 72s27.333 48.667 46 68s44 35.5 76 48.5s68.667 19.5 110 19.5s78 -6.5 110 -19.5s57.333 -29.167 76 -48.5s34 -42 46 -68s20 -50 24 -72s6 -44 6 -66s-2 -44 -6 -66s-12 -46 -24 -72s-27.333 -48.667 -46 -68s-44 -35.5 -76 -48.5
s-68.667 -19.5 -110 -19.5s-78 6.5 -110 19.5s-57.333 29.167 -76 48.5s-34 41.833 -46 67.5s-20 49.667 -24 72s-6 44.5 -6 66.5zM171 254c0 -40.667 4.66699 -74.834 14 -102.501s21.833 -47.5 37.5 -59.5s29.834 -20 42.501 -24s26 -6 40 -6s27.333 2 40 6
s26.834 12 42.501 24s28.167 31.833 37.5 59.5s14 61.834 14 102.501s-4.66699 74.834 -14 102.501s-21.833 47.5 -37.5 59.5s-29.834 20 -42.501 24s-26 6 -40 6s-27.333 -2 -40 -6s-26.834 -12 -42.501 -24s-28.167 -31.833 -37.5 -59.5s-14 -61.834 -14 -102.501z
M423 700l73.9971 -0.000976562c-5.33301 -31.333 -19.166 -56.166 -41.499 -74.499s-47.833 -27.5 -76.5 -27.5c-22 0 -47.667 7.33301 -77 22c-32 14.667 -55 22 -69 22c-26 0 -41.333 -12 -46 -36h-74c4 28 16.667 52 38 72s48 30 80 30c23.333 0 49 -6.66699 77 -20
c4.66699 -2 10.834 -5 18.501 -9s13.334 -6.83301 17.001 -8.5s8.5 -3.16699 14.5 -4.5s12.333 -2 19 -2c26 0 41.333 12 46 36z" />
    <glyph glyph-name="odieresis" unicode="&#xf6;" horiz-adv-x="610" 
d="M43 254c0 22 2 44 6 66s12 46 24 72s27.333 48.667 46 68s44 35.5 76 48.5s68.667 19.5 110 19.5s78 -6.5 110 -19.5s57.333 -29.167 76 -48.5s34 -42 46 -68s20 -50 24 -72s6 -44 6 -66s-2 -44 -6 -66s-12 -46 -24 -72s-27.333 -48.667 -46 -68s-44 -35.5 -76 -48.5
s-68.667 -19.5 -110 -19.5s-78 6.5 -110 19.5s-57.333 29.167 -76 48.5s-34 41.833 -46 67.5s-20 49.667 -24 72s-6 44.5 -6 66.5zM171 254c0 -40.667 4.66699 -74.834 14 -102.501s21.833 -47.5 37.5 -59.5s29.834 -20 42.501 -24s26 -6 40 -6s27.333 2 40 6
s26.834 12 42.501 24s28.167 31.833 37.5 59.5s14 61.834 14 102.501s-4.66699 74.834 -14 102.501s-21.833 47.5 -37.5 59.5s-29.834 20 -42.501 24s-26 6 -40 6s-27.333 -2 -40 -6s-26.834 -12 -42.501 -24s-28.167 -31.833 -37.5 -59.5s-14 -61.834 -14 -102.501z
M152 594v106h116v-106h-116zM342 594v106h116v-106h-116z" />
    <glyph glyph-name="divide" unicode="&#xf7;" 
d="M230 529c0 19.333 6.83301 35.833 20.5 49.5s30.167 20.5 49.5 20.5s35.833 -6.83301 49.5 -20.5s20.5 -30.167 20.5 -49.5s-6.83301 -35.833 -20.5 -49.5s-30.167 -20.5 -49.5 -20.5s-35.833 6.83301 -49.5 20.5s-20.5 30.167 -20.5 49.5zM230 181
c0 19.333 6.83301 35.833 20.5 49.5s30.167 20.5 49.5 20.5s35.833 -6.83301 49.5 -20.5s20.5 -30.167 20.5 -49.5s-6.83301 -35.833 -20.5 -49.5s-30.167 -20.5 -49.5 -20.5s-35.833 6.83301 -49.5 20.5s-20.5 30.167 -20.5 49.5zM50 312v86h500v-86h-500z" />
    <glyph glyph-name="oslash" unicode="&#xf8;" horiz-adv-x="604" 
d="M43 254c0 22 2.00098 43.999 6.00098 65.999s12 46 24 72s27.333 48.667 46 68s44 35.5 76 48.5s68.667 19.5 110 19.5c59.333 0 109.333 -13.333 150 -40l54 65l55 -45l-56 -68c7.33301 -8 14.666 -18.333 21.999 -31s15.333 -33.5 24 -62.5s13 -59.833 13 -92.5
c0 -22 -2 -44 -6 -66s-12 -46 -24 -72s-27.333 -48.667 -46 -68s-44 -35.5 -76 -48.5s-68.667 -19.5 -110 -19.5c-56 0 -105 12.667 -147 38l-52 -63l-57 45l55 66c-40.667 48.667 -61 111.334 -61 188.001zM171.001 253.999c0 -34 3.66699 -65.3311 11 -93.998l209 251
c-24.667 23.333 -53.334 35 -86.001 35c-14 0 -27.5 -2.16699 -40.5 -6.5s-27.167 -12.333 -42.5 -24s-27.666 -31.334 -36.999 -59.001s-14 -61.834 -14 -102.501zM429.001 345.001l-207.001 -251.001c22 -21.333 49.667 -32 83 -32c10.667 0 21 1 31 3s21.5 7 34.5 15
s24.333 18.5 34 31.5s17.834 31.833 24.501 56.5s10 53.334 10 86.001c0 34 -3.33301 64.333 -10 91z" />
    <glyph glyph-name="ugrave" unicode="&#xf9;" horiz-adv-x="670" 
d="M630 82l0.00292969 -81.999h-184v67h-2c-15.333 -28.667 -38.666 -50.334 -69.999 -65.001s-64.333 -22 -99 -22c-26.667 0 -50.334 3.5 -71.001 10.5s-36.834 17 -48.501 30s-21.334 25.833 -29.001 38.5s-13 27.167 -16 43.5s-4.83301 28.833 -5.5 37.5s-1 18 -1 28
v258h-64v82h184v-302c0 -15.333 0.333008 -28 1 -38s2.66699 -22.333 6 -37s8.16602 -26.5 14.499 -35.5s15.833 -16.833 28.5 -23.5s27.667 -10 45 -10c23.333 0 43.666 5 60.999 15s30 21.333 38 34s14.333 28 19 46s7.33398 31.333 8.00098 40s1 17.667 1 27v202h-64v82
h184v-426h64zM319.003 700.001l70 -132h-90l-110 132h130z" />
    <glyph glyph-name="uacute" unicode="&#xfa;" horiz-adv-x="670" 
d="M630 82l0.00292969 -81.999h-184v67h-2c-15.333 -28.667 -38.666 -50.334 -69.999 -65.001s-64.333 -22 -99 -22c-26.667 0 -50.334 3.5 -71.001 10.5s-36.834 17 -48.501 30s-21.334 25.833 -29.001 38.5s-13 27.167 -16 43.5s-4.83301 28.833 -5.5 37.5s-1 18 -1 28
v258h-64v82h184v-302c0 -15.333 0.333008 -28 1 -38s2.66699 -22.333 6 -37s8.16602 -26.5 14.499 -35.5s15.833 -16.833 28.5 -23.5s27.667 -10 45 -10c23.333 0 43.666 5 60.999 15s30 21.333 38 34s14.333 28 19 46s7.33398 31.333 8.00098 40s1 17.667 1 27v202h-64v82
h184v-426h64zM331.003 700.001h130l-110 -132h-90z" />
    <glyph glyph-name="ucircumflex" unicode="&#xfb;" horiz-adv-x="670" 
d="M630 82l0.00292969 -81.999h-184v67h-2c-15.333 -28.667 -38.666 -50.334 -69.999 -65.001s-64.333 -22 -99 -22c-26.667 0 -50.334 3.5 -71.001 10.5s-36.834 17 -48.501 30s-21.334 25.833 -29.001 38.5s-13 27.167 -16 43.5s-4.83301 28.833 -5.5 37.5s-1 18 -1 28
v258h-64v82h184v-302c0 -15.333 0.333008 -28 1 -38s2.66699 -22.333 6 -37s8.16602 -26.5 14.499 -35.5s15.833 -16.833 28.5 -23.5s27.667 -10 45 -10c23.333 0 43.666 5 60.999 15s30 21.333 38 34s14.333 28 19 46s7.33398 31.333 8.00098 40s1 17.667 1 27v202h-64v82
h184v-426h64zM335.003 657.001l-90 -89h-110l120 132h160l120 -132h-110z" />
    <glyph glyph-name="udieresis" unicode="&#xfc;" horiz-adv-x="670" 
d="M630 82l0.00292969 -81.999h-184v67h-2c-15.333 -28.667 -38.666 -50.334 -69.999 -65.001s-64.333 -22 -99 -22c-26.667 0 -50.334 3.5 -71.001 10.5s-36.834 17 -48.501 30s-21.334 25.833 -29.001 38.5s-13 27.167 -16 43.5s-4.83301 28.833 -5.5 37.5s-1 18 -1 28
v258h-64v82h184v-302c0 -15.333 0.333008 -28 1 -38s2.66699 -22.333 6 -37s8.16602 -26.5 14.499 -35.5s15.833 -16.833 28.5 -23.5s27.667 -10 45 -10c23.333 0 43.666 5 60.999 15s30 21.333 38 34s14.333 28 19 46s7.33398 31.333 8.00098 40s1 17.667 1 27v202h-64v82
h184v-426h64zM162.003 594.001v106h116v-106h-116zM352.003 594.001v106h116v-106h-116z" />
    <glyph glyph-name="yacute" unicode="&#xfd;" horiz-adv-x="567" 
d="M-5 426v82h243v-82h-52l118 -296l94 296h-52v82h226v-82h-61l-216 -611h-171v82h92l35 94l-201 435h-55zM315 700h130l-110 -132h-90z" />
    <glyph glyph-name="thorn" unicode="&#xfe;" horiz-adv-x="668" 
d="M40 618l-0.000976562 81.998h184v-242c35.333 46.667 87.333 70 156 70c30.667 0 60 -5.16699 88 -15.5s54 -25.666 78 -45.999s43.167 -48.666 57.5 -84.999s21.5 -77.833 21.5 -124.5c0 -24 -1.83301 -47.5 -5.5 -70.5s-11 -47.333 -22 -73s-25 -48 -42 -67
s-40.333 -34.833 -70 -47.5s-63.5 -19 -101.5 -19c-8 0 -16.667 0.5 -26 1.5s-23.5 3.33301 -42.5 7s-36.667 11 -53 22s-29.166 24.833 -38.499 41.5v-154h64v-82h-64v-1h-120v1h-64v82h64v720h-64zM214.999 252.998c0 -58.667 11.665 -105.167 34.998 -139.5
s56.666 -51.5 99.999 -51.5c16 0 31.333 2.33301 46 7s30.167 13 46.5 25s29.5 31.5 39.5 58.5s15 59.5 15 97.5c0 67.333 -13.5 116.833 -40.5 148.5s-60.833 47.5 -101.5 47.5c-15.333 0 -30.166 -2.5 -44.499 -7.5s-29.166 -13.833 -44.499 -26.5
s-27.666 -32.667 -36.999 -60s-14 -60.333 -14 -99z" />
    <glyph glyph-name="ydieresis" unicode="&#xff;" horiz-adv-x="567" 
d="M-5 426v82h243v-82h-52l118 -296l94 296h-52v82h226v-82h-61l-216 -611h-171v82h92l35 94l-201 435h-55zM138 594v106h116v-106h-116zM328 594v106h116v-106h-116z" />
    <glyph glyph-name="Amacron" unicode="&#x100;" horiz-adv-x="726" 
d="M207 599v101h225l224 -594h70v-106h-269v96h65l-21 61h-274l-21 -61h57v-96h-263v106h80l187 493h-60zM363 574l-106 -314h210zM172 760v80h330v-80h-330z" />
    <glyph glyph-name="amacron" unicode="&#x101;" horiz-adv-x="585" 
d="M393 0l-0.00878906 62.9971c-39.333 -50 -95.666 -75 -168.999 -75c-33.333 0 -62.333 3.83301 -87 11.5s-43.167 16.834 -55.5 27.501s-22 23.5 -29 38.5s-11.333 27.5 -13 37.5s-2.5 20.667 -2.5 32c0 24.667 4.83301 46.5 14.5 65.5s21.667 33.5 36 43.5
s26.833 17.5 37.5 22.5s20.334 8.5 29.001 10.5c11.333 3.33301 23.333 6 36 8s27 4 43 6l39 5l49 7l28 4c4.66699 0.666992 10.334 2.83398 17.001 6.50098s10.834 9 12.501 16s2.5 16.5 2.5 28.5c0 58.667 -33 88 -99 88c-41.333 0 -71.666 -9.16699 -90.999 -27.5
s-28.333 -40.833 -27 -67.5h-114c-1.33301 50.667 17.334 92.834 56.001 126.501s97.334 50.5 176.001 50.5c38.667 0 72.334 -4.5 101.001 -13.5s50.334 -19.667 65.001 -32s26.167 -27.5 34.5 -45.5s13.5 -33.5 15.5 -46.5s3 -27.167 3 -42.5v-266h64v-82h-172z
M380.991 225.997l0.000976562 18c-12 -8.66699 -40.667 -15.667 -86 -21c-21.333 -2.66699 -36.833 -4.83398 -46.5 -6.50098s-21.334 -4.5 -35.001 -8.5s-23.5 -8.66699 -29.5 -14s-11.333 -12.666 -16 -21.999s-7 -20.333 -7 -33c0 -20.667 6.5 -37.334 19.5 -50.001
s32.833 -19 59.5 -19c17.333 0 33.333 2 48 6s29.5 11.333 44.5 22s26.833 26.834 35.5 48.501s13 48.167 13 79.5zM122.992 601.997v82h330v-82h-330z" />
    <glyph glyph-name="Abreve" unicode="&#x102;" horiz-adv-x="726" 
d="M207 599v101h225l224 -594h70v-106h-269v96h65l-21 61h-274l-21 -61h57v-96h-263v106h80l187 493h-60zM363 574l-106 -314h210zM128 900h103c2.66699 -25.333 13.834 -45.166 33.501 -59.499s44.167 -21.5 73.5 -21.5s53.833 7.16699 73.5 21.5
s30.834 34.166 33.501 59.499h103c-8.66699 -45.333 -30.834 -82.166 -66.501 -110.499s-83.5 -42.5 -143.5 -42.5s-107.833 14.167 -143.5 42.5s-57.834 65.166 -66.501 110.499z" />
    <glyph glyph-name="abreve" unicode="&#x103;" horiz-adv-x="585" 
d="M393 0l-0.00878906 62.9971c-39.333 -50 -95.666 -75 -168.999 -75c-33.333 0 -62.333 3.83301 -87 11.5s-43.167 16.834 -55.5 27.501s-22 23.5 -29 38.5s-11.333 27.5 -13 37.5s-2.5 20.667 -2.5 32c0 24.667 4.83301 46.5 14.5 65.5s21.667 33.5 36 43.5
s26.833 17.5 37.5 22.5s20.334 8.5 29.001 10.5c11.333 3.33301 23.333 6 36 8s27 4 43 6l39 5l49 7l28 4c4.66699 0.666992 10.334 2.83398 17.001 6.50098s10.834 9 12.501 16s2.5 16.5 2.5 28.5c0 58.667 -33 88 -99 88c-41.333 0 -71.666 -9.16699 -90.999 -27.5
s-28.333 -40.833 -27 -67.5h-114c-1.33301 50.667 17.334 92.834 56.001 126.501s97.334 50.5 176.001 50.5c38.667 0 72.334 -4.5 101.001 -13.5s50.334 -19.667 65.001 -32s26.167 -27.5 34.5 -45.5s13.5 -33.5 15.5 -46.5s3 -27.167 3 -42.5v-266h64v-82h-172z
M380.991 225.997l0.000976562 18c-12 -8.66699 -40.667 -15.667 -86 -21c-21.333 -2.66699 -36.833 -4.83398 -46.5 -6.50098s-21.334 -4.5 -35.001 -8.5s-23.5 -8.66699 -29.5 -14s-11.333 -12.666 -16 -21.999s-7 -20.333 -7 -33c0 -20.667 6.5 -37.334 19.5 -50.001
s32.833 -19 59.5 -19c17.333 0 33.333 2 48 6s29.5 11.333 44.5 22s26.833 26.834 35.5 48.501s13 48.167 13 79.5zM382.992 699.997h102c-5.33301 -36.667 -23.5 -69.667 -54.5 -99s-78.5 -44 -142.5 -44s-111.5 14.667 -142.5 44s-49.167 62.333 -54.5 99h102
c2.66699 -22.667 12.667 -40.5 30 -53.5s39 -19.5 65 -19.5s47.667 6.5 65 19.5s27.333 30.833 30 53.5z" />
    <glyph glyph-name="Aogonek" unicode="&#x104;" horiz-adv-x="726" 
d="M597 0l-139.999 -0.000976562v96h65l-21 61h-274l-21 -61h57v-96h-263v106h80l187 493h-60v101h225l224 -594h70v-106h-21c-28.667 -9.33301 -50.834 -25.5 -66.501 -48.5s-23.5 -50.167 -23.5 -81.5c0 -20 5 -35.833 15 -47.5s23.667 -17.5 41 -17.5
c18 0 31.5 6 40.5 18s13.167 26.667 12.5 44h86c-0.666992 -8.66699 -2.16699 -17.167 -4.5 -25.5s-6.83301 -19 -13.5 -32s-15.167 -24.333 -25.5 -34s-25.166 -18 -44.499 -25s-41.333 -10.5 -66 -10.5c-46.667 0 -81.334 12.333 -104.001 37s-34 54.334 -34 89.001
c0 26 6.66699 51.5 20 76.5s33 44.167 59 57.5zM363.001 573.999l-106 -314h210z" />
    <glyph glyph-name="aogonek" unicode="&#x105;" horiz-adv-x="585" 
d="M393 0l-0.00488281 62.9971c-39.333 -50 -95.666 -75 -168.999 -75c-33.333 0 -62.333 3.83301 -87 11.5s-43.167 16.834 -55.5 27.501s-22 23.5 -29 38.5s-11.333 27.5 -13 37.5s-2.5 20.667 -2.5 32c0 24.667 4.83301 46.5 14.5 65.5s21.667 33.5 36 43.5
s26.833 17.5 37.5 22.5s20.334 8.5 29.001 10.5c11.333 3.33301 23.333 6 36 8s27 4 43 6l39 5l49 7l28 4c4.66699 0.666992 10.334 2.83398 17.001 6.50098s10.834 9 12.501 16s2.5 16.5 2.5 28.5c0 58.667 -33 88 -99 88c-41.333 0 -71.666 -9.16699 -90.999 -27.5
s-28.333 -40.833 -27 -67.5h-114c-1.33301 50.667 17.334 92.834 56.001 126.501s97.334 50.5 176.001 50.5c38.667 0 72.334 -4.5 101.001 -13.5s50.334 -19.667 65.001 -32s26.167 -27.5 34.5 -45.5s13.5 -33.5 15.5 -46.5s3 -27.167 3 -42.5v-266h64v-82h-20
c-26 -8.66699 -46.333 -23.667 -61 -45s-22 -46.333 -22 -75c0 -18 4.5 -32.5 13.5 -43.5s21.5 -16.5 37.5 -16.5c16.667 0 29.167 5.66699 37.5 17s12.166 24.666 11.499 39.999h80c-0.666992 -7.33301 -2 -15 -4 -23s-6.33301 -18 -13 -30s-14.834 -22.333 -24.501 -31
s-23.334 -16.334 -41.001 -23.001s-37.834 -10 -60.501 -10c-42.667 0 -74.5 11.5 -95.5 34.5s-31.5 50.167 -31.5 81.5c0 24.667 6 48.334 18 71.001s30.333 40.334 55 53.001h-52zM380.995 225.997l0.000976562 18c-12 -8.66699 -40.667 -15.667 -86 -21
c-21.333 -2.66699 -36.833 -4.83398 -46.5 -6.50098s-21.334 -4.5 -35.001 -8.5s-23.5 -8.66699 -29.5 -14s-11.333 -12.666 -16 -21.999s-7 -20.333 -7 -33c0 -20.667 6.5 -37.334 19.5 -50.001s32.833 -19 59.5 -19c17.333 0 33.333 2 48 6s29.5 11.333 44.5 22
s26.833 26.834 35.5 48.501s13 48.167 13 79.5z" />
    <glyph glyph-name="Cacute" unicode="&#x106;" horiz-adv-x="733" 
d="M569 700l105.992 -0.000976562v-225h-106c-4.66699 36.667 -21.667 69.167 -51 97.5s-73.666 42.5 -132.999 42.5c-37.333 0 -69.666 -7.16699 -96.999 -21.5s-48.5 -34.5 -63.5 -60.5s-25.833 -54.5 -32.5 -85.5s-10 -65.833 -10 -104.5
c0 -80.667 19.833 -143.834 59.5 -189.501s91.834 -68.5 156.501 -68.5c54 0 95.167 15.167 123.5 45.5s43.833 66.5 46.5 108.5h127c-2.66699 -24 -7 -46.833 -13 -68.5s-16.167 -44.667 -30.5 -69s-32.166 -45.166 -53.499 -62.499s-49.666 -31.666 -84.999 -42.999
s-75.666 -17 -120.999 -17c-12.667 0 -25 0.333008 -37 1s-30.333 3.5 -55 8.5s-47.167 11.667 -67.5 20s-42.666 21.5 -66.999 39.5s-44.833 39.167 -61.5 63.5s-30.667 56 -42 95s-17 82.833 -17 131.5c0 69.333 8.83301 129.5 26.5 180.5s42.334 90.833 74.001 119.5
s66.5 49.667 104.5 63s80 20 126 20c84 0 148.333 -26.667 193 -80v59zM392.992 899.999h136l-118 -140h-96z" />
    <glyph glyph-name="cacute" unicode="&#x107;" horiz-adv-x="578" 
d="M519 339l-83.998 0.00390625c-2.66699 28.667 -15.167 53.667 -37.5 75s-52.833 32 -91.5 32c-90 0 -135 -64.333 -135 -193c0 -37.333 4.33301 -69.333 13 -96s20.167 -46.5 34.5 -59.5s28.833 -22.167 43.5 -27.5s30 -8 46 -8c39.333 0 68 12.833 86 38.5
s28 54.167 30 85.5h114c-2 -16.667 -5.33301 -33.334 -10 -50.001s-12.834 -34.667 -24.501 -54s-25.834 -36.333 -42.501 -51s-39.167 -26.834 -67.5 -36.501s-60.166 -14.5 -95.499 -14.5c-84 0 -147.5 24.667 -190.5 74s-64.5 115.666 -64.5 198.999
c0 41.333 4.33301 78.166 13 110.499s20.667 58 36 77s31.166 34.833 47.499 47.5s34.833 21.667 55.5 27s37.667 8.83301 51 10.5s27.333 2.5 42 2.5c66 0 115.667 -20.333 149 -61v41h82v-169zM303.002 700.004h130l-110 -132h-90z" />
    <glyph glyph-name="Ccircumflex" unicode="&#x108;" horiz-adv-x="733" 
d="M569 700l105.992 -0.000976562v-225h-106c-4.66699 36.667 -21.667 69.167 -51 97.5s-73.666 42.5 -132.999 42.5c-37.333 0 -69.666 -7.16699 -96.999 -21.5s-48.5 -34.5 -63.5 -60.5s-25.833 -54.5 -32.5 -85.5s-10 -65.833 -10 -104.5
c0 -80.667 19.833 -143.834 59.5 -189.501s91.834 -68.5 156.501 -68.5c54 0 95.167 15.167 123.5 45.5s43.833 66.5 46.5 108.5h127c-2.66699 -24 -7 -46.833 -13 -68.5s-16.167 -44.667 -30.5 -69s-32.166 -45.166 -53.499 -62.499s-49.666 -31.666 -84.999 -42.999
s-75.666 -17 -120.999 -17c-12.667 0 -25 0.333008 -37 1s-30.333 3.5 -55 8.5s-47.167 11.667 -67.5 20s-42.666 21.5 -66.999 39.5s-44.833 39.167 -61.5 63.5s-30.667 56 -42 95s-17 82.833 -17 131.5c0 69.333 8.83301 129.5 26.5 180.5s42.334 90.833 74.001 119.5
s66.5 49.667 104.5 63s80 20 126 20c84 0 148.333 -26.667 193 -80v59zM369.992 853.999l-100 -94h-120l134 140h172l134 -140h-120z" />
    <glyph glyph-name="ccircumflex" unicode="&#x109;" horiz-adv-x="578" 
d="M519 339l-83.998 0.00390625c-2.66699 28.667 -15.167 53.667 -37.5 75s-52.833 32 -91.5 32c-90 0 -135 -64.333 -135 -193c0 -37.333 4.33301 -69.333 13 -96s20.167 -46.5 34.5 -59.5s28.833 -22.167 43.5 -27.5s30 -8 46 -8c39.333 0 68 12.833 86 38.5
s28 54.167 30 85.5h114c-2 -16.667 -5.33301 -33.334 -10 -50.001s-12.834 -34.667 -24.501 -54s-25.834 -36.333 -42.501 -51s-39.167 -26.834 -67.5 -36.501s-60.166 -14.5 -95.499 -14.5c-84 0 -147.5 24.667 -190.5 74s-64.5 115.666 -64.5 198.999
c0 41.333 4.33301 78.166 13 110.499s20.667 58 36 77s31.166 34.833 47.499 47.5s34.833 21.667 55.5 27s37.667 8.83301 51 10.5s27.333 2.5 42 2.5c66 0 115.667 -20.333 149 -61v41h82v-169zM287.002 657.004l-90 -89h-110l120 132h160l120 -132h-110z" />
    <glyph glyph-name="Cdotaccent" unicode="&#x10a;" horiz-adv-x="733" 
d="M569 700l105.992 -0.000976562v-225h-106c-4.66699 36.667 -21.667 69.167 -51 97.5s-73.666 42.5 -132.999 42.5c-37.333 0 -69.666 -7.16699 -96.999 -21.5s-48.5 -34.5 -63.5 -60.5s-25.833 -54.5 -32.5 -85.5s-10 -65.833 -10 -104.5
c0 -80.667 19.833 -143.834 59.5 -189.501s91.834 -68.5 156.501 -68.5c54 0 95.167 15.167 123.5 45.5s43.833 66.5 46.5 108.5h127c-2.66699 -24 -7 -46.833 -13 -68.5s-16.167 -44.667 -30.5 -69s-32.166 -45.166 -53.499 -62.499s-49.666 -31.666 -84.999 -42.999
s-75.666 -17 -120.999 -17c-12.667 0 -25 0.333008 -37 1s-30.333 3.5 -55 8.5s-47.167 11.667 -67.5 20s-42.666 21.5 -66.999 39.5s-44.833 39.167 -61.5 63.5s-30.667 56 -42 95s-17 82.833 -17 131.5c0 69.333 8.83301 129.5 26.5 180.5s42.334 90.833 74.001 119.5
s66.5 49.667 104.5 63s80 20 126 20c84 0 148.333 -26.667 193 -80v59zM305.992 771.999v100h128v-100h-128z" />
    <glyph glyph-name="cdotaccent" unicode="&#x10b;" horiz-adv-x="578" 
d="M519 339l-83.998 0.00390625c-2.66699 28.667 -15.167 53.667 -37.5 75s-52.833 32 -91.5 32c-90 0 -135 -64.333 -135 -193c0 -37.333 4.33301 -69.333 13 -96s20.167 -46.5 34.5 -59.5s28.833 -22.167 43.5 -27.5s30 -8 46 -8c39.333 0 68 12.833 86 38.5
s28 54.167 30 85.5h114c-2 -16.667 -5.33301 -33.334 -10 -50.001s-12.834 -34.667 -24.501 -54s-25.834 -36.333 -42.501 -51s-39.167 -26.834 -67.5 -36.501s-60.166 -14.5 -95.499 -14.5c-84 0 -147.5 24.667 -190.5 74s-64.5 115.666 -64.5 198.999
c0 41.333 4.33301 78.166 13 110.499s20.667 58 36 77s31.166 34.833 47.499 47.5s34.833 21.667 55.5 27s37.667 8.83301 51 10.5s27.333 2.5 42 2.5c66 0 115.667 -20.333 149 -61v41h82v-169zM229.002 594.004v106h120v-106h-120z" />
    <glyph glyph-name="Ccaron" unicode="&#x10c;" horiz-adv-x="733" 
d="M569 700l105.992 -0.000976562v-225h-106c-4.66699 36.667 -21.667 69.167 -51 97.5s-73.666 42.5 -132.999 42.5c-37.333 0 -69.666 -7.16699 -96.999 -21.5s-48.5 -34.5 -63.5 -60.5s-25.833 -54.5 -32.5 -85.5s-10 -65.833 -10 -104.5
c0 -80.667 19.833 -143.834 59.5 -189.501s91.834 -68.5 156.501 -68.5c54 0 95.167 15.167 123.5 45.5s43.833 66.5 46.5 108.5h127c-2.66699 -24 -7 -46.833 -13 -68.5s-16.167 -44.667 -30.5 -69s-32.166 -45.166 -53.499 -62.499s-49.666 -31.666 -84.999 -42.999
s-75.666 -17 -120.999 -17c-12.667 0 -25 0.333008 -37 1s-30.333 3.5 -55 8.5s-47.167 11.667 -67.5 20s-42.666 21.5 -66.999 39.5s-44.833 39.167 -61.5 63.5s-30.667 56 -42 95s-17 82.833 -17 131.5c0 69.333 8.83301 129.5 26.5 180.5s42.334 90.833 74.001 119.5
s66.5 49.667 104.5 63s80 20 126 20c84 0 148.333 -26.667 193 -80v59zM375.992 805.999l100 94h120l-134 -140h-172l-134 140h120z" />
    <glyph glyph-name="ccaron" unicode="&#x10d;" horiz-adv-x="578" 
d="M519 339l-83.998 0.00390625c-2.66699 28.667 -15.167 53.667 -37.5 75s-52.833 32 -91.5 32c-90 0 -135 -64.333 -135 -193c0 -37.333 4.33301 -69.333 13 -96s20.167 -46.5 34.5 -59.5s28.833 -22.167 43.5 -27.5s30 -8 46 -8c39.333 0 68 12.833 86 38.5
s28 54.167 30 85.5h114c-2 -16.667 -5.33301 -33.334 -10 -50.001s-12.834 -34.667 -24.501 -54s-25.834 -36.333 -42.501 -51s-39.167 -26.834 -67.5 -36.501s-60.166 -14.5 -95.499 -14.5c-84 0 -147.5 24.667 -190.5 74s-64.5 115.666 -64.5 198.999
c0 41.333 4.33301 78.166 13 110.499s20.667 58 36 77s31.166 34.833 47.499 47.5s34.833 21.667 55.5 27s37.667 8.83301 51 10.5s27.333 2.5 42 2.5c66 0 115.667 -20.333 149 -61v41h82v-169zM287.002 611.004l90 89h110l-120 -132h-160l-120 132h110z" />
    <glyph glyph-name="Dcaron" unicode="&#x10e;" horiz-adv-x="785" 
d="M55 594v105.999h343c54.667 0 103.167 -7.66699 145.5 -23s75.666 -34.5 99.999 -57.5s44.166 -50.667 59.499 -83s25.5 -63.166 30.5 -92.499s7.5 -60 7.5 -92c0 -59.333 -8.66699 -111.333 -26 -156s-38.666 -79 -63.999 -103s-55.666 -43.5 -90.999 -58.5
s-67.333 -24.5 -96 -28.5s-59 -6 -91 -6h-318v106h69v488h-69zM252 593.999v-487.999h115c17.333 0 33.666 0.833008 48.999 2.5s35.5 7.16699 60.5 16.5s46 22 63 38s32 40.167 45 72.5s19.5 70.5 19.5 114.5c0 40 -5.16699 75.333 -15.5 106s-23.166 54.5 -38.499 71.5
s-33.333 30.667 -54 41s-39.5 17.166 -56.5 20.499s-34.5 5 -52.5 5h-135zM369 806l100 94h120l-134 -140h-172l-134 140h120z" />
    <glyph glyph-name="dcaron" unicode="&#x10f;" horiz-adv-x="777" 
d="M628 82l0.00195312 -82h-174v50h-2c-36.667 -46.667 -91.334 -70 -164.001 -70c-31.333 0 -61 5 -89 15s-54 25.333 -78 46s-43 49 -57 85s-21 77.667 -21 125c0 50.667 7.83301 96.167 23.5 136.5s42.167 73.833 79.5 100.5s83.333 40 138 40c8 0 16.667 -0.5 26 -1.5
s23.5 -3.33301 42.5 -7s36.667 -11 53 -22s29.166 -24.833 38.499 -41.5v162h-64v82h184v-618h64zM171.002 250c0 -40 5.32812 -73.5 15.9951 -100.5s24.334 -46.333 41.001 -58s31.834 -19.5 45.501 -23.5s27.167 -6 40.5 -6c42.667 0 76.5 17.667 101.5 53
s37.5 81.333 37.5 138c0 38.667 -4.66699 71.667 -14 99s-21.666 47.333 -36.999 60s-30.166 21.5 -44.499 26.5s-29.166 7.5 -44.499 7.5c-40.667 0 -74.5 -15.833 -101.5 -47.5s-40.5 -81.167 -40.5 -148.5zM634.997 700l132.001 0.000976562v-139
c0 -52 -12.833 -89.833 -38.5 -113.5s-56.834 -37.167 -93.501 -40.5v69c20 1.33301 36.167 9.16602 48.5 23.499s18.5 32.5 18.5 54.5v11h-67v135z" />
    <glyph glyph-name="Dcroat" unicode="&#x110;" horiz-adv-x="785" 
d="M55 594v105.999h343c54.667 0 103.167 -7.66699 145.5 -23s75.666 -34.5 99.999 -57.5s44.166 -50.667 59.499 -83s25.5 -63.166 30.5 -92.499s7.5 -60 7.5 -92c0 -59.333 -8.66699 -111.333 -26 -156s-38.666 -79 -63.999 -103s-55.666 -43.5 -90.999 -58.5
s-67.333 -24.5 -96 -28.5s-59 -6 -91 -6h-318v106h69v225h-94v82h94v181h-69zM252 593.999v-180.999h198v-82h-198v-225h115c17.333 0 33.666 0.833008 48.999 2.5s35.5 7.16699 60.5 16.5s46 22 63 38s32 40.167 45 72.5s19.5 70.5 19.5 114.5
c0 40 -5.16699 75.333 -15.5 106s-23.166 54.5 -38.499 71.5s-33.333 30.667 -54 41s-39.5 17.166 -56.5 20.499s-34.5 5 -52.5 5h-135z" />
    <glyph glyph-name="dslash" unicode="&#x111;" horiz-adv-x="668" 
d="M628 82l0.00195312 -82h-174v50h-2c-36.667 -46.667 -91.334 -70 -164.001 -70c-31.333 0 -61 4.5 -89 13.5s-54 23.167 -78 42.5s-43 46.5 -57 81.5s-21 76.167 -21 123.5c0 50.667 7.83301 96.167 23.5 136.5s42.167 73.833 79.5 100.5s83.333 40 138 40
c8 0 16.667 -0.5 26 -1.5s23.5 -3.33301 42.5 -7s36.667 -11 53 -22s29.166 -24.833 38.499 -41.5v100h-180v54h180v28h-64v72h184v-100h80v-54h-80v-464h64zM171.002 240c0 -37.333 4.99707 -68.833 14.9971 -94.5s23.167 -44 39.5 -55s31.333 -18.5 45 -22.5
s28.167 -6 43.5 -6c39.333 0 72.333 16.5 99 49.5s40 76.833 40 131.5c0 38.667 -4.66699 71.667 -14 99s-21.666 47.333 -36.999 60s-30.166 21.5 -44.499 26.5s-29.166 7.5 -44.499 7.5c-40.667 0 -74.5 -15.833 -101.5 -47.5s-40.5 -81.167 -40.5 -148.5z" />
    <glyph glyph-name="Emacron" unicode="&#x112;" horiz-adv-x="690" 
d="M55 594v106h594v-225h-106v119h-291v-182h245v-106h-245v-200h302v136h106v-242h-605v106h69v488h-69zM193 760v80h330v-80h-330z" />
    <glyph glyph-name="emacron" unicode="&#x113;" horiz-adv-x="594" 
d="M429 147h114.001c-4 -19.333 -10.167 -37.5 -18.5 -54.5s-21 -34.667 -38 -53s-41.5 -32.833 -73.5 -43.5s-69.333 -16 -112 -16c-16 0 -31.833 0.833008 -47.5 2.5s-37.167 7.5 -64.5 17.5s-50.833 23.5 -70.5 40.5s-37.167 43.333 -52.5 79s-23 77.5 -23 125.5
c0 88.667 21.833 158 65.5 208s108.167 75 193.5 75c158 0 240.667 -92 248 -276c0 -4 0.166992 -9 0.5 -15s0.5 -10.667 0.5 -14h-380c0 -18 2.33301 -35.667 7 -53s12 -34.5 22 -51.5s24.667 -30.667 44 -41s41.666 -15.5 66.999 -15.5c28.667 0 54.5 7.5 77.5 22.5
s36.5 35.833 40.5 62.5zM171.001 305l253 0.000976562c0 14 -1.5 28 -4.5 42s-8.5 29 -16.5 45s-20.5 29 -37.5 39s-37.833 15 -62.5 15c-43.333 0 -76.5 -14.333 -99.5 -43s-33.833 -61.334 -32.5 -98.001zM132.001 602.001v82h330v-82h-330z" />
    <glyph glyph-name="Edotaccent" unicode="&#x116;" horiz-adv-x="690" 
d="M55 594v106h594v-225h-106v119h-291v-182h245v-106h-245v-200h302v136h106v-242h-605v106h69v488h-69zM294 772v100h128v-100h-128z" />
    <glyph glyph-name="edotaccent" unicode="&#x117;" horiz-adv-x="594" 
d="M429 147h114.001c-4 -19.333 -10.167 -37.5 -18.5 -54.5s-21 -34.667 -38 -53s-41.5 -32.833 -73.5 -43.5s-69.333 -16 -112 -16c-16 0 -31.833 0.833008 -47.5 2.5s-37.167 7.5 -64.5 17.5s-50.833 23.5 -70.5 40.5s-37.167 43.333 -52.5 79s-23 77.5 -23 125.5
c0 88.667 21.833 158 65.5 208s108.167 75 193.5 75c158 0 240.667 -92 248 -276c0 -4 0.166992 -9 0.5 -15s0.5 -10.667 0.5 -14h-380c0 -18 2.33301 -35.667 7 -53s12 -34.5 22 -51.5s24.667 -30.667 44 -41s41.666 -15.5 66.999 -15.5c28.667 0 54.5 7.5 77.5 22.5
s36.5 35.833 40.5 62.5zM171.001 305l253 0.000976562c0 14 -1.5 28 -4.5 42s-8.5 29 -16.5 45s-20.5 29 -37.5 39s-37.833 15 -62.5 15c-43.333 0 -76.5 -14.333 -99.5 -43s-33.833 -61.334 -32.5 -98.001zM237.001 594.001v106h120v-106h-120z" />
    <glyph glyph-name="Eogonek" unicode="&#x118;" horiz-adv-x="690" 
d="M398 0l-342.999 -0.000976562v106h69v488h-69v106h594v-225h-106v119h-291v-182h245v-106h-245v-200h302v136h106v-242h-154c-28.667 -9.33301 -50.834 -25.5 -66.501 -48.5s-23.5 -50.167 -23.5 -81.5c0 -20 5 -35.833 15 -47.5s23.667 -17.5 41 -17.5
c18 0 31.5 6 40.5 18s13.167 26.667 12.5 44h86c-0.666992 -8.66699 -2.16699 -17.167 -4.5 -25.5s-6.83301 -19 -13.5 -32s-15.167 -24.333 -25.5 -34s-25.166 -18 -44.499 -25s-41.333 -10.5 -66 -10.5c-46.667 0 -81.334 12.333 -104.001 37s-34 54.334 -34 89.001
c0 26 6.66699 51.5 20 76.5s33 44.167 59 57.5z" />
    <glyph glyph-name="eogonek" unicode="&#x119;" horiz-adv-x="594" 
d="M429 147l114.005 -0.000976562c-4.66699 -29.333 -16.5 -57.5 -35.5 -84.5s-47.5 -47.833 -85.5 -62.5h1c-26 -8.66699 -46.333 -23.667 -61 -45s-22 -46.333 -22 -75c0 -18 4.5 -32.5 13.5 -43.5s21.5 -16.5 37.5 -16.5c16.667 0 29.167 5.66699 37.5 17
s12.166 24.666 11.499 39.999h80c-0.666992 -7.33301 -2 -15 -4 -23s-6.33301 -18 -13 -30s-14.834 -22.333 -24.501 -31s-23.334 -16.334 -41.001 -23.001s-37.834 -10 -60.501 -10c-42.667 0 -74.5 11.5 -95.5 34.5s-31.5 50.167 -31.5 81.5
c0 42.667 14.667 77.334 44 104.001c-16 0 -32.5 1.16699 -49.5 3.5s-38.333 8.83301 -64 19.5s-48 24.834 -67 42.501s-35.5 43.834 -49.5 78.501s-21 75 -21 121c0 88.667 21.833 158 65.5 208s108.167 75 193.5 75c158 0 240.667 -92 248 -276c0 -4 0.166992 -9 0.5 -15
s0.5 -10.667 0.5 -14h-380c0 -18 2.33301 -35.667 7 -53s12 -34.5 22 -51.5s24.667 -30.667 44 -41s41.666 -15.5 66.999 -15.5c28.667 0 54.5 7.5 77.5 22.5s36.5 35.833 40.5 62.5zM171.005 304.999l253 0.000976562c0 14 -1.5 28 -4.5 42s-8.5 29 -16.5 45
s-20.5 29 -37.5 39s-37.833 15 -62.5 15c-43.333 0 -76.5 -14.333 -99.5 -43s-33.833 -61.334 -32.5 -98.001z" />
    <glyph glyph-name="Ecaron" unicode="&#x11a;" horiz-adv-x="690" 
d="M55 594v106h594v-225h-106v119h-291v-182h245v-106h-245v-200h302v136h106v-242h-605v106h69v488h-69zM358 806l100 94h120l-134 -140h-172l-134 140h120z" />
    <glyph glyph-name="ecaron" unicode="&#x11b;" horiz-adv-x="594" 
d="M429 147h114.001c-4 -19.333 -10.167 -37.5 -18.5 -54.5s-21 -34.667 -38 -53s-41.5 -32.833 -73.5 -43.5s-69.333 -16 -112 -16c-16 0 -31.833 0.833008 -47.5 2.5s-37.167 7.5 -64.5 17.5s-50.833 23.5 -70.5 40.5s-37.167 43.333 -52.5 79s-23 77.5 -23 125.5
c0 88.667 21.833 158 65.5 208s108.167 75 193.5 75c158 0 240.667 -92 248 -276c0 -4 0.166992 -9 0.5 -15s0.5 -10.667 0.5 -14h-380c0 -18 2.33301 -35.667 7 -53s12 -34.5 22 -51.5s24.667 -30.667 44 -41s41.666 -15.5 66.999 -15.5c28.667 0 54.5 7.5 77.5 22.5
s36.5 35.833 40.5 62.5zM171.001 305l253 0.000976562c0 14 -1.5 28 -4.5 42s-8.5 29 -16.5 45s-20.5 29 -37.5 39s-37.833 15 -62.5 15c-43.333 0 -76.5 -14.333 -99.5 -43s-33.833 -61.334 -32.5 -98.001zM297.001 611.001l90 89h110l-120 -132h-160l-120 132h110z" />
    <glyph glyph-name="Gcircumflex" unicode="&#x11c;" horiz-adv-x="793" 
d="M412 269l-0.00585938 105.996h365v-106h-79v-269h-92v95h-2c-40 -77.333 -113.333 -116 -220 -116c-43.333 0 -84.166 6.16699 -122.499 18.5s-74.166 31.833 -107.499 58.5s-59.833 64.334 -79.5 113.001s-29.5 106 -29.5 172c0 62.667 7.66699 117.667 23 165
s34.333 84.333 57 111s49.834 48.167 81.501 64.5s60.834 27 87.501 32s54.667 7.5 84 7.5c40.667 0 77.834 -7.66699 111.501 -23s60.834 -35.666 81.501 -60.999v63h106v-225h-106c-5.33301 34.667 -22.666 66.667 -51.999 96s-72.666 44 -129.999 44
c-34 0 -63.833 -6.16699 -89.5 -18.5s-45.834 -27.666 -60.501 -45.999s-26.5 -40.166 -35.5 -65.499s-14.833 -49.166 -17.5 -71.499s-4 -45.833 -4 -70.5c0 -49.333 7.16699 -91.833 21.5 -127.5s33 -62.334 56 -80.001s46 -30.5 69 -38.5s46.167 -12 69.5 -12
c18 0 36.333 2.5 55 7.5s38.167 13.5 58.5 25.5s37.166 31 50.499 57s20.333 57.333 21 94h-171zM365.994 853.996l-100 -94h-120l134 140h172l134 -140h-120z" />
    <glyph glyph-name="gcircumflex" unicode="&#x11d;" horiz-adv-x="672" 
d="M458 508l173.999 -0.00195312v-82h-64v-403c0 -70 -22.5 -123.5 -67.5 -160.5s-108.167 -55.5 -189.5 -55.5c-134 0 -208 48 -222 144h110c4.66699 -21.333 18.5 -36.666 41.5 -45.999s48.167 -14 75.5 -14c29.333 0 53.5 4.33301 72.5 13s32.5 20.667 40.5 36
s13.167 29.333 15.5 42s3.5 27 3.5 43v39c-9.33301 -16.667 -22.166 -30.5 -38.499 -41.5s-34 -18.333 -53 -22s-33.167 -6 -42.5 -7s-18 -1.5 -26 -1.5c-54.667 0 -100.667 12.667 -138 38s-63.833 57.333 -79.5 96s-23.5 82.334 -23.5 131.001c0 47.333 7 89 21 125
s33 64.333 57 85s50 36 78 46s57.667 15 89 15c71.333 0 126 -23.333 164 -70h2v50zM174.999 255.998c0 -31.333 3.66992 -58.832 11.0029 -82.499s16.166 -41.5 26.499 -53.5s22.666 -21.833 36.999 -29.5s26.666 -12.334 36.999 -14.001s20.833 -2.5 31.5 -2.5
c38 0 70.667 15.833 98 47.5s41 77.5 41 137.5c0 64.667 -13.333 112 -40 142s-60 45 -100 45c-44.667 0 -79.5 -16.667 -104.5 -50s-37.5 -80 -37.5 -140zM320.002 656.999l-90 -89h-110l120 132h160l120 -132h-110z" />
    <glyph glyph-name="Gbreve" unicode="&#x11e;" horiz-adv-x="793" 
d="M412 269l-0.00585938 105.996h365v-106h-79v-269h-92v95h-2c-40 -77.333 -113.333 -116 -220 -116c-43.333 0 -84.166 6.16699 -122.499 18.5s-74.166 31.833 -107.499 58.5s-59.833 64.334 -79.5 113.001s-29.5 106 -29.5 172c0 62.667 7.66699 117.667 23 165
s34.333 84.333 57 111s49.834 48.167 81.501 64.5s60.834 27 87.501 32s54.667 7.5 84 7.5c40.667 0 77.834 -7.66699 111.501 -23s60.834 -35.666 81.501 -60.999v63h106v-225h-106c-5.33301 34.667 -22.666 66.667 -51.999 96s-72.666 44 -129.999 44
c-34 0 -63.833 -6.16699 -89.5 -18.5s-45.834 -27.666 -60.501 -45.999s-26.5 -40.166 -35.5 -65.499s-14.833 -49.166 -17.5 -71.499s-4 -45.833 -4 -70.5c0 -49.333 7.16699 -91.833 21.5 -127.5s33 -62.334 56 -80.001s46 -30.5 69 -38.5s46.167 -12 69.5 -12
c18 0 36.333 2.5 55 7.5s38.167 13.5 58.5 25.5s37.166 31 50.499 57s20.333 57.333 21 94h-171zM162.994 899.996h103c2.66699 -25.333 13.834 -45.166 33.501 -59.499s44.167 -21.5 73.5 -21.5s53.833 7.16699 73.5 21.5s30.834 34.166 33.501 59.499h103
c-8.66699 -45.333 -30.834 -82.166 -66.501 -110.499s-83.5 -42.5 -143.5 -42.5s-107.833 14.167 -143.5 42.5s-57.834 65.166 -66.501 110.499z" />
    <glyph glyph-name="gbreve" unicode="&#x11f;" horiz-adv-x="672" 
d="M458 508l173.999 -0.00195312v-82h-64v-403c0 -70 -22.5 -123.5 -67.5 -160.5s-108.167 -55.5 -189.5 -55.5c-134 0 -208 48 -222 144h110c4.66699 -21.333 18.5 -36.666 41.5 -45.999s48.167 -14 75.5 -14c29.333 0 53.5 4.33301 72.5 13s32.5 20.667 40.5 36
s13.167 29.333 15.5 42s3.5 27 3.5 43v39c-9.33301 -16.667 -22.166 -30.5 -38.499 -41.5s-34 -18.333 -53 -22s-33.167 -6 -42.5 -7s-18 -1.5 -26 -1.5c-54.667 0 -100.667 12.667 -138 38s-63.833 57.333 -79.5 96s-23.5 82.334 -23.5 131.001c0 47.333 7 89 21 125
s33 64.333 57 85s50 36 78 46s57.667 15 89 15c71.333 0 126 -23.333 164 -70h2v50zM174.999 255.998c0 -31.333 3.66992 -58.832 11.0029 -82.499s16.166 -41.5 26.499 -53.5s22.666 -21.833 36.999 -29.5s26.666 -12.334 36.999 -14.001s20.833 -2.5 31.5 -2.5
c38 0 70.667 15.833 98 47.5s41 77.5 41 137.5c0 64.667 -13.333 112 -40 142s-60 45 -100 45c-44.667 0 -79.5 -16.667 -104.5 -50s-37.5 -80 -37.5 -140zM392.002 699.999h102c-5.33301 -36.667 -23.5 -69.667 -54.5 -99s-78.5 -44 -142.5 -44s-111.5 14.667 -142.5 44
s-49.167 62.333 -54.5 99h102c2.66699 -22.667 12.667 -40.5 30 -53.5s39 -19.5 65 -19.5s47.667 6.5 65 19.5s27.333 30.833 30 53.5z" />
    <glyph glyph-name="Gdotaccent" unicode="&#x120;" horiz-adv-x="793" 
d="M412 269l-0.00585938 105.996h365v-106h-79v-269h-92v95h-2c-40 -77.333 -113.333 -116 -220 -116c-43.333 0 -84.166 6.16699 -122.499 18.5s-74.166 31.833 -107.499 58.5s-59.833 64.334 -79.5 113.001s-29.5 106 -29.5 172c0 62.667 7.66699 117.667 23 165
s34.333 84.333 57 111s49.834 48.167 81.501 64.5s60.834 27 87.501 32s54.667 7.5 84 7.5c40.667 0 77.834 -7.66699 111.501 -23s60.834 -35.666 81.501 -60.999v63h106v-225h-106c-5.33301 34.667 -22.666 66.667 -51.999 96s-72.666 44 -129.999 44
c-34 0 -63.833 -6.16699 -89.5 -18.5s-45.834 -27.666 -60.501 -45.999s-26.5 -40.166 -35.5 -65.499s-14.833 -49.166 -17.5 -71.499s-4 -45.833 -4 -70.5c0 -49.333 7.16699 -91.833 21.5 -127.5s33 -62.334 56 -80.001s46 -30.5 69 -38.5s46.167 -12 69.5 -12
c18 0 36.333 2.5 55 7.5s38.167 13.5 58.5 25.5s37.166 31 50.499 57s20.333 57.333 21 94h-171zM323.994 771.996v100h128v-100h-128z" />
    <glyph glyph-name="gdotaccent" unicode="&#x121;" horiz-adv-x="672" 
d="M458 508l173.999 -0.00195312v-82h-64v-403c0 -70 -22.5 -123.5 -67.5 -160.5s-108.167 -55.5 -189.5 -55.5c-134 0 -208 48 -222 144h110c4.66699 -21.333 18.5 -36.666 41.5 -45.999s48.167 -14 75.5 -14c29.333 0 53.5 4.33301 72.5 13s32.5 20.667 40.5 36
s13.167 29.333 15.5 42s3.5 27 3.5 43v39c-9.33301 -16.667 -22.166 -30.5 -38.499 -41.5s-34 -18.333 -53 -22s-33.167 -6 -42.5 -7s-18 -1.5 -26 -1.5c-54.667 0 -100.667 12.667 -138 38s-63.833 57.333 -79.5 96s-23.5 82.334 -23.5 131.001c0 47.333 7 89 21 125
s33 64.333 57 85s50 36 78 46s57.667 15 89 15c71.333 0 126 -23.333 164 -70h2v50zM174.999 255.998c0 -31.333 3.66992 -58.832 11.0029 -82.499s16.166 -41.5 26.499 -53.5s22.666 -21.833 36.999 -29.5s26.666 -12.334 36.999 -14.001s20.833 -2.5 31.5 -2.5
c38 0 70.667 15.833 98 47.5s41 77.5 41 137.5c0 64.667 -13.333 112 -40 142s-60 45 -100 45c-44.667 0 -79.5 -16.667 -104.5 -50s-37.5 -80 -37.5 -140zM276.002 593.999v106h120v-106h-120z" />
    <glyph glyph-name="Gcommaaccent" unicode="&#x122;" horiz-adv-x="793" 
d="M412 269l-0.00585938 105.996h365v-106h-79v-269h-92v95h-2c-40 -77.333 -113.333 -116 -220 -116c-43.333 0 -84.166 6.16699 -122.499 18.5s-74.166 31.833 -107.499 58.5s-59.833 64.334 -79.5 113.001s-29.5 106 -29.5 172c0 62.667 7.66699 117.667 23 165
s34.333 84.333 57 111s49.834 48.167 81.501 64.5s60.834 27 87.501 32s54.667 7.5 84 7.5c40.667 0 77.834 -7.66699 111.501 -23s60.834 -35.666 81.501 -60.999v63h106v-225h-106c-5.33301 34.667 -22.666 66.667 -51.999 96s-72.666 44 -129.999 44
c-34 0 -63.833 -6.16699 -89.5 -18.5s-45.834 -27.666 -60.501 -45.999s-26.5 -40.166 -35.5 -65.499s-14.833 -49.166 -17.5 -71.499s-4 -45.833 -4 -70.5c0 -49.333 7.16699 -91.833 21.5 -127.5s33 -62.334 56 -80.001s46 -30.5 69 -38.5s46.167 -12 69.5 -12
c18 0 36.333 2.5 55 7.5s38.167 13.5 58.5 25.5s37.166 31 50.499 57s20.333 57.333 21 94h-171zM315.994 -60.0039l140.001 0.000976562v-105c0 -20.667 -4 -38.667 -12 -54s-17.333 -26.833 -28 -34.5s-23.334 -13.834 -38.001 -18.501s-26.5 -7.5 -35.5 -8.5
s-17.833 -1.5 -26.5 -1.5v68c19.333 -0.666992 36 2.33301 50 9s21 16.667 21 30v9h-71v106z" />
    <glyph glyph-name="gcommaaccent" unicode="&#x123;" horiz-adv-x="672" 
d="M458 508l173.999 -0.00195312v-82h-64v-403c0 -70 -22.5 -123.5 -67.5 -160.5s-108.167 -55.5 -189.5 -55.5c-134 0 -208 48 -222 144h110c4.66699 -21.333 18.5 -36.666 41.5 -45.999s48.167 -14 75.5 -14c29.333 0 53.5 4.33301 72.5 13s32.5 20.667 40.5 36
s13.167 29.333 15.5 42s3.5 27 3.5 43v39c-9.33301 -16.667 -22.166 -30.5 -38.499 -41.5s-34 -18.333 -53 -22s-33.167 -6 -42.5 -7s-18 -1.5 -26 -1.5c-54.667 0 -100.667 12.667 -138 38s-63.833 57.333 -79.5 96s-23.5 82.334 -23.5 131.001c0 47.333 7 89 21 125
s33 64.333 57 85s50 36 78 46s57.667 15 89 15c71.333 0 126 -23.333 164 -70h2v50zM174.999 255.998c0 -31.333 3.66992 -58.832 11.0029 -82.499s16.166 -41.5 26.499 -53.5s22.666 -21.833 36.999 -29.5s26.666 -12.334 36.999 -14.001s20.833 -2.5 31.5 -2.5
c38 0 70.667 15.833 98 47.5s41 77.5 41 137.5c0 64.667 -13.333 112 -40 142s-60 45 -100 45c-44.667 0 -79.5 -16.667 -104.5 -50s-37.5 -80 -37.5 -140zM372.002 558.999l-132.001 0.000976562v99c0 24 5.33301 44.167 16 60.5s24.167 27.666 40.5 33.999
s30.333 10.666 42 12.999s22.834 3.5 33.501 3.5v-64c-18 0.666992 -33.667 -2.16602 -47 -8.49902s-20 -15.833 -20 -28.5v-9h67v-100z" />
    <glyph glyph-name="Hcircumflex" unicode="&#x124;" horiz-adv-x="819" 
d="M498 0v106h69v208h-315v-208h69v-106h-266v106h69v488h-69v106h266v-106h-69v-174h315v174h-69v106h266v-106h-69v-488h69v-106h-266zM408 854l-100 -94h-120l134 140h172l134 -140h-120z" />
    <glyph glyph-name="hcircumflex" unicode="&#x125;" horiz-adv-x="670" 
d="M382 0l-0.00195312 82h64v220c0 16.667 -0.166992 29.834 -0.5 39.501s-2.16602 22 -5.49902 37s-8.16602 26.667 -14.499 35s-15.833 15.833 -28.5 22.5s-28 10 -46 10c-8.66699 0 -17.334 -0.833008 -26.001 -2.5s-19.5 -5.66699 -32.5 -12s-24.167 -15 -33.5 -26
s-17.5 -27 -24.5 -48s-10.5 -45.5 -10.5 -73.5v-202h64v-82h-248v82h64v536h-64v82h184v-259c16.667 28 40.667 49.5 72 64.5s63 22.5 95 22.5c32.667 0 60.834 -5.66699 84.501 -17s41 -24 52 -38s19.667 -31.167 26 -51.5s10 -35.833 11 -46.5s1.5 -22.334 1.5 -35.001
v-258h64v-82h-248zM154.998 865l-90 -89h-110l120 132h160l120 -132h-110z" />
    <glyph glyph-name="Hbar" unicode="&#x126;" horiz-adv-x="819" 
d="M498 0v106h69v208h-315v-208h69v-106h-266v106h69v372h-69v68h69v48h-69v106h266v-106h-69v-48h315v48h-69v106h266v-106h-69v-48h69v-68h-69v-372h69v-106h-266zM252 420h315v58h-315v-58z" />
    <glyph glyph-name="hbar" unicode="&#x127;" horiz-adv-x="670" 
d="M382 0l-0.00195312 82h64v180c0 16.667 -0.166992 29.834 -0.5 39.501s-2.16602 22 -5.49902 37s-8.16602 26.667 -14.499 35s-15.833 15.833 -28.5 22.5s-28 10 -46 10c-8.66699 0 -17.334 -0.833008 -26.001 -2.5s-19.5 -5.66699 -32.5 -12s-24.167 -15 -33.5 -26
s-17.5 -27 -24.5 -48s-10.5 -45.5 -10.5 -73.5v-162h64v-82h-248v82h64v445h-80v58h80v43h-64v72h184v-115h205v-58h-205v-126c16.667 28 40.667 49.5 72 64.5s63 22.5 95 22.5c32.667 0 60.834 -5.66699 84.501 -17s41 -24 52 -38s19.667 -31.167 26 -51.5
s10 -35.833 11 -46.5s1.5 -22.334 1.5 -35.001v-218h64v-82h-248z" />
    <glyph glyph-name="Imacron" unicode="&#x12a;" horiz-adv-x="376" 
d="M55 594v106h266v-106h-69v-488h69v-106h-266v106h69v488h-69zM24 760v80h330v-80h-330z" />
    <glyph glyph-name="imacron" unicode="&#x12b;" horiz-adv-x="328" 
d="M40 426v82h184v-426h64v-82h-248v82h64v344h-64zM-16 602v82h330v-82h-330z" />
    <glyph glyph-name="Iogonek" unicode="&#x12e;" horiz-adv-x="376" 
d="M145 0l-89.999 -0.000976562v106h69v488h-69v106h266v-106h-69v-488h69v-106h-68c-28.667 -9.33301 -50.834 -25.5 -66.501 -48.5s-23.5 -50.167 -23.5 -81.5c0 -20 5 -35.833 15 -47.5s23.667 -17.5 41 -17.5c18 0 31.5 6 40.5 18s13.167 26.667 12.5 44h86
c-0.666992 -8.66699 -2.16699 -17.167 -4.5 -25.5s-6.83301 -19 -13.5 -32s-15.167 -24.333 -25.5 -34s-25.166 -18 -44.499 -25s-41.333 -10.5 -66 -10.5c-46.667 0 -81.334 12.333 -104.001 37s-34 54.334 -34 89.001c0 26 6.66699 51.5 20 76.5s33 44.167 59 57.5z" />
    <glyph glyph-name="iogonek" unicode="&#x12f;" horiz-adv-x="328" 
d="M119 0h-78.9961v82h64v344h-64v82h184v-426h64v-82h-69c-26 -8.66699 -46.333 -23.667 -61 -45s-22 -46.333 -22 -75c0 -18 4.5 -32.5 13.5 -43.5s21.5 -16.5 37.5 -16.5c16.667 0 29.167 5.66699 37.5 17s12.166 24.666 11.499 39.999h80
c-0.666992 -7.33301 -2 -15 -4 -23s-6.33301 -18 -13 -30s-14.834 -22.333 -24.501 -31s-23.334 -16.334 -41.001 -23.001s-37.834 -10 -60.501 -10c-42.667 0 -74.5 11.5 -95.5 34.5s-31.5 50.167 -31.5 81.5c0 24.667 6 48.334 18 71.001s30.333 40.334 55 53.001z
M104.004 594v106h120v-106h-120z" />
    <glyph glyph-name="Idot" unicode="&#x130;" horiz-adv-x="376" 
d="M55 594v106h266v-106h-69v-488h69v-106h-266v106h69v488h-69zM124 772v100h128v-100h-128z" />
    <glyph glyph-name="dotlessi" unicode="&#x131;" horiz-adv-x="328" 
d="M40 426v82h184v-426h64v-82h-248v82h64v344h-64z" />
    <glyph glyph-name="Jcircumflex" unicode="&#x134;" horiz-adv-x="580" 
d="M271 594l-0.000976562 106.003h274v-106h-69v-346c0 -28.667 -1 -53.334 -3 -74.001s-7.33301 -44.167 -16 -70.5s-20.667 -47.833 -36 -64.5s-37.666 -30.834 -66.999 -42.501s-64.333 -17.5 -105 -17.5c-44.667 0 -82.667 6.66699 -114 20s-55 31.5 -71 54.5
s-27.333 46.667 -34 71s-10 50.833 -10 79.5v39h128v-29c0 -86 34 -129 102 -129c32 0 56.333 9.16699 73 27.5s25 58.166 25 119.499v362h-77zM404.999 854.003l-100 -94h-120l134 140h172l134 -140h-120z" />
    <glyph glyph-name="jcircumflex" unicode="&#x135;" horiz-adv-x="278" 
d="M132 657l-90 -89h-110l120 132h160l120 -132h-110zM34 426v82h184v-535c0 -52.667 -9.33301 -92.834 -28 -120.501s-57 -41.5 -115 -41.5c-27.333 0 -50 1.33301 -68 4v82c33.333 0.666992 56.833 6.83398 70.5 18.501s20.5 33.167 20.5 64.5v446h-64z" />
    <glyph glyph-name="Kcommaaccent" unicode="&#x136;" horiz-adv-x="684" 
d="M272 348l186 246h-51v106h262v-106h-68l-192 -237l210 -251h60v-106h-269v106h55zM252 594v-488h69v-106h-266v106h69v488h-69v106h266v-106h-69zM292 -60l140.001 0.000976562v-105c0 -20.667 -4 -38.667 -12 -54s-17.333 -26.833 -28 -34.5
s-23.334 -13.834 -38.001 -18.501s-26.5 -7.5 -35.5 -8.5s-17.833 -1.5 -26.5 -1.5v68c19.333 -0.666992 36 2.33301 50 9s21 16.667 21 30v9h-71v106z" />
    <glyph glyph-name="kcommaaccent" unicode="&#x137;" horiz-adv-x="578" 
d="M40 618v82h184v-618h60v-82h-244v82h64v536h-64zM239 257l146 169h-39v82h214v-82h-49l-151 -158l162 -186h56v-82h-138zM248 -60l132.001 -0.000976562v-99c0 -24 -5.33301 -44.167 -16 -60.5s-24.167 -27.666 -40.5 -33.999s-30.333 -10.666 -42 -12.999
s-22.834 -3.5 -33.501 -3.5v64c18 -0.666992 33.667 2.16602 47 8.49902s20 15.833 20 28.5v9h-67v100z" />
    <glyph glyph-name="Lacute" unicode="&#x139;" horiz-adv-x="616" 
d="M55 594v106h266v-106h-69v-488h238v158h106v-264h-541v106h69v488h-69zM220 900h136l-118 -140h-96z" />
    <glyph glyph-name="lacute" unicode="&#x13a;" horiz-adv-x="328" 
d="M40 618v82h184v-618h64v-82h-248v82h64v536h-64zM190 884h130l-110 -132h-90z" />
    <glyph glyph-name="Lcommaaccent" unicode="&#x13b;" horiz-adv-x="616" 
d="M55 594v106h266v-106h-69v-488h238v158h106v-264h-541v106h69v488h-69zM249 -60l140.001 0.000976562v-105c0 -20.667 -4 -38.667 -12 -54s-17.333 -26.833 -28 -34.5s-23.334 -13.834 -38.001 -18.501s-26.5 -7.5 -35.5 -8.5s-17.833 -1.5 -26.5 -1.5v68
c19.333 -0.666992 36 2.33301 50 9s21 16.667 21 30v9h-71v106z" />
    <glyph glyph-name="lcommaaccent" unicode="&#x13c;" horiz-adv-x="328" 
d="M40 618v82h184v-618h64v-82h-248v82h64v536h-64zM92 -60l132.001 -0.000976562v-99c0 -24 -5.33301 -44.167 -16 -60.5s-24.167 -27.666 -40.5 -33.999s-30.333 -10.666 -42 -12.999s-22.834 -3.5 -33.501 -3.5v64c18 -0.666992 33.667 2.16602 47 8.49902
s20 15.833 20 28.5v9h-67v100z" />
    <glyph glyph-name="Lcaron" unicode="&#x13d;" horiz-adv-x="616" 
d="M55 594v106h266v-106h-69v-488h238v158h106v-264h-541v106h69v488h-69zM393 700l132.001 0.000976562v-139c0 -52 -12.833 -89.833 -38.5 -113.5s-56.834 -37.167 -93.501 -40.5v69c20 1.33301 36.167 9.16602 48.5 23.499s18.5 32.5 18.5 54.5v11h-67v135z" />
    <glyph glyph-name="lcaron" unicode="&#x13e;" horiz-adv-x="437" 
d="M40 618v82h184v-618h64v-82h-248v82h64v536h-64zM295 700l132.001 0.000976562v-139c0 -52 -12.833 -89.833 -38.5 -113.5s-56.834 -37.167 -93.501 -40.5v69c20 1.33301 36.167 9.16602 48.5 23.499s18.5 32.5 18.5 54.5v11h-67v135z" />
    <glyph glyph-name="Ldot" unicode="&#x13f;" horiz-adv-x="616" 
d="M55 594v106h266v-106h-69v-488h238v158h106v-264h-541v106h69v488h-69zM431 327v125h122v-125h-122z" />
    <glyph glyph-name="ldot" unicode="&#x140;" horiz-adv-x="465" 
d="M40 618v82h184v-618h64v-82h-248v82h64v536h-64zM339 335v117h114v-117h-114z" />
    <glyph glyph-name="Lslash" unicode="&#x141;" horiz-adv-x="616" 
d="M55 594v106h266v-106h-69v-145l143 139v-110l-143 -139v-233h238v158h106v-264h-541v106h69v108l-122 -118v110l122 118v270h-69z" />
    <glyph glyph-name="lslash" unicode="&#x142;" horiz-adv-x="328" 
d="M40 618v82h184v-250l119 78v-92l-119 -78v-276h64v-82h-248v82h64v197l-121 -79v92l121 79v247h-64z" />
    <glyph glyph-name="Nacute" unicode="&#x143;" horiz-adv-x="848" 
d="M527 594v106h266v-106h-69v-594h-136l-336 497v-391h69v-106h-266v106h69v488h-69v106h205l336 -497v391h-69zM421 900h136l-118 -140h-96z" />
    <glyph glyph-name="nacute" unicode="&#x144;" horiz-adv-x="670" 
d="M382 0l-0.00195312 82h64v220c0 16.667 -0.166992 29.834 -0.5 39.501s-2.16602 22 -5.49902 37s-8.16602 26.667 -14.499 35s-15.833 15.833 -28.5 22.5s-28 10 -46 10c-8.66699 0 -17.334 -0.833008 -26.001 -2.5s-19.5 -5.66699 -32.5 -12s-24.167 -15 -33.5 -26
s-17.5 -27 -24.5 -48s-10.5 -45.5 -10.5 -73.5v-202h64v-82h-248v82h64v344h-64v82h184v-67c16.667 28 40.667 49.5 72 64.5s63 22.5 95 22.5c32.667 0 60.834 -5.66699 84.501 -17s41 -24 52 -38s19.667 -31.167 26 -51.5s10 -35.833 11 -46.5s1.5 -22.334 1.5 -35.001
v-258h64v-82h-248zM350.998 700h130l-110 -132h-90z" />
    <glyph glyph-name="Ncommaaccent" unicode="&#x145;" horiz-adv-x="848" 
d="M527 594v106h266v-106h-69v-594h-136l-336 497v-391h69v-106h-266v106h69v488h-69v106h205l336 -497v391h-69zM354 -60l140.001 0.000976562v-105c0 -20.667 -4 -38.667 -12 -54s-17.333 -26.833 -28 -34.5s-23.334 -13.834 -38.001 -18.501s-26.5 -7.5 -35.5 -8.5
s-17.833 -1.5 -26.5 -1.5v68c19.333 -0.666992 36 2.33301 50 9s21 16.667 21 30v9h-71v106z" />
    <glyph glyph-name="ncommaaccent" unicode="&#x146;" horiz-adv-x="670" 
d="M382 0l-0.00195312 82h64v220c0 16.667 -0.166992 29.834 -0.5 39.501s-2.16602 22 -5.49902 37s-8.16602 26.667 -14.499 35s-15.833 15.833 -28.5 22.5s-28 10 -46 10c-8.66699 0 -17.334 -0.833008 -26.001 -2.5s-19.5 -5.66699 -32.5 -12s-24.167 -15 -33.5 -26
s-17.5 -27 -24.5 -48s-10.5 -45.5 -10.5 -73.5v-202h64v-82h-248v82h64v344h-64v82h184v-67c16.667 28 40.667 49.5 72 64.5s63 22.5 95 22.5c32.667 0 60.834 -5.66699 84.501 -17s41 -24 52 -38s19.667 -31.167 26 -51.5s10 -35.833 11 -46.5s1.5 -22.334 1.5 -35.001
v-258h64v-82h-248zM268.998 -60l132.001 -0.000976562v-99c0 -24 -5.33301 -44.167 -16 -60.5s-24.167 -27.666 -40.5 -33.999s-30.333 -10.666 -42 -12.999s-22.834 -3.5 -33.501 -3.5v64c18 -0.666992 33.667 2.16602 47 8.49902s20 15.833 20 28.5v9h-67v100z" />
    <glyph glyph-name="Ncaron" unicode="&#x147;" horiz-adv-x="848" 
d="M527 594v106h266v-106h-69v-594h-136l-336 497v-391h69v-106h-266v106h69v488h-69v106h205l336 -497v391h-69zM424 806l100 94h120l-134 -140h-172l-134 140h120z" />
    <glyph glyph-name="ncaron" unicode="&#x148;" horiz-adv-x="670" 
d="M382 0l-0.00195312 82h64v220c0 16.667 -0.166992 29.834 -0.5 39.501s-2.16602 22 -5.49902 37s-8.16602 26.667 -14.499 35s-15.833 15.833 -28.5 22.5s-28 10 -46 10c-8.66699 0 -17.334 -0.833008 -26.001 -2.5s-19.5 -5.66699 -32.5 -12s-24.167 -15 -33.5 -26
s-17.5 -27 -24.5 -48s-10.5 -45.5 -10.5 -73.5v-202h64v-82h-248v82h64v344h-64v82h184v-67c16.667 28 40.667 49.5 72 64.5s63 22.5 95 22.5c32.667 0 60.834 -5.66699 84.501 -17s41 -24 52 -38s19.667 -31.167 26 -51.5s10 -35.833 11 -46.5s1.5 -22.334 1.5 -35.001
v-258h64v-82h-248zM334.998 611l90 89h110l-120 -132h-160l-120 132h110z" />
    <glyph glyph-name="Omacron" unicode="&#x14c;" horiz-adv-x="776" 
d="M45 350c0 49.333 5.5 94.166 16.5 134.499s24.5 73 40.5 98s35.833 46.833 59.5 65.5s45.5 32.5 65.5 41.5s42.333 16 67 21s43.167 8 55.5 9s25.166 1.5 38.499 1.5s26.166 -0.5 38.499 -1.5s30.833 -4 55.5 -9s47 -12 67 -21s41.833 -22.833 65.5 -41.5
s43.5 -40.5 59.5 -65.5s29.5 -57.667 40.5 -98s16.5 -85.166 16.5 -134.499s-5.5 -94.166 -16.5 -134.499s-24.5 -73 -40.5 -98s-35.833 -46.833 -59.5 -65.5s-45.5 -32.5 -65.5 -41.5s-42.333 -16 -67 -21s-43.167 -8 -55.5 -9s-25.166 -1.5 -38.499 -1.5
s-26.166 0.5 -38.499 1.5s-30.833 4 -55.5 9s-47 12 -67 21s-41.833 22.833 -65.5 41.5s-43.5 40.5 -59.5 65.5s-29.5 57.667 -40.5 98s-16.5 85.166 -16.5 134.499zM182 350c0 -30.667 2.83301 -60 8.5 -88s15.5 -56 29.5 -84s35.333 -50.5 64 -67.5
s63.334 -25.5 104.001 -25.5s75.334 8.5 104.001 25.5s50 39.5 64 67.5s23.833 56 29.5 84s8.5 57.333 8.5 88s-2.83301 60 -8.5 88s-15.5 56 -29.5 84s-35.333 50.5 -64 67.5s-63.334 25.5 -104.001 25.5s-75.334 -8.5 -104.001 -25.5s-50 -39.5 -64 -67.5
s-23.833 -56 -29.5 -84s-8.5 -57.333 -8.5 -88zM223 760v80h330v-80h-330z" />
    <glyph glyph-name="omacron" unicode="&#x14d;" horiz-adv-x="610" 
d="M43 254c0 22 2 44 6 66s12 46 24 72s27.333 48.667 46 68s44 35.5 76 48.5s68.667 19.5 110 19.5s78 -6.5 110 -19.5s57.333 -29.167 76 -48.5s34 -42 46 -68s20 -50 24 -72s6 -44 6 -66s-2 -44 -6 -66s-12 -46 -24 -72s-27.333 -48.667 -46 -68s-44 -35.5 -76 -48.5
s-68.667 -19.5 -110 -19.5s-78 6.5 -110 19.5s-57.333 29.167 -76 48.5s-34 41.833 -46 67.5s-20 49.667 -24 72s-6 44.5 -6 66.5zM171 254c0 -40.667 4.66699 -74.834 14 -102.501s21.833 -47.5 37.5 -59.5s29.834 -20 42.501 -24s26 -6 40 -6s27.333 2 40 6
s26.834 12 42.501 24s28.167 31.833 37.5 59.5s14 61.834 14 102.501s-4.66699 74.834 -14 102.501s-21.833 47.5 -37.5 59.5s-29.834 20 -42.501 24s-26 6 -40 6s-27.333 -2 -40 -6s-26.834 -12 -42.501 -24s-28.167 -31.833 -37.5 -59.5s-14 -61.834 -14 -102.501z
M140 602v82h330v-82h-330z" />
    <glyph glyph-name="Ohungarumlaut" unicode="&#x150;" horiz-adv-x="776" 
d="M45 350c0 49.333 5.5 94.166 16.5 134.499s24.5 73 40.5 98s35.833 46.833 59.5 65.5s45.5 32.5 65.5 41.5s42.333 16 67 21s43.167 8 55.5 9s25.166 1.5 38.499 1.5s26.166 -0.5 38.499 -1.5s30.833 -4 55.5 -9s47 -12 67 -21s41.833 -22.833 65.5 -41.5
s43.5 -40.5 59.5 -65.5s29.5 -57.667 40.5 -98s16.5 -85.166 16.5 -134.499s-5.5 -94.166 -16.5 -134.499s-24.5 -73 -40.5 -98s-35.833 -46.833 -59.5 -65.5s-45.5 -32.5 -65.5 -41.5s-42.333 -16 -67 -21s-43.167 -8 -55.5 -9s-25.166 -1.5 -38.499 -1.5
s-26.166 0.5 -38.499 1.5s-30.833 4 -55.5 9s-47 12 -67 21s-41.833 22.833 -65.5 41.5s-43.5 40.5 -59.5 65.5s-29.5 57.667 -40.5 98s-16.5 85.166 -16.5 134.499zM182 350c0 -30.667 2.83301 -60 8.5 -88s15.5 -56 29.5 -84s35.333 -50.5 64 -67.5
s63.334 -25.5 104.001 -25.5s75.334 8.5 104.001 25.5s50 39.5 64 67.5s23.833 56 29.5 84s8.5 57.333 8.5 88s-2.83301 60 -8.5 88s-15.5 56 -29.5 84s-35.333 50.5 -64 67.5s-63.334 25.5 -104.001 25.5s-75.334 -8.5 -104.001 -25.5s-50 -39.5 -64 -67.5
s-23.833 -56 -29.5 -84s-8.5 -57.333 -8.5 -88zM325 900h130l-118 -140h-90zM497 900h130l-118 -140h-90z" />
    <glyph glyph-name="ohungarumlaut" unicode="&#x151;" horiz-adv-x="610" 
d="M43 254c0 22 2 44 6 66s12 46 24 72s27.333 48.667 46 68s44 35.5 76 48.5s68.667 19.5 110 19.5s78 -6.5 110 -19.5s57.333 -29.167 76 -48.5s34 -42 46 -68s20 -50 24 -72s6 -44 6 -66s-2 -44 -6 -66s-12 -46 -24 -72s-27.333 -48.667 -46 -68s-44 -35.5 -76 -48.5
s-68.667 -19.5 -110 -19.5s-78 6.5 -110 19.5s-57.333 29.167 -76 48.5s-34 41.833 -46 67.5s-20 49.667 -24 72s-6 44.5 -6 66.5zM171 254c0 -40.667 4.66699 -74.834 14 -102.501s21.833 -47.5 37.5 -59.5s29.834 -20 42.501 -24s26 -6 40 -6s27.333 2 40 6
s26.834 12 42.501 24s28.167 31.833 37.5 59.5s14 61.834 14 102.501s-4.66699 74.834 -14 102.501s-21.833 47.5 -37.5 59.5s-29.834 20 -42.501 24s-26 6 -40 6s-27.333 -2 -40 -6s-26.834 -12 -42.501 -24s-28.167 -31.833 -37.5 -59.5s-14 -61.834 -14 -102.501z
M222 700h120l-110 -132h-80zM392 700h120l-110 -132h-80z" />
    <glyph glyph-name="OE" unicode="&#x152;" horiz-adv-x="1123" 
d="M557 700l525 0.00195312v-225h-106v119h-291v-182h245v-106h-245v-200h302v136h106v-242h-536c-53.333 -14 -109.666 -21 -168.999 -21c-13.333 0 -26.166 0.5 -38.499 1.5s-30.833 4 -55.5 9s-47 12 -67 21s-41.833 22.833 -65.5 41.5s-43.5 40.5 -59.5 65.5
s-29.5 57.667 -40.5 98s-16.5 85.166 -16.5 134.499s5.5 94.166 16.5 134.499s24.5 73 40.5 98s35.833 46.833 59.5 65.5s45.5 32.5 65.5 41.5s42.333 16 67 21s43.167 8 55.5 9s25.166 1.5 38.499 1.5c65.333 0 121.666 -7 168.999 -21zM388 85.002c70 0 126.333 14 169 42
v456c-50.667 21.333 -107 32 -169 32c-40.667 0 -75.334 -8.5 -104.001 -25.5s-50 -39.5 -64 -67.5s-23.833 -56 -29.5 -84s-8.5 -57.333 -8.5 -88s2.83301 -60 8.5 -88s15.5 -56 29.5 -84s35.333 -50.5 64 -67.5s63.334 -25.5 104.001 -25.5z" />
    <glyph glyph-name="oe" unicode="&#x153;" horiz-adv-x="982" 
d="M817 147l114.001 -0.000976562c-4 -19.333 -10.167 -37.5 -18.5 -54.5s-21 -34.667 -38 -53s-41.5 -32.833 -73.5 -43.5s-69.333 -16 -112 -16c-89.333 0 -153.666 24.667 -192.999 74c-47.333 -49.333 -111 -74 -191 -74c-41.333 0 -78 6.5 -110 19.5
s-57.333 29.167 -76 48.5s-34 41.833 -46 67.5s-20 49.667 -24 72s-6 44.5 -6 66.5s2 44 6 66s12 46 24 72s27.333 48.667 46 68s44 35.5 76 48.5s68.667 19.5 110 19.5c80 0 143.667 -24.667 191 -74c49.333 49.333 114 74 194 74c81.333 0 143.166 -24.167 185.499 -72.5
s63.5 -116.166 63.5 -203.499v-29h-380c0 -18 2.33301 -35.667 7 -53s12 -34.5 22 -51.5s24.667 -30.667 44 -41s41.666 -15.5 66.999 -15.5c28.667 0 54.5 7.5 77.5 22.5s36.5 35.833 40.5 62.5zM171.001 253.999c0 -40.667 4.66699 -74.834 14 -102.501
s21.833 -47.5 37.5 -59.5s29.834 -20 42.501 -24s26 -6 40 -6s27.333 2 40 6s26.834 12 42.501 24s28.167 31.833 37.5 59.5s14 61.834 14 102.501s-4.66699 74.834 -14 102.501s-21.833 47.5 -37.5 59.5s-29.834 20 -42.501 24s-26 6 -40 6s-27.333 -2 -40 -6
s-26.834 -12 -42.501 -24s-28.167 -31.833 -37.5 -59.5s-14 -61.834 -14 -102.501zM559.001 304.999l253 0.000976562c0 14 -1.5 28 -4.5 42s-8.5 29 -16.5 45s-20.5 29 -37.5 39s-37.833 15 -62.5 15c-43.333 0 -76.5 -14.333 -99.5 -43s-33.833 -61.334 -32.5 -98.001z
" />
    <glyph glyph-name="Racute" unicode="&#x154;" horiz-adv-x="760" 
d="M540 0l-140.998 278.002h-147v-172h69v-106h-266v106h69v488h-69v106h373c20 0 40.167 -1.33301 60.5 -4s43.166 -8.33398 68.499 -17.001s47.333 -20 66 -34s34.5 -33.5 47.5 -58.5s19.5 -54.167 19.5 -87.5c0 -47.333 -11.833 -89.833 -35.5 -127.5
s-63.834 -63.834 -120.501 -78.501l92 -187h84v-106h-170zM252.002 594.002l-0.000976562 -210.001h157c40 0 74.833 8 104.5 24s44.5 43 44.5 81c0 21.333 -5 39.5 -15 54.5s-23.167 25.833 -39.5 32.5s-31.666 11.334 -45.999 14.001s-29.5 4 -45.5 4h-160z
M390.001 900.001h136l-118 -140h-96z" />
    <glyph glyph-name="racute" unicode="&#x155;" horiz-adv-x="434" 
d="M40 426l0.000976562 81.999h184v-93h2c16 38 40.167 64.667 72.5 80s66.166 23 101.499 23h20v-78c-122.667 2 -187.667 -51.667 -195 -161c-0.666992 -11.333 -1 -28.666 -1 -51.999v-145h64v-82h-248v82h64v344h-64zM259.001 699.999h130l-110 -132h-90z" />
    <glyph glyph-name="Rcommaaccent" unicode="&#x156;" horiz-adv-x="760" 
d="M540 0l-140.998 278.002h-147v-172h69v-106h-266v106h69v488h-69v106h373c20 0 40.167 -1.33301 60.5 -4s43.166 -8.33398 68.499 -17.001s47.333 -20 66 -34s34.5 -33.5 47.5 -58.5s19.5 -54.167 19.5 -87.5c0 -47.333 -11.833 -89.833 -35.5 -127.5
s-63.834 -63.834 -120.501 -78.501l92 -187h84v-106h-170zM252.002 594.002l-0.000976562 -210.001h157c40 0 74.833 8 104.5 24s44.5 43 44.5 81c0 21.333 -5 39.5 -15 54.5s-23.167 25.833 -39.5 32.5s-31.666 11.334 -45.999 14.001s-29.5 4 -45.5 4h-160z
M323.001 -59.999l140.001 0.000976562v-105c0 -20.667 -4 -38.667 -12 -54s-17.333 -26.833 -28 -34.5s-23.334 -13.834 -38.001 -18.501s-26.5 -7.5 -35.5 -8.5s-17.833 -1.5 -26.5 -1.5v68c19.333 -0.666992 36 2.33301 50 9s21 16.667 21 30v9h-71v106z" />
    <glyph glyph-name="rcommaaccent" unicode="&#x157;" horiz-adv-x="434" 
d="M40 426l0.000976562 81.999h184v-93h2c16 38 40.167 64.667 72.5 80s66.166 23 101.499 23h20v-78c-122.667 2 -187.667 -51.667 -195 -161c-0.666992 -11.333 -1 -28.666 -1 -51.999v-145h64v-82h-248v82h64v344h-64zM102.001 -60.001l132.001 -0.000976562v-99
c0 -24 -5.33301 -44.167 -16 -60.5s-24.167 -27.666 -40.5 -33.999s-30.333 -10.666 -42 -12.999s-22.834 -3.5 -33.501 -3.5v64c18 -0.666992 33.667 2.16602 47 8.49902s20 15.833 20 28.5v9h-67v100z" />
    <glyph glyph-name="Rcaron" unicode="&#x158;" horiz-adv-x="760" 
d="M540 0l-140.998 278.002h-147v-172h69v-106h-266v106h69v488h-69v106h373c20 0 40.167 -1.33301 60.5 -4s43.166 -8.33398 68.499 -17.001s47.333 -20 66 -34s34.5 -33.5 47.5 -58.5s19.5 -54.167 19.5 -87.5c0 -47.333 -11.833 -89.833 -35.5 -127.5
s-63.834 -63.834 -120.501 -78.501l92 -187h84v-106h-170zM252.002 594.002l-0.000976562 -210.001h157c40 0 74.833 8 104.5 24s44.5 43 44.5 81c0 21.333 -5 39.5 -15 54.5s-23.167 25.833 -39.5 32.5s-31.666 11.334 -45.999 14.001s-29.5 4 -45.5 4h-160z
M373.001 806.001l100 94h120l-134 -140h-172l-134 140h120z" />
    <glyph glyph-name="rcaron" unicode="&#x159;" horiz-adv-x="434" 
d="M40 426l0.000976562 81.999h184v-93h2c16 38 40.167 64.667 72.5 80s66.166 23 101.499 23h20v-78c-122.667 2 -187.667 -51.667 -195 -161c-0.666992 -11.333 -1 -28.666 -1 -51.999v-145h64v-82h-248v82h64v344h-64zM241.001 610.999l90 89h110l-120 -132h-160
l-120 132h110z" />
    <glyph glyph-name="Sacute" unicode="&#x15a;" horiz-adv-x="684" 
d="M501 700l105.997 0.00195312v-195h-106c-3.33301 22 -11.166 41 -23.499 57s-27 27.5 -44 34.5s-32.333 11.833 -46 14.5s-26.5 4 -38.5 4c-90 0 -135 -30.333 -135 -91c0 -17.333 4.16699 -32 12.5 -44s21 -21.667 38 -29s32.833 -12.833 47.5 -16.5s34 -7.5 58 -11.5
c46 -8 83.333 -16.333 112 -25s56 -21 82 -37s45 -37 57 -63s18 -57.667 18 -95c0 -149.333 -93 -224 -279 -224c-40 0 -77.833 6.66699 -113.5 20s-62.834 30.666 -81.501 51.999v-51h-106v229h106c0.666992 -15.333 4.16699 -30.5 10.5 -45.5s16.166 -30.333 29.499 -46
s32.833 -28.334 58.5 -38.001s55.834 -14.5 90.501 -14.5c98.667 0 148 35 148 105c0 20 -4.16699 37 -12.5 51s-20.166 24.667 -35.499 32s-28.166 12.666 -38.499 15.999s-23.5 6.33301 -39.5 9c-35.333 6 -62.666 11.667 -81.999 17
c-32.667 6.66699 -60.667 14.334 -84 23.001s-45.833 20.5 -67.5 35.5s-38 34.833 -49 59.5s-16.5 54 -16.5 88c0 30.667 4.83301 58 14.5 82s23 42.833 40 56.5s34.167 25 51.5 34s37 15.333 59 19s39.167 6 51.5 7s25.5 1.5 39.5 1.5c32.667 0 65 -6 97 -18
s55.667 -27 71 -45v42zM348.997 900.002h136l-118 -140h-96z" />
    <glyph glyph-name="sacute" unicode="&#x15b;" horiz-adv-x="550" 
d="M486 365l-86.001 0.00390625c-6 21.333 -19.333 40.166 -40 56.499s-44.667 24.5 -72 24.5c-63.333 0 -95 -21 -95 -63c0 -18.667 6.83301 -33.834 20.5 -45.501s26.334 -19 38.001 -22s32.5 -6.83301 62.5 -11.5c4.66699 -0.666992 8 -1.33398 10 -2.00098l40.5 -8
c9.66699 -2 23.167 -5.5 40.5 -10.5s31 -11 41 -18s20.5 -15.833 31.5 -26.5s19.167 -23.834 24.5 -39.501s8 -33.5 8 -53.5c0 -110.667 -69 -166 -207 -166c-75.333 0 -128 18 -158 54v-34h-87v186h87c0 -36 13 -65.667 39 -89s56 -35 90 -35c33.333 0 60 5.33301 80 16
s30 31.667 30 63c0 22 -7 38.5 -21 49.5s-38.333 19.5 -73 25.5l-55 9c-57.333 10.667 -99.333 27.834 -126 51.501s-40 58.5 -40 104.5c0 47.333 20.333 85.666 61 114.999c31.333 21.333 75.333 32 132 32c64.667 0 110.667 -17.333 138 -52v32h86v-143zM271.999 700.004
h130l-110 -132h-90z" />
    <glyph glyph-name="Scircumflex" unicode="&#x15c;" horiz-adv-x="684" 
d="M501 700l105.997 0.00195312v-195h-106c-3.33301 22 -11.166 41 -23.499 57s-27 27.5 -44 34.5s-32.333 11.833 -46 14.5s-26.5 4 -38.5 4c-90 0 -135 -30.333 -135 -91c0 -17.333 4.16699 -32 12.5 -44s21 -21.667 38 -29s32.833 -12.833 47.5 -16.5s34 -7.5 58 -11.5
c46 -8 83.333 -16.333 112 -25s56 -21 82 -37s45 -37 57 -63s18 -57.667 18 -95c0 -149.333 -93 -224 -279 -224c-40 0 -77.833 6.66699 -113.5 20s-62.834 30.666 -81.501 51.999v-51h-106v229h106c0.666992 -15.333 4.16699 -30.5 10.5 -45.5s16.166 -30.333 29.499 -46
s32.833 -28.334 58.5 -38.001s55.834 -14.5 90.501 -14.5c98.667 0 148 35 148 105c0 20 -4.16699 37 -12.5 51s-20.166 24.667 -35.499 32s-28.166 12.666 -38.499 15.999s-23.5 6.33301 -39.5 9c-35.333 6 -62.666 11.667 -81.999 17
c-32.667 6.66699 -60.667 14.334 -84 23.001s-45.833 20.5 -67.5 35.5s-38 34.833 -49 59.5s-16.5 54 -16.5 88c0 30.667 4.83301 58 14.5 82s23 42.833 40 56.5s34.167 25 51.5 34s37 15.333 59 19s39.167 6 51.5 7s25.5 1.5 39.5 1.5c32.667 0 65 -6 97 -18
s55.667 -27 71 -45v42zM341.997 854.002l-100 -94h-120l134 140h172l134 -140h-120z" />
    <glyph glyph-name="scircumflex" unicode="&#x15d;" horiz-adv-x="550" 
d="M486 365l-86.001 0.00390625c-6 21.333 -19.333 40.166 -40 56.499s-44.667 24.5 -72 24.5c-63.333 0 -95 -21 -95 -63c0 -18.667 6.83301 -33.834 20.5 -45.501s26.334 -19 38.001 -22s32.5 -6.83301 62.5 -11.5c4.66699 -0.666992 8 -1.33398 10 -2.00098l40.5 -8
c9.66699 -2 23.167 -5.5 40.5 -10.5s31 -11 41 -18s20.5 -15.833 31.5 -26.5s19.167 -23.834 24.5 -39.501s8 -33.5 8 -53.5c0 -110.667 -69 -166 -207 -166c-75.333 0 -128 18 -158 54v-34h-87v186h87c0 -36 13 -65.667 39 -89s56 -35 90 -35c33.333 0 60 5.33301 80 16
s30 31.667 30 63c0 22 -7 38.5 -21 49.5s-38.333 19.5 -73 25.5l-55 9c-57.333 10.667 -99.333 27.834 -126 51.501s-40 58.5 -40 104.5c0 47.333 20.333 85.666 61 114.999c31.333 21.333 75.333 32 132 32c64.667 0 110.667 -17.333 138 -52v32h86v-143zM275.999 657.004
l-90 -89h-110l120 132h160l120 -132h-110z" />
    <glyph glyph-name="Scedilla" unicode="&#x15e;" horiz-adv-x="684" 
d="M501 700l105.997 0.00195312v-195h-106c-3.33301 22 -11.166 41 -23.499 57s-27 27.5 -44 34.5s-32.333 11.833 -46 14.5s-26.5 4 -38.5 4c-90 0 -135 -30.333 -135 -91c0 -17.333 4.16699 -32 12.5 -44s21 -21.667 38 -29s32.833 -12.833 47.5 -16.5s34 -7.5 58 -11.5
c46 -8 83.333 -16.333 112 -25s56 -21 82 -37s45 -37 57 -63s18 -57.667 18 -95c0 -149.333 -93 -224 -279 -224c-40 0 -77.833 6.66699 -113.5 20s-62.834 30.666 -81.501 51.999v-51h-106v229h106c0.666992 -15.333 4.16699 -30.5 10.5 -45.5s16.166 -30.333 29.499 -46
s32.833 -28.334 58.5 -38.001s55.834 -14.5 90.501 -14.5c98.667 0 148 35 148 105c0 20 -4.16699 37 -12.5 51s-20.166 24.667 -35.499 32s-28.166 12.666 -38.499 15.999s-23.5 6.33301 -39.5 9c-35.333 6 -62.666 11.667 -81.999 17
c-32.667 6.66699 -60.667 14.334 -84 23.001s-45.833 20.5 -67.5 35.5s-38 34.833 -49 59.5s-16.5 54 -16.5 88c0 30.667 4.83301 58 14.5 82s23 42.833 40 56.5s34.167 25 51.5 34s37 15.333 59 19s39.167 6 51.5 7s25.5 1.5 39.5 1.5c32.667 0 65 -6 97 -18
s55.667 -27 71 -45v42zM238.997 -231.998l19 61c18.667 -6 38 -9 58 -9c35.333 0 53 11.333 53 34c0 18.667 -17.333 28 -52 28h-43l18 60h46c80.667 0 121 -30 121 -90c0 -61.333 -47 -92 -141 -92c-26 0 -52.333 2.66699 -79 8z" />
    <glyph glyph-name="scedilla" unicode="&#x15f;" horiz-adv-x="550" 
d="M486 365l-86.001 0.00390625c-6 21.333 -19.333 40.166 -40 56.499s-44.667 24.5 -72 24.5c-63.333 0 -95 -21 -95 -63c0 -18.667 6.83301 -33.834 20.5 -45.501s26.334 -19 38.001 -22s32.5 -6.83301 62.5 -11.5c4.66699 -0.666992 8 -1.33398 10 -2.00098l40.5 -8
c9.66699 -2 23.167 -5.5 40.5 -10.5s31 -11 41 -18s20.5 -15.833 31.5 -26.5s19.167 -23.834 24.5 -39.501s8 -33.5 8 -53.5c0 -110.667 -69 -166 -207 -166c-75.333 0 -128 18 -158 54v-34h-87v186h87c0 -36 13 -65.667 39 -89s56 -35 90 -35c33.333 0 60 5.33301 80 16
s30 31.667 30 63c0 22 -7 38.5 -21 49.5s-38.333 19.5 -73 25.5l-55 9c-57.333 10.667 -99.333 27.834 -126 51.501s-40 58.5 -40 104.5c0 47.333 20.333 85.666 61 114.999c31.333 21.333 75.333 32 132 32c64.667 0 110.667 -17.333 138 -52v32h86v-143zM159.999 -231.996
l19 61c18.667 -6 38 -9 58 -9c35.333 0 53 11.333 53 34c0 18.667 -17.333 28 -52 28h-43l18 60h46c80.667 0 121 -30 121 -90c0 -61.333 -47 -92 -141 -92c-26 0 -52.333 2.66699 -79 8z" />
    <glyph glyph-name="Scaron" unicode="&#x160;" horiz-adv-x="684" 
d="M501 700l105.997 0.00195312v-195h-106c-3.33301 22 -11.166 41 -23.499 57s-27 27.5 -44 34.5s-32.333 11.833 -46 14.5s-26.5 4 -38.5 4c-90 0 -135 -30.333 -135 -91c0 -17.333 4.16699 -32 12.5 -44s21 -21.667 38 -29s32.833 -12.833 47.5 -16.5s34 -7.5 58 -11.5
c46 -8 83.333 -16.333 112 -25s56 -21 82 -37s45 -37 57 -63s18 -57.667 18 -95c0 -149.333 -93 -224 -279 -224c-40 0 -77.833 6.66699 -113.5 20s-62.834 30.666 -81.501 51.999v-51h-106v229h106c0.666992 -15.333 4.16699 -30.5 10.5 -45.5s16.166 -30.333 29.499 -46
s32.833 -28.334 58.5 -38.001s55.834 -14.5 90.501 -14.5c98.667 0 148 35 148 105c0 20 -4.16699 37 -12.5 51s-20.166 24.667 -35.499 32s-28.166 12.666 -38.499 15.999s-23.5 6.33301 -39.5 9c-35.333 6 -62.666 11.667 -81.999 17
c-32.667 6.66699 -60.667 14.334 -84 23.001s-45.833 20.5 -67.5 35.5s-38 34.833 -49 59.5s-16.5 54 -16.5 88c0 30.667 4.83301 58 14.5 82s23 42.833 40 56.5s34.167 25 51.5 34s37 15.333 59 19s39.167 6 51.5 7s25.5 1.5 39.5 1.5c32.667 0 65 -6 97 -18
s55.667 -27 71 -45v42zM341.997 806.002l100 94h120l-134 -140h-172l-134 140h120z" />
    <glyph glyph-name="scaron" unicode="&#x161;" horiz-adv-x="550" 
d="M486 365l-86.001 0.00390625c-6 21.333 -19.333 40.166 -40 56.499s-44.667 24.5 -72 24.5c-63.333 0 -95 -21 -95 -63c0 -18.667 6.83301 -33.834 20.5 -45.501s26.334 -19 38.001 -22s32.5 -6.83301 62.5 -11.5c4.66699 -0.666992 8 -1.33398 10 -2.00098l40.5 -8
c9.66699 -2 23.167 -5.5 40.5 -10.5s31 -11 41 -18s20.5 -15.833 31.5 -26.5s19.167 -23.834 24.5 -39.501s8 -33.5 8 -53.5c0 -110.667 -69 -166 -207 -166c-75.333 0 -128 18 -158 54v-34h-87v186h87c0 -36 13 -65.667 39 -89s56 -35 90 -35c33.333 0 60 5.33301 80 16
s30 31.667 30 63c0 22 -7 38.5 -21 49.5s-38.333 19.5 -73 25.5l-55 9c-57.333 10.667 -99.333 27.834 -126 51.501s-40 58.5 -40 104.5c0 47.333 20.333 85.666 61 114.999c31.333 21.333 75.333 32 132 32c64.667 0 110.667 -17.333 138 -52v32h86v-143zM275.999 611.004
l90 89h110l-120 -132h-160l-120 132h110z" />
    <glyph glyph-name="Tcedilla" unicode="&#x162;" horiz-adv-x="690" 
d="M212 0v106h69v488h-160v-150h-106v256h660v-256h-106v150h-160v-488h69v-106h-266zM227 -251l20.999 68c20.667 -6.66699 42 -10 64 -10c39.333 0 59 12.333 59 37c0 20.667 -18 31 -54 31h-3h-48l20 67h51c89.333 0 134 -33.333 134 -100c0 -68 -52 -102 -156 -102
c-29.333 0 -58.666 3 -87.999 9z" />
    <glyph glyph-name="tcedilla" unicode="&#x163;" horiz-adv-x="342" 
d="M14 508l82 -0.000976562v152h120v-152h106v-82h-106v-287c0 -15.333 0.666992 -26.5 2 -33.5s6.5 -13.667 15.5 -20s22.833 -9.5 41.5 -9.5c18 0 33.667 2 47 6v-82c-30 -8 -62.667 -12 -98 -12c-29.333 0 -53.5 3.83301 -72.5 11.5s-32 18.167 -39 31.5
s-11.5 24.833 -13.5 34.5s-3 20.834 -3 33.501v327h-82v82zM90 -232.001l19 61c18.667 -6 38 -9 58 -9c35.333 0 53 11.333 53 34c0 18.667 -17.333 28 -52 28h-43l18 60h46c80.667 0 121 -30 121 -90c0 -61.333 -47 -92 -141 -92c-26 0 -52.333 2.66699 -79 8z" />
    <glyph glyph-name="Tcaron" unicode="&#x164;" horiz-adv-x="690" 
d="M212 0v106h69v488h-160v-150h-106v256h660v-256h-106v150h-160v-488h69v-106h-266zM345 806l100 94h120l-134 -140h-172l-134 140h120z" />
    <glyph glyph-name="tcaron" unicode="&#x165;" horiz-adv-x="494" 
d="M14 508l82 -0.000976562v152h120v-152h106v-82h-106v-287c0 -15.333 0.666992 -26.5 2 -33.5s6.5 -13.667 15.5 -20s22.833 -9.5 41.5 -9.5c18 0 33.667 2 47 6v-82c-30 -8 -62.667 -12 -98 -12c-29.333 0 -53.5 3.83301 -72.5 11.5s-32 18.167 -39 31.5
s-11.5 24.833 -13.5 34.5s-3 20.834 -3 33.501v327h-82v82zM362 699.999l132.001 0.000976562v-139c0 -52 -12.833 -89.833 -38.5 -113.5s-56.834 -37.167 -93.501 -40.5v69c20 1.33301 36.167 9.16602 48.5 23.499s18.5 32.5 18.5 54.5v11h-67v135z" />
    <glyph glyph-name="Umacron" unicode="&#x16a;" horiz-adv-x="786" 
d="M485 594l-0.00195312 106h266v-106h-69v-325c0 -19.333 -0.666992 -36.666 -2 -51.999s-4.16602 -33.5 -8.49902 -54.5s-10.5 -39.5 -18.5 -55.5s-19.167 -32.333 -33.5 -49s-31.5 -30.5 -51.5 -41.5s-44.833 -20 -74.5 -27s-63.167 -10.5 -100.5 -10.5
s-70.833 3.5 -100.5 10.5s-54.5 16 -74.5 27s-37.167 24.833 -51.5 41.5s-25.5 33 -33.5 49s-14.167 34.5 -18.5 55.5s-7.16602 39.167 -8.49902 54.5s-2 32.666 -2 51.999v325h-69v106h266v-106h-69v-305c0 -71.333 12.167 -123.166 36.5 -155.499
s65.833 -48.5 124.5 -48.5s100.167 16.167 124.5 48.5s36.5 84.166 36.5 155.499v305h-69zM227.998 760v80h330v-80h-330z" />
    <glyph glyph-name="umacron" unicode="&#x16b;" horiz-adv-x="670" 
d="M630 82l0.00292969 -81.999h-184v67h-2c-15.333 -28.667 -38.666 -50.334 -69.999 -65.001s-64.333 -22 -99 -22c-26.667 0 -50.334 3.5 -71.001 10.5s-36.834 17 -48.501 30s-21.334 25.833 -29.001 38.5s-13 27.167 -16 43.5s-4.83301 28.833 -5.5 37.5s-1 18 -1 28
v258h-64v82h184v-302c0 -15.333 0.333008 -28 1 -38s2.66699 -22.333 6 -37s8.16602 -26.5 14.499 -35.5s15.833 -16.833 28.5 -23.5s27.667 -10 45 -10c23.333 0 43.666 5 60.999 15s30 21.333 38 34s14.333 28 19 46s7.33398 31.333 8.00098 40s1 17.667 1 27v202h-64v82
h184v-426h64zM150.003 602.001v82h330v-82h-330z" />
    <glyph glyph-name="Ubreve" unicode="&#x16c;" horiz-adv-x="786" 
d="M485 594l-0.00195312 106h266v-106h-69v-325c0 -19.333 -0.666992 -36.666 -2 -51.999s-4.16602 -33.5 -8.49902 -54.5s-10.5 -39.5 -18.5 -55.5s-19.167 -32.333 -33.5 -49s-31.5 -30.5 -51.5 -41.5s-44.833 -20 -74.5 -27s-63.167 -10.5 -100.5 -10.5
s-70.833 3.5 -100.5 10.5s-54.5 16 -74.5 27s-37.167 24.833 -51.5 41.5s-25.5 33 -33.5 49s-14.167 34.5 -18.5 55.5s-7.16602 39.167 -8.49902 54.5s-2 32.666 -2 51.999v325h-69v106h266v-106h-69v-305c0 -71.333 12.167 -123.166 36.5 -155.499
s65.833 -48.5 124.5 -48.5s100.167 16.167 124.5 48.5s36.5 84.166 36.5 155.499v305h-69zM182.998 900h103c2.66699 -25.333 13.834 -45.166 33.501 -59.499s44.167 -21.5 73.5 -21.5s53.833 7.16699 73.5 21.5s30.834 34.166 33.501 59.499h103
c-8.66699 -45.333 -30.834 -82.166 -66.501 -110.499s-83.5 -42.5 -143.5 -42.5s-107.833 14.167 -143.5 42.5s-57.834 65.166 -66.501 110.499z" />
    <glyph glyph-name="ubreve" unicode="&#x16d;" horiz-adv-x="670" 
d="M630 82l0.00292969 -81.999h-184v67h-2c-15.333 -28.667 -38.666 -50.334 -69.999 -65.001s-64.333 -22 -99 -22c-26.667 0 -50.334 3.5 -71.001 10.5s-36.834 17 -48.501 30s-21.334 25.833 -29.001 38.5s-13 27.167 -16 43.5s-4.83301 28.833 -5.5 37.5s-1 18 -1 28
v258h-64v82h184v-302c0 -15.333 0.333008 -28 1 -38s2.66699 -22.333 6 -37s8.16602 -26.5 14.499 -35.5s15.833 -16.833 28.5 -23.5s27.667 -10 45 -10c23.333 0 43.666 5 60.999 15s30 21.333 38 34s14.333 28 19 46s7.33398 31.333 8.00098 40s1 17.667 1 27v202h-64v82
h184v-426h64zM410.003 700.001h102c-5.33301 -36.667 -23.5 -69.667 -54.5 -99s-78.5 -44 -142.5 -44s-111.5 14.667 -142.5 44s-49.167 62.333 -54.5 99h102c2.66699 -22.667 12.667 -40.5 30 -53.5s39 -19.5 65 -19.5s47.667 6.5 65 19.5s27.333 30.833 30 53.5z" />
    <glyph glyph-name="Uring" unicode="&#x16e;" horiz-adv-x="786" 
d="M485 594l-0.00195312 106h266v-106h-69v-325c0 -19.333 -0.666992 -36.666 -2 -51.999s-4.16602 -33.5 -8.49902 -54.5s-10.5 -39.5 -18.5 -55.5s-19.167 -32.333 -33.5 -49s-31.5 -30.5 -51.5 -41.5s-44.833 -20 -74.5 -27s-63.167 -10.5 -100.5 -10.5
s-70.833 3.5 -100.5 10.5s-54.5 16 -74.5 27s-37.167 24.833 -51.5 41.5s-25.5 33 -33.5 49s-14.167 34.5 -18.5 55.5s-7.16602 39.167 -8.49902 54.5s-2 32.666 -2 51.999v325h-69v106h266v-106h-69v-305c0 -71.333 12.167 -123.166 36.5 -155.499
s65.833 -48.5 124.5 -48.5s100.167 16.167 124.5 48.5s36.5 84.166 36.5 155.499v305h-69zM292.998 820c0 28 9.66699 51.667 29 71s43 29 71 29c27.333 0 50.833 -9.83301 70.5 -29.5s29.5 -43.167 29.5 -70.5c0 -28 -9.66699 -51.667 -29 -71s-43 -29 -71 -29
c-28.667 0 -52.5 9.5 -71.5 28.5s-28.5 42.833 -28.5 71.5zM348.998 820c0 -12 4.33301 -22.333 13 -31s19 -13 31 -13s22.333 4.33301 31 13s13 19 13 31s-4.33301 22.333 -13 31s-19 13 -31 13s-22.333 -4.33301 -31 -13s-13 -19 -13 -31z" />
    <glyph glyph-name="uring" unicode="&#x16f;" horiz-adv-x="670" 
d="M630 82l0.00292969 -81.999h-184v67h-2c-15.333 -28.667 -38.666 -50.334 -69.999 -65.001s-64.333 -22 -99 -22c-26.667 0 -50.334 3.5 -71.001 10.5s-36.834 17 -48.501 30s-21.334 25.833 -29.001 38.5s-13 27.167 -16 43.5s-4.83301 28.833 -5.5 37.5s-1 18 -1 28
v258h-64v82h184v-302c0 -15.333 0.333008 -28 1 -38s2.66699 -22.333 6 -37s8.16602 -26.5 14.499 -35.5s15.833 -16.833 28.5 -23.5s27.667 -10 45 -10c23.333 0 43.666 5 60.999 15s30 21.333 38 34s14.333 28 19 46s7.33398 31.333 8.00098 40s1 17.667 1 27v202h-64v82
h184v-426h64zM221.003 634.001c0 25.333 9.33301 47.333 28 66s40.667 28 66 28s47.333 -9.33301 66 -28s28 -40.667 28 -66s-9.33301 -47.333 -28 -66s-40.667 -28 -66 -28s-47.333 9.33301 -66 28s-28 40.667 -28 66zM271.003 634.001c0 -12 4.33301 -22.333 13 -31
s19 -13 31 -13s22.333 4.33301 31 13s13 19 13 31s-4.33301 22.333 -13 31s-19 13 -31 13s-22.333 -4.33301 -31 -13s-13 -19 -13 -31z" />
    <glyph glyph-name="Uhungarumlaut" unicode="&#x170;" horiz-adv-x="786" 
d="M485 594l-0.00195312 106h266v-106h-69v-325c0 -19.333 -0.666992 -36.666 -2 -51.999s-4.16602 -33.5 -8.49902 -54.5s-10.5 -39.5 -18.5 -55.5s-19.167 -32.333 -33.5 -49s-31.5 -30.5 -51.5 -41.5s-44.833 -20 -74.5 -27s-63.167 -10.5 -100.5 -10.5
s-70.833 3.5 -100.5 10.5s-54.5 16 -74.5 27s-37.167 24.833 -51.5 41.5s-25.5 33 -33.5 49s-14.167 34.5 -18.5 55.5s-7.16602 39.167 -8.49902 54.5s-2 32.666 -2 51.999v325h-69v106h266v-106h-69v-305c0 -71.333 12.167 -123.166 36.5 -155.499
s65.833 -48.5 124.5 -48.5s100.167 16.167 124.5 48.5s36.5 84.166 36.5 155.499v305h-69zM326.998 900h130l-118 -140h-90zM498.998 900h130l-118 -140h-90z" />
    <glyph glyph-name="uhungarumlaut" unicode="&#x171;" horiz-adv-x="670" 
d="M630 82l0.00292969 -81.999h-184v67h-2c-15.333 -28.667 -38.666 -50.334 -69.999 -65.001s-64.333 -22 -99 -22c-26.667 0 -50.334 3.5 -71.001 10.5s-36.834 17 -48.501 30s-21.334 25.833 -29.001 38.5s-13 27.167 -16 43.5s-4.83301 28.833 -5.5 37.5s-1 18 -1 28
v258h-64v82h184v-302c0 -15.333 0.333008 -28 1 -38s2.66699 -22.333 6 -37s8.16602 -26.5 14.499 -35.5s15.833 -16.833 28.5 -23.5s27.667 -10 45 -10c23.333 0 43.666 5 60.999 15s30 21.333 38 34s14.333 28 19 46s7.33398 31.333 8.00098 40s1 17.667 1 27v202h-64v82
h184v-426h64zM247.003 700.001h120l-110 -132h-80zM417.003 700.001h120l-110 -132h-80z" />
    <glyph glyph-name="Uogonek" unicode="&#x172;" horiz-adv-x="786" 
d="M485 594v106.003h266v-106h-69v-325c0 -26.667 -1.16699 -50.5 -3.5 -71.5s-8.5 -45.167 -18.5 -72.5s-23.833 -50.5 -41.5 -69.5s-43 -35.667 -76 -50s-72.167 -22.833 -117.5 -25.5c-34 -24.667 -51 -61.334 -51 -110.001c0 -20 5 -35.833 15 -47.5
s23.667 -17.5 41 -17.5c18 0 31.5 6 40.5 18s13.167 26.667 12.5 44h86c-0.666992 -8.66699 -2.16699 -17.167 -4.5 -25.5s-6.83301 -19 -13.5 -32s-15.167 -24.333 -25.5 -34s-25.166 -18 -44.499 -25s-41.333 -10.5 -66 -10.5c-46.667 0 -81.334 12.333 -104.001 37
s-34 54.334 -34 89.001c0 50 17.667 89 53 117c-40 5.33301 -74.5 15.666 -103.5 30.999s-51.167 32.166 -66.5 50.499s-27.5 40.666 -36.5 66.999s-14.5 49.5 -16.5 69.5s-3 42.667 -3 68v325h-69v106h266v-106h-69v-305c0 -71.333 12.167 -123.166 36.5 -155.499
s65.833 -48.5 124.5 -48.5s100.167 16.167 124.5 48.5s36.5 84.166 36.5 155.499v305h-69z" />
    <glyph glyph-name="uogonek" unicode="&#x173;" horiz-adv-x="670" 
d="M475 0l-28.9932 0.000976562v67h-2c-15.333 -28.667 -38.666 -50.334 -69.999 -65.001s-64.333 -22 -99 -22c-26.667 0 -50.334 3.5 -71.001 10.5s-36.834 17 -48.501 30s-21.334 25.833 -29.001 38.5s-13 27.167 -16 43.5s-4.83301 28.833 -5.5 37.5s-1 18 -1 28v258
h-64v82h184v-302c0 -15.333 0.333008 -28 1 -38s2.66699 -22.333 6 -37s8.16602 -26.5 14.499 -35.5s15.833 -16.833 28.5 -23.5s27.667 -10 45 -10c23.333 0 43.666 5 60.999 15s30 21.333 38 34s14.333 28 19 46s7.33398 31.333 8.00098 40s1 17.667 1 27v202h-64v82h184
v-426h64v-82h-55c-26 -8.66699 -46.333 -23.667 -61 -45s-22 -46.333 -22 -75c0 -18 4.5 -32.5 13.5 -43.5s21.5 -16.5 37.5 -16.5c16.667 0 29.167 5.66699 37.5 17s12.166 24.666 11.499 39.999h80c-0.666992 -7.33301 -2 -15 -4 -23s-6.33301 -18 -13 -30
s-14.834 -22.333 -24.501 -31s-23.334 -16.334 -41.001 -23.001s-37.834 -10 -60.501 -10c-42.667 0 -74.5 11.5 -95.5 34.5s-31.5 50.167 -31.5 81.5c0 24.667 6 48.334 18 71.001s30.333 40.334 55 53.001z" />
    <glyph glyph-name="Ydieresis" unicode="&#x178;" horiz-adv-x="643" 
d="M0 594v106h269v-106h-56l112 -201l111 201h-56v106h263v-106h-65l-192 -315v-173h69v-106h-266v106h69v173l-193 315h-65zM139 772v96h128v-96h-128zM377 772v96h128v-96h-128z" />
    <glyph glyph-name="Zacute" unicode="&#x179;" horiz-adv-x="635" 
d="M492 246h106v-246h-561v114l378 480h-253v-119h-106v225h520v-98l-378 -496h294v140zM314 900h136l-118 -140h-96z" />
    <glyph glyph-name="zacute" unicode="&#x17a;" horiz-adv-x="509" 
d="M476 0h-443v82l281 344h-181v-87h-82v169h403v-82l-281 -344h221v100h82v-182zM258 700h130l-110 -132h-90z" />
    <glyph glyph-name="Zdotaccent" unicode="&#x17b;" horiz-adv-x="635" 
d="M492 246h106v-246h-561v114l378 480h-253v-119h-106v225h520v-98l-378 -496h294v140zM253 772v100h128v-100h-128z" />
    <glyph glyph-name="zdotaccent" unicode="&#x17c;" horiz-adv-x="509" 
d="M476 0h-443v82l281 344h-181v-87h-82v169h403v-82l-281 -344h221v100h82v-182zM192 594v106h120v-106h-120z" />
    <glyph glyph-name="uni018F" unicode="&#x18f;" horiz-adv-x="775" 
d="M590 254l-404.002 0.000976562c2 -20 6.83301 -39 14.5 -57s18.834 -35.833 33.501 -53.5s35.167 -31.834 61.5 -42.501s57.166 -16 92.499 -16c56.667 0 102.834 16 138.501 48s56.834 72.333 63.501 121zM375.998 615.001
c-53.333 0 -97.1709 -10.8379 -131.504 -32.5049s-58.5 -50.834 -72.5 -87.501h-106v205h106v-59c54 53.333 124.667 80 212 80c36.667 0 70.667 -3.66699 102 -11s58.166 -16.5 80.499 -27.5s42.333 -25.167 60 -42.5s32.167 -34.166 43.5 -50.499s21 -35.166 29 -56.499
s14 -39.833 18 -55.5s7 -33.167 9 -52.5s3.16699 -33.666 3.5 -42.999s0.5 -19.666 0.5 -30.999c0 -50 -5.66699 -95.333 -17 -136s-25.333 -73.667 -42 -99s-37.167 -47.333 -61.5 -66s-46.666 -32.334 -66.999 -41.001s-42.666 -15.5 -66.999 -20.5
s-42.166 -7.83301 -53.499 -8.5s-22.666 -1 -33.999 -1c-60.667 0 -114.167 11.167 -160.5 33.5s-82.666 52.333 -108.999 90s-45.5 78.834 -57.5 123.501s-17 91.667 -15 141h547c0.666992 19.333 -0.166016 38.833 -2.49902 58.5s-8 41.334 -17 65.001
s-21.167 44.334 -36.5 62.001s-36.833 32.5 -64.5 44.5s-59.834 18 -96.501 18z" />
    <glyph glyph-name="florin" unicode="&#x192;" 
d="M492 508l-17.002 -81.999h-110l-93 -446c-10.667 -52.667 -22 -88.334 -34 -107.001c-26 -41.333 -72.333 -62 -139 -62c-7.33301 0 -31 1.33301 -71 4l19 87h18c29.333 1.33301 49 7.5 59 18.5s18.667 32.167 26 63.5l93 442h-93l18 82h92l11 54
c4 19.333 8.83301 35.833 14.5 49.5s14.834 28 27.501 43s30.667 26.333 54 34s52 11.5 86 11.5c24.667 0 51 -2.33301 79 -7l-16 -78c-14 4.66699 -31.667 7 -53 7c-37.333 0 -60.666 -20.333 -69.999 -61l-11 -53h110z" />
    <glyph glyph-name="uni01DD" unicode="&#x1dd;" horiz-adv-x="589" 
d="M418 203l-253.002 0.000976562c0 -14 1.5 -28 4.5 -42s8.5 -29 16.5 -45s20.5 -29 37.5 -39s37.833 -15 62.5 -15c26 0 48.333 5 67 15s32.334 23 41.001 39s14.834 31.167 18.501 45.5s5.5 28.166 5.5 41.499zM281.998 446.001c-64 0 -111.668 -28.334 -143.001 -85.001
h-97v147h82v-47c41.333 44.667 98.666 67 171.999 67c44 0 82.333 -7.5 115 -22.5s57.334 -32.667 74.001 -53s29.834 -44 39.501 -71s15.667 -49.333 18 -67s3.5 -34.834 3.5 -51.501c0 -88.667 -22 -158 -66 -208s-109 -75 -195 -75
c-19.333 0 -37.666 1.16699 -54.999 3.5s-38.833 9.5 -64.5 21.5s-47.5 28 -65.5 48s-33.167 50 -45.5 90s-17.833 87.333 -16.5 142h380c0 24.667 -3.66699 48.334 -11 71.001s-21.833 43.334 -43.5 62.001s-48.834 28 -81.501 28z" />
    <glyph glyph-name="Scommaaccent" unicode="&#x218;" horiz-adv-x="684" 
d="M501 700l105.997 0.00195312v-195h-106c-3.33301 22 -11.166 41 -23.499 57s-27 27.5 -44 34.5s-32.333 11.833 -46 14.5s-26.5 4 -38.5 4c-90 0 -135 -30.333 -135 -91c0 -17.333 4.16699 -32 12.5 -44s21 -21.667 38 -29s32.833 -12.833 47.5 -16.5s34 -7.5 58 -11.5
c46 -8 83.333 -16.333 112 -25s56 -21 82 -37s45 -37 57 -63s18 -57.667 18 -95c0 -149.333 -93 -224 -279 -224c-40 0 -77.833 6.66699 -113.5 20s-62.834 30.666 -81.501 51.999v-51h-106v229h106c0.666992 -15.333 4.16699 -30.5 10.5 -45.5s16.166 -30.333 29.499 -46
s32.833 -28.334 58.5 -38.001s55.834 -14.5 90.501 -14.5c98.667 0 148 35 148 105c0 20 -4.16699 37 -12.5 51s-20.166 24.667 -35.499 32s-28.166 12.666 -38.499 15.999s-23.5 6.33301 -39.5 9c-35.333 6 -62.666 11.667 -81.999 17
c-32.667 6.66699 -60.667 14.334 -84 23.001s-45.833 20.5 -67.5 35.5s-38 34.833 -49 59.5s-16.5 54 -16.5 88c0 30.667 4.83301 58 14.5 82s23 42.833 40 56.5s34.167 25 51.5 34s37 15.333 59 19s39.167 6 51.5 7s25.5 1.5 39.5 1.5c32.667 0 65 -6 97 -18
s55.667 -27 71 -45v42zM281.997 -59.998l140.001 0.000976562v-105c0 -20.667 -4 -38.667 -12 -54s-17.333 -26.833 -28 -34.5s-23.334 -13.834 -38.001 -18.501s-26.5 -7.5 -35.5 -8.5s-17.833 -1.5 -26.5 -1.5v68c19.333 -0.666992 36 2.33301 50 9s21 16.667 21 30v9h-71
v106z" />
    <glyph glyph-name="scommaaccent" unicode="&#x219;" horiz-adv-x="550" 
d="M486 365l-86.001 0.00390625c-6 21.333 -19.333 40.166 -40 56.499s-44.667 24.5 -72 24.5c-63.333 0 -95 -21 -95 -63c0 -18.667 6.83301 -33.834 20.5 -45.501s26.334 -19 38.001 -22s32.5 -6.83301 62.5 -11.5c4.66699 -0.666992 8 -1.33398 10 -2.00098l40.5 -8
c9.66699 -2 23.167 -5.5 40.5 -10.5s31 -11 41 -18s20.5 -15.833 31.5 -26.5s19.167 -23.834 24.5 -39.501s8 -33.5 8 -53.5c0 -110.667 -69 -166 -207 -166c-75.333 0 -128 18 -158 54v-34h-87v186h87c0 -36 13 -65.667 39 -89s56 -35 90 -35c33.333 0 60 5.33301 80 16
s30 31.667 30 63c0 22 -7 38.5 -21 49.5s-38.333 19.5 -73 25.5l-55 9c-57.333 10.667 -99.333 27.834 -126 51.501s-40 58.5 -40 104.5c0 47.333 20.333 85.666 61 114.999c31.333 21.333 75.333 32 132 32c64.667 0 110.667 -17.333 138 -52v32h86v-143zM209.999 -59.9961
l132.001 -0.000976562v-99c0 -24 -5.33301 -44.167 -16 -60.5s-24.167 -27.666 -40.5 -33.999s-30.333 -10.666 -42 -12.999s-22.834 -3.5 -33.501 -3.5v64c18 -0.666992 33.667 2.16602 47 8.49902s20 15.833 20 28.5v9h-67v100z" />
    <glyph glyph-name="Tcommaaccent" unicode="&#x21a;" horiz-adv-x="690" 
d="M212 0v106h69v488h-160v-150h-106v256h660v-256h-106v150h-160v-488h69v-106h-266zM275 -60l140.001 0.000976562v-105c0 -20.667 -4 -38.667 -12 -54s-17.333 -26.833 -28 -34.5s-23.334 -13.834 -38.001 -18.501s-26.5 -7.5 -35.5 -8.5s-17.833 -1.5 -26.5 -1.5v68
c19.333 -0.666992 36 2.33301 50 9s21 16.667 21 30v9h-71v106z" />
    <glyph glyph-name="tcommaaccent" unicode="&#x21b;" horiz-adv-x="342" 
d="M14 508l82 -0.000976562v152h120v-152h106v-82h-106v-287c0 -15.333 0.666992 -26.5 2 -33.5s6.5 -13.667 15.5 -20s22.833 -9.5 41.5 -9.5c18 0 33.667 2 47 6v-82c-30 -8 -62.667 -12 -98 -12c-29.333 0 -53.5 3.83301 -72.5 11.5s-32 18.167 -39 31.5
s-11.5 24.833 -13.5 34.5s-3 20.834 -3 33.501v327h-82v82zM151 -60.001l132.001 -0.000976562v-99c0 -24 -5.33301 -44.167 -16 -60.5s-24.167 -27.666 -40.5 -33.999s-30.333 -10.666 -42 -12.999s-22.834 -3.5 -33.501 -3.5v64c18 -0.666992 33.667 2.16602 47 8.49902
s20 15.833 20 28.5v9h-67v100z" />
    <glyph glyph-name="uni0259" unicode="&#x259;" horiz-adv-x="589" 
d="M418 203l-253.002 0.000976562c0 -14 1.5 -28 4.5 -42s8.5 -29 16.5 -45s20.5 -29 37.5 -39s37.833 -15 62.5 -15c26 0 48.333 5 67 15s32.334 23 41.001 39s14.834 31.167 18.501 45.5s5.5 28.166 5.5 41.499zM281.998 446.001c-64 0 -111.668 -28.334 -143.001 -85.001
h-97v147h82v-47c41.333 44.667 98.666 67 171.999 67c44 0 82.333 -7.5 115 -22.5s57.334 -32.667 74.001 -53s29.834 -44 39.501 -71s15.667 -49.333 18 -67s3.5 -34.834 3.5 -51.501c0 -88.667 -22 -158 -66 -208s-109 -75 -195 -75
c-19.333 0 -37.666 1.16699 -54.999 3.5s-38.833 9.5 -64.5 21.5s-47.5 28 -65.5 48s-33.167 50 -45.5 90s-17.833 87.333 -16.5 142h380c0 24.667 -3.66699 48.334 -11 71.001s-21.833 43.334 -43.5 62.001s-48.834 28 -81.501 28z" />
    <glyph glyph-name="afii57929" unicode="&#x2bc;" horiz-adv-x="232" 
d="M50 700l132.001 0.000976562v-139c0 -52 -12.833 -89.833 -38.5 -113.5s-56.834 -37.167 -93.501 -40.5v69c20 1.33301 36.167 9.16602 48.5 23.499s18.5 32.5 18.5 54.5v11h-67v135z" />
    <glyph glyph-name="circumflex" unicode="&#x2c6;" horiz-adv-x="500" 
d="M250 657l-90 -89h-110l120 132h160l120 -132h-110z" />
    <glyph glyph-name="caron" unicode="&#x2c7;" horiz-adv-x="500" 
d="M250 611l90 89h110l-120 -132h-160l-120 132h110z" />
    <glyph glyph-name="breve" unicode="&#x2d8;" horiz-adv-x="494" 
d="M342 700h102c-5.33301 -36.667 -23.5 -69.667 -54.5 -99s-78.5 -44 -142.5 -44s-111.5 14.667 -142.5 44s-49.167 62.333 -54.5 99h102c2.66699 -22.667 12.667 -40.5 30 -53.5s39 -19.5 65 -19.5s47.667 6.5 65 19.5s27.333 30.833 30 53.5z" />
    <glyph glyph-name="dotaccent" unicode="&#x2d9;" horiz-adv-x="220" 
d="M50 594v106h120v-106h-120z" />
    <glyph glyph-name="ring" unicode="&#x2da;" horiz-adv-x="288" 
d="M50 634c0 25.333 9.33301 47.333 28 66s40.667 28 66 28s47.333 -9.33301 66 -28s28 -40.667 28 -66s-9.33301 -47.333 -28 -66s-40.667 -28 -66 -28s-47.333 9.33301 -66 28s-28 40.667 -28 66zM100 634c0 -12 4.33301 -22.333 13 -31s19 -13 31 -13
s22.333 4.33301 31 13s13 19 13 31s-4.33301 22.333 -13 31s-19 13 -31 13s-22.333 -4.33301 -31 -13s-13 -19 -13 -31z" />
    <glyph glyph-name="ogonek" unicode="&#x2db;" horiz-adv-x="370" 
d="M123 0h100.004c-26 -8.66699 -46.333 -23.667 -61 -45s-22 -46.333 -22 -75c0 -18 4.5 -32.5 13.5 -43.5s21.5 -16.5 37.5 -16.5c16.667 0 29.167 5.66699 37.5 17s12.166 24.666 11.499 39.999h80c-0.666992 -7.33301 -2 -15 -4 -23s-6.33301 -18 -13 -30
s-14.834 -22.333 -24.501 -31s-23.334 -16.334 -41.001 -23.001s-37.834 -10 -60.501 -10c-42.667 0 -74.5 11.5 -95.5 34.5s-31.5 50.167 -31.5 81.5c0 24.667 6 48.334 18 71.001s30.333 40.334 55 53.001z" />
    <glyph glyph-name="tilde" unicode="&#x2dc;" horiz-adv-x="484" 
d="M360 700l73.9971 -0.000976562c-5.33301 -31.333 -19.166 -56.166 -41.499 -74.499s-47.833 -27.5 -76.5 -27.5c-22 0 -47.667 7.33301 -77 22c-32 14.667 -55 22 -69 22c-26 0 -41.333 -12 -46 -36h-74c4 28 16.667 52 38 72s48 30 80 30c23.333 0 49 -6.66699 77 -20
c4.66699 -2 10.834 -5 18.501 -9s13.334 -6.83301 17.001 -8.5s8.5 -3.16699 14.5 -4.5s12.333 -2 19 -2c26 0 41.333 12 46 36z" />
    <glyph glyph-name="hungarumlaut" unicode="&#x2dd;" horiz-adv-x="460" 
d="M120 700h120l-110 -132h-80zM290 700h120l-110 -132h-80z" />
    <glyph glyph-name="gravecomb" unicode="&#x300;" horiz-adv-x="2" 
d="M-316 700l70 -132h-90l-110 132h130z" />
    <glyph glyph-name="acutecomb" unicode="&#x301;" horiz-adv-x="2" 
d="M-277 700h130l-110 -132h-90z" />
    <glyph glyph-name="uni0394" unicode="&#x394;" horiz-adv-x="676" 
d="M336 564l-154 -458h308zM10 0l264 700h128l264 -700h-656z" />
    <glyph glyph-name="uni0394" unicode="&#x2206;" horiz-adv-x="676" 
d="M336 564l-154 -458h308zM10 0l264 700h128l264 -700h-656z" />
    <glyph glyph-name="uni03A9" unicode="&#x3a9;" horiz-adv-x="824" 
d="M698 196h96v-196h-327v213c41.333 9.33301 76 29.5 104 60.5s42 75.5 42 133.5c0 14 -1 28.167 -3 42.5s-7.16699 32 -15.5 53s-19.166 39.333 -32.499 55s-33 29.167 -59 40.5s-56.333 17 -91 17s-65 -5.66699 -91 -17s-45.667 -24.833 -59 -40.5
s-24.166 -34 -32.499 -55s-13.5 -38.667 -15.5 -53s-3 -28.5 -3 -42.5c0 -58 14 -102.5 42 -133.5s62.667 -51.167 104 -60.5v-213h-327v196h96v-100h125v51c-50.667 13.333 -92.834 42 -126.501 86s-50.5 101 -50.5 171c0 42.667 5.33301 81.167 16 115.5
s23.834 62.333 39.501 84s35.167 40.334 58.5 56.001s44.666 27.334 63.999 35.001s41.333 13.667 66 18s43 6.83301 55 7.5s25 1 39 1s27 -0.333008 39 -1s30.333 -3.16699 55 -7.5s46.667 -10.333 66 -18s40.666 -19.334 63.999 -35.001s42.833 -34.334 58.5 -56.001
s28.834 -49.667 39.501 -84s16 -72.833 16 -115.5c0 -70 -16.833 -127 -50.5 -171s-75.834 -72.667 -126.501 -86v-51h125v100z" />
    <glyph glyph-name="uni03A9" unicode="&#x2126;" horiz-adv-x="824" 
d="M698 196h96v-196h-327v213c41.333 9.33301 76 29.5 104 60.5s42 75.5 42 133.5c0 14 -1 28.167 -3 42.5s-7.16699 32 -15.5 53s-19.166 39.333 -32.499 55s-33 29.167 -59 40.5s-56.333 17 -91 17s-65 -5.66699 -91 -17s-45.667 -24.833 -59 -40.5
s-24.166 -34 -32.499 -55s-13.5 -38.667 -15.5 -53s-3 -28.5 -3 -42.5c0 -58 14 -102.5 42 -133.5s62.667 -51.167 104 -60.5v-213h-327v196h96v-100h125v51c-50.667 13.333 -92.834 42 -126.501 86s-50.5 101 -50.5 171c0 42.667 5.33301 81.167 16 115.5
s23.834 62.333 39.501 84s35.167 40.334 58.5 56.001s44.666 27.334 63.999 35.001s41.333 13.667 66 18s43 6.83301 55 7.5s25 1 39 1s27 -0.333008 39 -1s30.333 -3.16699 55 -7.5s46.667 -10.333 66 -18s40.666 -19.334 63.999 -35.001s42.833 -34.334 58.5 -56.001
s28.834 -49.667 39.501 -84s16 -72.833 16 -115.5c0 -70 -16.833 -127 -50.5 -171s-75.834 -72.667 -126.501 -86v-51h125v100z" />
    <glyph glyph-name="pi" unicode="&#x3c0;" horiz-adv-x="633" 
d="M61 0l0.000976562 82h64v344h-13c-30.667 0 -56.334 -6.66699 -77.001 -20v82c24 13.333 55.667 20 95 20h463v-82h-64v-426h-120v426h-164v-426h-184z" />
    <glyph glyph-name="afii10023" unicode="&#x401;" horiz-adv-x="690" 
d="M55 594v106h594v-225h-106v119h-291v-182h245v-106h-245v-200h302v136h106v-242h-605v106h69v488h-69zM175 772v96h128v-96h-128zM413 772v96h128v-96h-128z" />
    <glyph glyph-name="afii10051" unicode="&#x402;" horiz-adv-x="839" 
d="M212 0v106h69v488h-160v-150h-106v256h660v-226h-106v120h-160v-196c37.333 4.66699 81 7 131 7c17.333 0 32 -0.333008 44 -1s27.5 -2.33398 46.5 -5.00098s35.333 -6.5 49 -11.5s28.334 -12.667 44.001 -23s28.334 -22.5 38.001 -36.5s17.834 -32 24.501 -54
s10 -47 10 -75c0 -14.667 -1.16699 -29.5 -3.5 -44.5s-8 -33.167 -17 -54.5s-21 -39.833 -36 -55.5s-36.667 -29.167 -65 -40.5s-61.166 -17 -98.499 -17c-24.667 0 -47.667 4.33301 -69 13v106c19.333 -8.66699 38.666 -13 57.999 -13c62.667 0 94 34 94 102
c0 19.333 -2.83301 35.833 -8.5 49.5s-12.334 24 -20.001 31s-18.334 12.333 -32.001 16s-25.334 5.83398 -35.001 6.50098s-22.167 1 -37.5 1c-36.667 0 -75.667 -2.33301 -117 -7v-186h46v-106h-243z" />
    <glyph glyph-name="afii10052" unicode="&#x403;" horiz-adv-x="604" 
d="M55 594v106h534v-256h-106v150h-231v-488h69v-106h-266v106h69v488h-69zM344 900h136l-118 -140h-96z" />
    <glyph glyph-name="afii10053" unicode="&#x404;" horiz-adv-x="733" 
d="M569 700l105.993 -0.00195312v-225h-106c-4.66699 36.667 -21.667 69.167 -51 97.5s-73.666 42.5 -132.999 42.5c-117.333 0 -183.666 -67.667 -198.999 -203h303v-106h-306c6.66699 -69.333 29.5 -123.5 68.5 -162.5s87.833 -58.5 146.5 -58.5
c54 0 95.167 15.167 123.5 45.5s43.833 66.5 46.5 108.5h127c-2.66699 -24 -7 -46.833 -13 -68.5s-16.167 -44.667 -30.5 -69s-32.166 -45.166 -53.499 -62.499s-49.666 -31.666 -84.999 -42.999s-75.666 -17 -120.999 -17c-12.667 0 -25 0.333008 -37 1
s-30.333 3.5 -55 8.5s-47.167 11.667 -67.5 20s-42.666 21.5 -66.999 39.5s-44.833 39.167 -61.5 63.5s-30.667 56 -42 95s-17 82.833 -17 131.5c0 69.333 8.83301 129.5 26.5 180.5s42.334 90.833 74.001 119.5s66.5 49.667 104.5 63s80 20 126 20
c84 0 148.333 -26.667 193 -80v59z" />
    <glyph glyph-name="afii10054" unicode="&#x405;" horiz-adv-x="684" 
d="M501 700l105.997 0.00195312v-195h-106c-3.33301 22 -11.166 41 -23.499 57s-27 27.5 -44 34.5s-32.333 11.833 -46 14.5s-26.5 4 -38.5 4c-90 0 -135 -30.333 -135 -91c0 -17.333 4.16699 -32 12.5 -44s21 -21.667 38 -29s32.833 -12.833 47.5 -16.5s34 -7.5 58 -11.5
c46 -8 83.333 -16.333 112 -25s56 -21 82 -37s45 -37 57 -63s18 -57.667 18 -95c0 -149.333 -93 -224 -279 -224c-40 0 -77.833 6.66699 -113.5 20s-62.834 30.666 -81.501 51.999v-51h-106v229h106c0.666992 -15.333 4.16699 -30.5 10.5 -45.5s16.166 -30.333 29.499 -46
s32.833 -28.334 58.5 -38.001s55.834 -14.5 90.501 -14.5c98.667 0 148 35 148 105c0 20 -4.16699 37 -12.5 51s-20.166 24.667 -35.499 32s-28.166 12.666 -38.499 15.999s-23.5 6.33301 -39.5 9c-35.333 6 -62.666 11.667 -81.999 17
c-32.667 6.66699 -60.667 14.334 -84 23.001s-45.833 20.5 -67.5 35.5s-38 34.833 -49 59.5s-16.5 54 -16.5 88c0 30.667 4.83301 58 14.5 82s23 42.833 40 56.5s34.167 25 51.5 34s37 15.333 59 19s39.167 6 51.5 7s25.5 1.5 39.5 1.5c32.667 0 65 -6 97 -18
s55.667 -27 71 -45v42z" />
    <glyph glyph-name="afii10055" unicode="&#x406;" horiz-adv-x="376" 
d="M55 594v106h266v-106h-69v-488h69v-106h-266v106h69v488h-69z" />
    <glyph glyph-name="afii10056" unicode="&#x407;" horiz-adv-x="376" 
d="M38 772v88h120v-88h-120zM218 772v88h120v-88h-120zM55 594v106h266v-106h-69v-488h69v-106h-266v106h69v488h-69z" />
    <glyph glyph-name="afii10057" unicode="&#x408;" horiz-adv-x="580" 
d="M271 594l-0.000976562 106.003h274v-106h-69v-346c0 -28.667 -1 -53.334 -3 -74.001s-7.33301 -44.167 -16 -70.5s-20.667 -47.833 -36 -64.5s-37.666 -30.834 -66.999 -42.501s-64.333 -17.5 -105 -17.5c-44.667 0 -82.667 6.66699 -114 20s-55 31.5 -71 54.5
s-27.333 46.667 -34 71s-10 50.833 -10 79.5v39h128v-29c0 -86 34 -129 102 -129c32 0 56.333 9.16699 73 27.5s25 58.166 25 119.499v362h-77z" />
    <glyph glyph-name="afii10058" unicode="&#x409;" horiz-adv-x="1099" 
d="M449 0l0.000976562 106.001h69v488h-216v-172c0 -34 -1.16699 -66 -3.5 -96s-6.83301 -63.667 -13.5 -101s-17 -69.833 -31 -97.5s-31.5 -53 -52.5 -76s-48.333 -39.167 -82 -48.5s-71.834 -10.333 -114.501 -3v106c24.667 -4.66699 46.5 -3 65.5 5s34.5 21.333 46.5 40
s22 39 30 61s13.833 47.667 17.5 77s6.16699 55.833 7.5 79.5s2 49.167 2 76.5v149h-69v106h611v-106h-69v-164h166c172.667 0 259 -71 259 -213c0 -24 -4.66699 -47.833 -14 -71.5s-23.5 -46.834 -42.5 -69.501s-46.5 -41 -82.5 -55s-77.667 -21 -125 -21h-359z
M647.001 324.001v-218h142c100.667 0 151 37 151 111c0 71.333 -49.333 107 -148 107h-145z" />
    <glyph glyph-name="afii10059" unicode="&#x40a;" horiz-adv-x="1147" 
d="M498 594v106.001h266v-106h-69v-164h166c172.667 0 259 -71 259 -213c0 -24 -4.66699 -47.833 -14 -71.5s-23.5 -46.834 -42.5 -69.501s-46.5 -41 -82.5 -55s-77.667 -21 -125 -21h-358v106h69v218h-315v-218h69v-106h-266v106h69v488h-69v106h266v-106h-69v-164h315v164
h-69zM695 324.001v-218h142c100.667 0 151 37 151 111c0 71.333 -49.333 107 -148 107h-145z" />
    <glyph glyph-name="afii10060" unicode="&#x40b;" horiz-adv-x="885" 
d="M675 700v-226h-106v120h-160v-190c52 5.33301 94.667 8 128 8c82 0 145.667 -15 191 -45s68 -81.667 68 -155v-106h69v-106h-197v185c0 39.333 -10 69.333 -30 90s-59 31 -117 31c-32 0 -69.333 -2.66699 -112 -8v-192h69v-106h-266v106h69v488h-160v-150h-106v256h660z
" />
    <glyph glyph-name="afii10061" unicode="&#x40c;" horiz-adv-x="684" 
d="M272 348l186 246h-51v106h262v-106h-68l-192 -237l210 -251h60v-106h-269v106h55zM252 594v-488h69v-106h-266v106h69v488h-69v106h266v-106h-69zM400 900h136l-118 -140h-96z" />
    <glyph glyph-name="afii10062" unicode="&#x40e;" horiz-adv-x="658" 
d="M5 594v106h266v-106h-54l135 -272l100 272h-65v106h266v-106h-69l-257 -594h-176v106h104l28 78l-218 410h-60zM119 900h103c2.66699 -25.333 13.834 -45.166 33.501 -59.499s44.167 -21.5 73.5 -21.5s53.833 7.16699 73.5 21.5s30.834 34.166 33.501 59.499h103
c-8.66699 -45.333 -30.834 -82.166 -66.501 -110.499s-83.5 -42.5 -143.5 -42.5s-107.833 14.167 -143.5 42.5s-57.834 65.166 -66.501 110.499z" />
    <glyph glyph-name="afii10145" unicode="&#x40f;" horiz-adv-x="811" 
d="M490 594v106h266v-106h-69v-488h69v-106h-292v-185h-120v185h-289v106h69v488h-69v106h266v-106h-69v-488h307v488h-69z" />
    <glyph glyph-name="afii10017" unicode="&#x410;" horiz-adv-x="726" 
d="M207 599v101h225l224 -594h70v-106h-269v96h65l-21 61h-274l-21 -61h57v-96h-263v106h80l187 493h-60zM363 574l-106 -314h210z" />
    <glyph glyph-name="afii10018" unicode="&#x411;" horiz-adv-x="731" 
d="M55 594v105.999h590v-225h-106v119h-287v-172h188c20 0 38.667 -0.833008 56 -2.5s38.666 -6.5 63.999 -14.5s47 -19 65 -33s33.5 -34.5 46.5 -61.5s19.5 -59.167 19.5 -96.5c0 -38 -7.66699 -71 -23 -99s-33.166 -49.167 -53.499 -63.5s-43.666 -25.666 -69.999 -33.999
s-47.333 -13.333 -63 -15s-29.834 -2.5 -42.501 -2.5h-384v106h69v488h-69zM252 315.999v-210h160c98 0 147 36.333 147 109c0 67.333 -48 101 -144 101h-163z" />
    </font>
</defs>
</svg>
